<svg width="24" height="24" viewBox="0 0 24 24" fill="none" xmlns="http://www.w3.org/2000/svg">
<path d="M22.5 14C22.5 8.711 18.5865 4.349 13.5 3.62V3.5C13.5 3.10218 13.342 2.72064 13.0607 2.43934C12.7794 2.15804 12.3978 2 12 2C11.6022 2 11.2206 2.15804 10.9393 2.43934C10.658 2.72064 10.5 3.10218 10.5 3.5V3.62C5.4135 4.349 1.5 8.711 1.5 14V15.5H22.5V14ZM13.5 5.75C8.79 5.75 4.92 9.3875 4.5375 14H3C3 9.0365 7.0365 5 12 5C13.74 5 15.36 5.504 16.737 6.362C15.7052 5.95921 14.6076 5.75168 13.5 5.75ZM22.5 17H1.5C1.10218 17 0.720644 17.158 0.43934 17.4393C0.158035 17.7206 0 18.1022 0 18.5L0 20H24V18.5C24 18.1022 23.842 17.7206 23.5607 17.4393C23.2794 17.158 22.8978 17 22.5 17Z" fill="#FFF8EB"/>
</svg>
