<svg width="16" height="16" viewBox="0 0 16 16" fill="none" xmlns="http://www.w3.org/2000/svg">
<path d="M8 15C11.4518 15 14.25 12.2018 14.25 8.75C14.25 5.29822 11.4518 2.5 8 2.5C4.54822 2.5 1.75 5.29822 1.75 8.75C1.75 12.2018 4.54822 15 8 15Z" fill="#CED3ED"/>
<path d="M10 2H6C5.725 2 5.5 1.775 5.5 1.5C5.5 1.225 5.725 1 6 1H10C10.275 1 10.5 1.225 10.5 1.5C10.5 1.775 10.275 2 10 2ZM8 9.25C7.725 9.25 7.5 9.025 7.5 8.75V5.5C7.5 5.225 7.725 5 8 5C8.275 5 8.5 5.225 8.5 5.5V8.75C8.5 9.025 8.275 9.25 8 9.25Z" fill="#4257FF"/>
</svg>
