<svg width="198" height="157" viewBox="0 0 198 157" fill="none" xmlns="http://www.w3.org/2000/svg">
<path fill-rule="evenodd" clip-rule="evenodd" d="M32.0605 156.409C14.6201 156.409 0.347046 142.136 0.347046 124.695C0.347046 107.25 14.6201 92.9817 32.0605 92.9817C39.4351 92.9817 45.4685 86.9483 45.4685 79.5737C45.4685 72.199 39.4351 66.1657 32.0605 66.1657H30.4659C22.7986 66.1657 16.5249 59.892 16.5249 52.2247C16.5249 44.5573 22.7986 38.2836 30.4659 38.2836H35.359C38.3429 38.2836 40.7851 35.8415 40.7851 32.8575C40.7851 29.8736 38.3429 27.4314 35.359 27.4314H31.7635C29.7014 27.4314 28.0193 25.745 28.0193 23.6873C28.0193 21.6252 29.7057 19.9432 31.7635 19.9432H55.945C59.1824 19.9432 61.8299 17.2957 61.8299 14.0584C61.8299 10.8211 59.1824 8.17353 55.945 8.17353H48.7146C46.6525 8.17353 44.9705 6.48716 44.9705 4.42943C44.9705 2.36733 46.6569 0.685322 48.7146 0.685322H151.553C154.24 0.685322 156.442 2.88722 156.442 5.57407C156.442 8.26091 154.24 10.4628 151.553 10.4628H144.139C139.914 10.4628 136.459 13.9186 136.459 18.1432C136.459 22.3679 139.914 25.8237 144.139 25.8237H175.892C178.579 25.8237 180.781 28.0256 180.781 30.7124C180.781 33.3993 178.583 35.6012 175.892 35.6012H171.2C167.303 35.6012 164.118 38.7904 164.118 42.6831C164.118 46.5801 167.307 49.765 171.2 49.765H177.587C187.592 49.765 195.779 57.9522 195.779 67.9569C195.779 77.9616 187.592 86.1488 177.587 86.1488H175.503C165.878 86.1488 158.006 94.0214 158.006 103.646C158.006 113.271 165.878 121.143 175.503 121.143H180.012C189.715 121.143 197.653 129.081 197.653 138.785C197.653 148.488 189.715 156.426 180.012 156.426C129.809 156.409 82.263 156.409 32.0605 156.409ZM164.057 10.4453C166.757 10.4453 168.945 8.25654 168.945 5.55659C168.945 2.85664 166.757 0.667847 164.057 0.667847C161.357 0.667847 159.168 2.85664 159.168 5.55659C159.168 8.25654 161.357 10.4453 164.057 10.4453ZM21.252 27.4227C23.3228 27.4227 24.9961 25.745 24.9961 23.6786C24.9961 21.6077 23.3185 19.9345 21.252 19.9345C19.1812 19.9345 17.5079 21.6121 17.5079 23.6786C17.5035 25.745 19.1812 27.4227 21.252 27.4227Z" fill="#C1DBF2"/>
<path fill-rule="evenodd" clip-rule="evenodd" d="M99.6857 31.4508H40.6014C40.7193 31.8964 40.7849 32.3682 40.7849 32.8532C40.7849 35.8371 38.3427 38.2793 35.3588 38.2793H30.4657C22.7983 38.2793 16.5247 44.553 16.5247 52.2203C16.5247 52.2596 16.5247 52.3033 16.5247 52.3426H99.6857C105.431 52.3426 110.132 47.6417 110.132 41.8967C110.132 36.1517 105.431 31.4508 99.6857 31.4508Z" fill="#DCE9F7"/>
<path fill-rule="evenodd" clip-rule="evenodd" d="M17.8046 46.4011H110.132V156.409H32.0602C14.6197 156.409 0.34668 142.136 0.34668 124.695C0.34668 107.25 14.6197 92.9817 32.0602 92.9817C39.4348 92.9817 45.4682 86.9483 45.4682 79.5737C45.4682 72.1991 39.4348 66.1657 32.0602 66.1657H30.4655C22.7982 66.1657 16.5245 59.8921 16.5245 52.2247C16.5245 50.1452 16.9833 48.1748 17.8046 46.4011Z" fill="#CDE0F3"/>
<path fill-rule="evenodd" clip-rule="evenodd" d="M16.874 55.3135H102.613C105.068 55.3135 107.078 57.6945 107.078 60.6085V156.409H32.0602C14.6197 156.409 0.34668 142.136 0.34668 124.695C0.34668 107.25 14.6197 92.9817 32.0602 92.9817C39.4348 92.9817 45.4682 86.9483 45.4682 79.5737C45.4682 72.1991 39.4348 66.1657 32.0602 66.1657H30.4655C23.8598 66.1613 18.2895 61.5041 16.874 55.3135Z" fill="#C1DBF2"/>
<path fill-rule="evenodd" clip-rule="evenodd" d="M44.7168 75.1568H107.073V84.1697H44.6512C45.1799 82.7324 45.4682 81.1858 45.4682 79.5737C45.4682 78.0271 45.2061 76.5417 44.7168 75.1568Z" fill="#CDE0F3"/>
<path fill-rule="evenodd" clip-rule="evenodd" d="M111.451 71.3209H42.6154C44.4022 73.6015 45.4726 76.4675 45.4726 79.5693C45.4726 79.8271 45.4638 80.0805 45.4507 80.3339H111.455C113.076 80.3339 114.396 79.0101 114.396 77.3936V74.2656C114.391 72.6447 113.072 71.3209 111.451 71.3209Z" fill="#DCE9F7"/>
<path fill-rule="evenodd" clip-rule="evenodd" d="M1.58743 115.931H107.078V124.944H0.351049C0.351049 124.861 0.34668 124.778 0.34668 124.695C0.34668 121.659 0.779196 118.719 1.58743 115.931Z" fill="#CDE0F3"/>
<path fill-rule="evenodd" clip-rule="evenodd" d="M111.451 112.1H2.97235C1.7447 114.918 0.914617 117.945 0.552002 121.113H111.451C113.072 121.113 114.391 119.789 114.391 118.173V115.044C114.391 113.424 113.072 112.1 111.451 112.1Z" fill="#DCE9F7"/>
<path fill-rule="evenodd" clip-rule="evenodd" d="M111.451 152.874H17.5555C21.9069 155.133 26.8393 156.409 32.0601 156.409H114.391V155.814C114.391 154.198 113.072 152.874 111.451 152.874Z" fill="white"/>
<path fill-rule="evenodd" clip-rule="evenodd" d="M111.451 41.8967H21.1206C18.6085 44.1773 16.9221 47.3534 16.5857 50.9097H111.451C113.072 50.9097 114.391 49.5859 114.391 47.9694V44.8414C114.391 43.2205 113.072 41.8967 111.451 41.8967Z" fill="#DCE9F7"/>
<path fill-rule="evenodd" clip-rule="evenodd" d="M24.7555 39.6336H101.909C103.998 39.6336 105.706 37.7113 105.706 35.3652C105.706 34.4565 105.448 33.609 105.011 32.9143C108.03 34.4871 110.136 37.9297 110.136 41.8967H21.1206C22.1953 40.9748 23.4186 40.2059 24.7555 39.6336Z" fill="#CDE0F3"/>
<path fill-rule="evenodd" clip-rule="evenodd" d="M103.395 89.3336H90.5022C89.8949 89.3336 89.4012 89.8272 89.4012 90.4345V110.999C89.4012 111.606 89.8949 112.1 90.5022 112.1H103.395C104.002 112.1 104.496 111.606 104.496 110.999V90.4345C104.496 89.8272 104.002 89.3336 103.395 89.3336Z" fill="#EAEAE6"/>
<path fill-rule="evenodd" clip-rule="evenodd" d="M87.6624 89.3336H81.1135C80.8077 89.3336 80.5543 89.5826 80.5543 89.8928V111.54C80.5543 111.846 80.8077 112.1 81.1135 112.1H87.6624C87.9683 112.1 88.2217 111.846 88.2217 111.54V89.8928C88.2217 89.5826 87.9683 89.3336 87.6624 89.3336Z" fill="#E7E9E3"/>
<path fill-rule="evenodd" clip-rule="evenodd" d="M82.1447 85.0434H74.5211C74.1628 85.0434 73.8701 85.3361 73.8701 85.6943V111.449C73.8701 111.807 74.1628 112.1 74.5211 112.1H82.1447C82.503 112.1 82.7957 111.807 82.7957 111.449V85.6943C82.7957 85.3361 82.503 85.0434 82.1447 85.0434Z" fill="#B3CEEB"/>
<path fill-rule="evenodd" clip-rule="evenodd" d="M84.9364 101.557H71.7338C71.31 101.557 70.9648 101.903 70.9648 102.326V111.331C70.9648 111.754 71.31 112.1 71.7338 112.1H84.9364C85.3602 112.1 85.7053 111.754 85.7053 111.331V102.326C85.7053 101.903 85.3602 101.557 84.9364 101.557Z" fill="#B8D3EE"/>
<path fill-rule="evenodd" clip-rule="evenodd" d="M68.7148 92.7848H62.1659C61.8601 92.7848 61.6067 93.0382 61.6067 93.3441V111.54C61.6067 111.846 61.8601 112.1 62.1659 112.1H68.7148C69.0206 112.1 69.274 111.846 69.274 111.54V93.3441C69.274 93.0382 69.0206 92.7848 68.7148 92.7848Z" fill="#B8D3EE"/>
<path fill-rule="evenodd" clip-rule="evenodd" d="M100.883 94.4364H93.0101C92.6038 94.4364 92.2717 94.7685 92.2717 95.1748V99.4868C92.2717 99.8931 92.6038 100.225 93.0101 100.225H100.883C101.289 100.225 101.621 99.8931 101.621 99.4868V95.1748C101.621 94.7685 101.289 94.4364 100.883 94.4364Z" fill="#E3E2DC"/>
<path fill-rule="evenodd" clip-rule="evenodd" d="M101.001 101.553H92.8965C92.5557 101.553 92.2717 101.833 92.2717 102.174V102.772C92.2717 103.113 92.5513 103.397 92.8965 103.397H101.001C101.346 103.397 101.625 103.117 101.625 102.772V102.174C101.621 101.833 101.341 101.553 101.001 101.553Z" fill="#E3E2DC"/>
<path fill-rule="evenodd" clip-rule="evenodd" d="M101.001 105.123H92.8965C92.5557 105.123 92.2717 105.402 92.2717 105.743V106.342C92.2717 106.682 92.5513 106.966 92.8965 106.966H101.001C101.346 106.966 101.625 106.687 101.625 106.342V105.743C101.621 105.402 101.341 105.123 101.001 105.123Z" fill="#E3E2DC"/>
<path fill-rule="evenodd" clip-rule="evenodd" d="M65.4382 100.531C64.5469 100.531 63.826 101.387 63.826 102.444C63.826 103.502 64.5469 104.358 65.4382 104.358C66.3294 104.358 67.0503 103.502 67.0503 102.444C67.0503 101.387 66.3294 100.531 65.4382 100.531Z" fill="#B3CEEB"/>
<path fill-rule="evenodd" clip-rule="evenodd" d="M68.9071 67.8477H65.4426C65.1979 67.8477 64.9969 68.0487 64.9969 68.2933V70.8841C64.9969 71.1287 65.1979 71.3253 65.4426 71.3253H68.9071C69.1517 71.3253 69.3483 71.1243 69.3483 70.8841V68.2933C69.3483 68.0487 69.1517 67.8477 68.9071 67.8477Z" fill="#DCE9F7"/>
<path fill-rule="evenodd" clip-rule="evenodd" d="M63.3542 62.2336H53.8389C53.4763 62.2336 53.1748 62.5307 53.1748 62.8977V70.6612C53.1748 71.0238 53.4719 71.3252 53.8389 71.3252H63.3542C63.7168 71.3252 64.0183 71.0281 64.0183 70.6612V62.8977C64.0139 62.5307 63.7168 62.2336 63.3542 62.2336Z" fill="#B8D3EE"/>
<path fill-rule="evenodd" clip-rule="evenodd" d="M58.7843 65.1302H52.3053C52.0563 65.1302 51.8553 65.3312 51.8553 65.5802V70.8709C51.8553 71.1199 52.0563 71.3209 52.3053 71.3209H58.7843C59.0334 71.3209 59.2343 71.1199 59.2343 70.8709V65.5802C59.2343 65.3356 59.0334 65.1302 58.7843 65.1302Z" fill="#B3CEEB"/>
<path fill-rule="evenodd" clip-rule="evenodd" d="M54.2758 56.6591H48.6618C48.3997 56.6591 48.1813 56.8732 48.1813 57.1397V70.8447C48.1813 71.1069 48.3953 71.3253 48.6618 71.3253H54.2758C54.538 71.3253 54.7564 71.1112 54.7564 70.8447V57.1397C54.7564 56.8775 54.538 56.6591 54.2758 56.6591Z" fill="#DCE9F7"/>
<path fill-rule="evenodd" clip-rule="evenodd" d="M89.4669 61.1502H89.1043V60.4686H89.2266C89.4538 60.4686 89.6373 60.2502 89.6373 59.9793C89.6373 59.7084 89.4538 59.49 89.2266 59.49H88.7766V56.6066C88.7766 56.3357 88.5888 56.1173 88.366 56.1173C88.1388 56.1173 87.9553 56.3357 87.9553 56.6066V59.49H87.5053C87.2781 59.49 87.0903 59.7084 87.0903 59.9793C87.0903 60.2502 87.2781 60.4686 87.5053 60.4686H87.632V61.1502H87.265C87.0116 61.1502 86.8063 61.3948 86.8063 61.6963V70.7748C86.8063 71.0762 87.0116 71.3209 87.265 71.3209H89.4713C89.7247 71.3209 89.9344 71.0762 89.9344 70.7748V61.6963C89.9256 61.3948 89.7203 61.1502 89.4669 61.1502Z" fill="#B3CEEB"/>
<path fill-rule="evenodd" clip-rule="evenodd" d="M93.0363 62.2163H92.7087V61.6047H92.8223C93.0232 61.6047 93.1936 61.4081 93.1936 61.1678C93.1936 60.9275 93.0276 60.7309 92.8223 60.7309H92.4203V58.1533C92.4203 57.913 92.2543 57.7164 92.049 57.7164C91.8436 57.7164 91.6776 57.913 91.6776 58.1533V60.7309H91.2757C91.0704 60.7309 90.9043 60.9275 90.9043 61.1678C90.9043 61.4081 91.0704 61.6047 91.2757 61.6047H91.3849V62.2163H91.0573C90.8301 62.2163 90.6422 62.4347 90.6422 62.7056V70.8317C90.6422 71.1025 90.8301 71.321 91.0573 71.321H93.032C93.2592 71.321 93.4426 71.1025 93.4426 70.8317V62.7056C93.447 62.4391 93.2635 62.2163 93.0363 62.2163Z" fill="#B3CEEB"/>
<path fill-rule="evenodd" clip-rule="evenodd" d="M99.1396 61.7095H93.696C93.4382 61.7095 93.2285 61.9192 93.2285 62.1769V70.8622C93.2285 71.12 93.4382 71.3253 93.696 71.3253H99.1396C99.3973 71.3253 99.6027 71.1156 99.6027 70.8622V62.1769C99.6027 61.9192 99.3973 61.7095 99.1396 61.7095Z" fill="#DCE9F7"/>
<path fill-rule="evenodd" clip-rule="evenodd" d="M98.078 63.8633H94.7533C94.5829 63.8633 94.4387 64.0031 94.4387 64.1735V65.9953C94.4387 66.1657 94.5785 66.3099 94.7533 66.3099H98.078C98.2484 66.3099 98.3925 66.17 98.3925 65.9953V64.1735C98.3925 64.0031 98.2527 63.8633 98.078 63.8633Z" fill="#F5F6F5"/>
<path fill-rule="evenodd" clip-rule="evenodd" d="M98.1305 66.8689H94.7096C94.5655 66.8689 94.4475 66.9869 94.4475 67.1311V67.3845C94.4475 67.5286 94.5655 67.6466 94.7096 67.6466H98.1305C98.2746 67.6466 98.3926 67.5286 98.3926 67.3845V67.1311C98.3926 66.9869 98.2746 66.8689 98.1305 66.8689Z" fill="#F5F6F5"/>
<path fill-rule="evenodd" clip-rule="evenodd" d="M98.1305 68.3763H94.7096C94.5655 68.3763 94.4475 68.4943 94.4475 68.6385V68.8918C94.4475 69.036 94.5655 69.154 94.7096 69.154H98.1305C98.2746 69.154 98.3926 69.036 98.3926 68.8918V68.6385C98.3926 68.4943 98.2746 68.3763 98.1305 68.3763Z" fill="#F5F6F5"/>
<path fill-rule="evenodd" clip-rule="evenodd" d="M92.4072 65.4141H89.0607C88.9034 65.4141 88.7767 65.5408 88.7767 65.6981V71.0325C88.7767 71.1898 88.9034 71.3165 89.0607 71.3165H92.4072C92.5645 71.3165 92.6912 71.1898 92.6912 71.0325V65.6981C92.6912 65.5452 92.5645 65.4141 92.4072 65.4141Z" fill="#B8D3EE"/>
<path fill-rule="evenodd" clip-rule="evenodd" d="M85.3077 56.8818H73.9618C73.4288 56.8818 72.9919 57.3186 72.9919 57.8516V70.3553C72.9919 70.8883 73.4288 71.3252 73.9618 71.3252H85.3077C85.8407 71.3252 86.2776 70.8883 86.2776 70.3553V57.8516C86.2732 57.3186 85.8364 56.8818 85.3077 56.8818Z" fill="#B8D3EE"/>
<path fill-rule="evenodd" clip-rule="evenodd" d="M87.4748 65.4141H84.1282C83.9709 65.4141 83.8442 65.5408 83.8442 65.6981V71.0325C83.8442 71.1898 83.9709 71.3165 84.1282 71.3165H87.4748C87.632 71.3165 87.7587 71.1898 87.7587 71.0325V65.6981C87.7587 65.5452 87.632 65.4141 87.4748 65.4141Z" fill="#DCE9F7"/>
<path fill-rule="evenodd" clip-rule="evenodd" d="M34.581 62.2336H44.0964C44.459 62.2336 44.7604 62.5307 44.7604 62.8977V70.6611C44.7604 71.0237 44.4633 71.3252 44.0964 71.3252H42.6153C40.5183 68.6514 37.4295 66.7859 33.9213 66.2923V62.8933C33.9169 62.5307 34.214 62.2336 34.581 62.2336Z" fill="#B3CEEB"/>
<path fill-rule="evenodd" clip-rule="evenodd" d="M39.151 65.1302H45.63C45.879 65.1302 46.08 65.3311 46.08 65.5801V70.8708C46.08 71.1198 45.879 71.3208 45.63 71.3208H42.6155C41.5451 69.9534 40.2126 68.8 38.701 67.9306V65.5801C38.6966 65.3355 38.902 65.1302 39.151 65.1302Z" fill="#B8D3EE"/>
<path fill-rule="evenodd" clip-rule="evenodd" d="M37.3814 66.9651H39.5352C39.6357 66.9651 39.7187 67.0481 39.7187 67.1486V68.5816C38.9367 68.0311 38.0891 67.5636 37.1979 67.1923V67.153C37.1979 67.0481 37.2809 66.9651 37.3814 66.9651Z" fill="#F0F1EE"/>
<path fill-rule="evenodd" clip-rule="evenodd" d="M23.3663 58.6861H18.1237C19.4387 61.1764 21.4877 63.2298 23.9735 64.5448V59.2978C23.9779 58.9614 23.7027 58.6861 23.3663 58.6861Z" fill="#EAEAE6"/>
<path fill-rule="evenodd" clip-rule="evenodd" d="M21.9725 61.5173H20.1027C20.7842 62.2774 21.5531 62.9634 22.3832 63.5619V61.9279C22.3832 61.7051 22.1997 61.5173 21.9725 61.5173Z" fill="#E3E2DC"/>
<path fill-rule="evenodd" clip-rule="evenodd" d="M27.5864 96.0834H27.0097V95.0087H27.2063C27.5645 95.0087 27.8572 94.6635 27.8572 94.2354C27.8572 93.8116 27.5645 93.4665 27.2063 93.4665H26.5378C25.6291 93.6281 24.7335 93.8291 23.851 94.0694C23.8422 94.1261 23.8335 94.1829 23.8335 94.2397C23.8335 94.6635 24.1262 95.013 24.4845 95.013H24.6811V96.0878H24.1044C23.7068 96.0878 23.3792 96.4766 23.3792 96.9484V111.239C23.3792 111.711 23.7068 112.1 24.1044 112.1H27.582C27.9795 112.1 28.3072 111.711 28.3072 111.239V96.9484C28.3116 96.4722 27.9839 96.0834 27.5864 96.0834Z" fill="#B3CEEB"/>
<path fill-rule="evenodd" clip-rule="evenodd" d="M33.2048 97.7655H32.6892V96.8044H32.864C33.1829 96.8044 33.4451 96.4942 33.4451 96.1141C33.4451 95.734 33.1829 95.4238 32.864 95.4238H32.2261V92.9816C32.1693 92.9816 32.1126 92.9816 32.0558 92.9816C31.7237 92.9816 31.3961 92.9904 31.064 92.9991V95.4238H30.4262C30.1072 95.4238 29.8451 95.734 29.8451 96.1141C29.8451 96.4942 30.1072 96.8044 30.4262 96.8044H30.6009V97.7655H30.0854C29.7272 97.7655 29.4344 98.1107 29.4344 98.5345V111.326C29.4344 111.75 29.7272 112.095 30.0854 112.095H33.196C33.5543 112.095 33.847 111.75 33.847 111.326V98.5345C33.8557 98.1107 33.563 97.7655 33.2048 97.7655Z" fill="#DEDED7"/>
<path fill-rule="evenodd" clip-rule="evenodd" d="M42.8161 96.966H34.2444C33.8424 96.966 33.5148 97.2937 33.5148 97.6956V111.366C33.5148 111.768 33.8424 112.095 34.2444 112.095H42.8161C43.218 112.095 43.55 111.768 43.55 111.366V97.6956C43.55 97.2937 43.218 96.966 42.8161 96.966Z" fill="#F9F9FA"/>
<path fill-rule="evenodd" clip-rule="evenodd" d="M41.1473 100.356H35.9134C35.6425 100.356 35.4241 100.579 35.4241 100.85V103.716C35.4241 103.987 35.6469 104.21 35.9134 104.21H41.1473C41.4181 104.21 41.6366 103.987 41.6366 103.716V100.85C41.6366 100.575 41.4181 100.356 41.1473 100.356Z" fill="#F5F6F5"/>
<path fill-rule="evenodd" clip-rule="evenodd" d="M41.2259 105.088H35.8347C35.6075 105.088 35.4197 105.276 35.4197 105.503V105.9C35.4197 106.127 35.6032 106.315 35.8347 106.315H41.2215C41.4487 106.315 41.6366 106.127 41.6366 105.9V105.503C41.6366 105.276 41.4531 105.088 41.2259 105.088Z" fill="#F5F6F5"/>
<path fill-rule="evenodd" clip-rule="evenodd" d="M41.2259 107.46H35.8347C35.6075 107.46 35.4197 107.643 35.4197 107.875V108.273C35.4197 108.5 35.6032 108.688 35.8347 108.688H41.2215C41.4487 108.688 41.6366 108.5 41.6366 108.273V107.875C41.6366 107.648 41.4531 107.46 41.2259 107.46Z" fill="#F5F6F5"/>
<path fill-rule="evenodd" clip-rule="evenodd" d="M32.2175 102.798H26.953C26.704 102.798 26.5031 102.999 26.5031 103.248V111.65C26.5031 111.899 26.704 112.1 26.953 112.1H32.2219C32.4709 112.1 32.6719 111.899 32.6719 111.65V103.248C32.6675 103.004 32.4665 102.798 32.2175 102.798Z" fill="#EAEAE6"/>
<path fill-rule="evenodd" clip-rule="evenodd" d="M2.98096 112.087C3.04649 112.095 3.11202 112.1 3.17756 112.1H21.0418C21.8806 112.1 22.5665 111.414 22.5665 110.575V94.4453C13.7851 97.2195 6.62895 103.729 2.98096 112.087Z" fill="#C1DBF2"/>
<path fill-rule="evenodd" clip-rule="evenodd" d="M24.4497 102.798H19.1808C18.9318 102.798 18.7308 102.999 18.7308 103.248V111.65C18.7308 111.899 18.9318 112.1 19.1808 112.1H24.4497C24.6987 112.1 24.8997 111.899 24.8997 111.65V103.248C24.8997 103.004 24.6987 102.798 24.4497 102.798Z" fill="#C1DBF2"/>
<path fill-rule="evenodd" clip-rule="evenodd" d="M46.5996 147.837H51.6238C51.9777 147.837 52.266 148.125 52.266 148.479V152.232C52.266 152.586 51.9777 152.874 51.6238 152.874H46.5996C46.2457 152.874 45.9574 152.586 45.9574 152.232V148.479C45.9574 148.125 46.2457 147.837 46.5996 147.837Z" fill="#EAEAE6"/>
<path fill-rule="evenodd" clip-rule="evenodd" d="M54.6513 139.693H68.4438C68.9724 139.693 69.4049 140.126 69.4049 140.654V151.913C69.4049 152.442 68.9724 152.874 68.4438 152.874H54.6513C54.1227 152.874 53.6902 152.442 53.6902 151.913V140.654C53.6902 140.126 54.1227 139.693 54.6513 139.693Z" fill="#EAEAE6"/>
<path fill-rule="evenodd" clip-rule="evenodd" d="M61.2746 143.896H70.672C71.0302 143.896 71.3273 144.189 71.3273 144.552V152.219C71.3273 152.577 71.0346 152.874 70.672 152.874H61.2746C60.9163 152.874 60.6193 152.581 60.6193 152.219V144.552C60.6236 144.193 60.9163 143.896 61.2746 143.896Z" fill="#E1E1D9"/>
<path fill-rule="evenodd" clip-rule="evenodd" d="M67.8146 131.62H75.9538C76.3339 131.62 76.6485 131.934 76.6485 132.314V152.18C76.6485 152.564 76.3339 152.874 75.9538 152.874H67.8146C67.4302 152.874 67.12 152.564 67.12 152.18V132.314C67.12 131.93 67.4302 131.62 67.8146 131.62Z" fill="#B8D3EE"/>
<path fill-rule="evenodd" clip-rule="evenodd" d="M16.7954 138.125H17.324V137.133H17.1449C16.8172 137.133 16.5464 136.814 16.5464 136.426C16.5464 136.037 16.8172 135.713 17.1449 135.713H17.8002V131.537C17.8002 131.148 18.0711 130.825 18.3987 130.825C18.7264 130.825 18.9973 131.144 18.9973 131.537V135.713H19.6526C19.9803 135.713 20.2511 136.032 20.2511 136.426C20.2511 136.814 19.9803 137.133 19.6526 137.133H19.4735V138.125H20.0021C20.3691 138.125 20.6706 138.483 20.6706 138.916V152.079C20.6706 152.516 20.3691 152.874 20.0021 152.874H17.5643C17.0794 152.625 16.6032 152.359 16.1357 152.084V152.079V138.916C16.1269 138.483 16.4284 138.125 16.7954 138.125Z" fill="#DEDED7"/>
<path fill-rule="evenodd" clip-rule="evenodd" d="M11.6183 139.672H12.0901V138.785H11.9285C11.6358 138.785 11.3911 138.496 11.3911 138.147C11.3911 137.797 11.6314 137.509 11.9285 137.509H12.5139V133.769C12.5139 133.42 12.7542 133.136 13.0513 133.136C13.344 133.136 13.5887 133.42 13.5887 133.769V137.509H14.1741C14.4668 137.509 14.7115 137.793 14.7115 138.147C14.7115 138.496 14.4712 138.785 14.1741 138.785H14.0124V139.672H14.4843C14.8119 139.672 15.0828 139.99 15.0828 140.379V151.441C13.6455 150.524 12.2911 149.493 11.0198 148.366V140.384C11.0198 139.99 11.2906 139.672 11.6183 139.672Z" fill="#DEDED7"/>
<path fill-rule="evenodd" clip-rule="evenodd" d="M3.74561 138.938H10.6615C11.0328 138.938 11.3343 139.239 11.3343 139.61V148.654C8.21931 145.95 5.62858 142.647 3.74561 138.938Z" fill="#F9F9FA"/>
<path fill-rule="evenodd" clip-rule="evenodd" d="M5.55859 142.057H9.12358C9.3726 142.057 9.57794 142.262 9.57794 142.511V145.15C9.57794 145.399 9.3726 145.604 9.12358 145.604H8.26728C7.28429 144.49 6.37994 143.302 5.55859 142.057Z" fill="#F5F6F5"/>
<path fill-rule="evenodd" clip-rule="evenodd" d="M9.01001 146.417H9.1935C9.40321 146.417 9.57359 146.587 9.57359 146.797V147.002C9.38573 146.815 9.19787 146.618 9.01001 146.417Z" fill="#F5F6F5"/>
<path fill-rule="evenodd" clip-rule="evenodd" d="M12.527 144.311H17.3764C17.6036 144.311 17.7914 144.499 17.7914 144.726V152.463C17.7914 152.643 17.6735 152.8 17.5118 152.852C15.5895 151.852 13.7808 150.659 12.1119 149.305V144.726C12.1163 144.495 12.2998 144.311 12.527 144.311Z" fill="#EAEAE6"/>
<path fill-rule="evenodd" clip-rule="evenodd" d="M22.8244 131.934H39.2731C40.0464 131.934 40.6755 132.568 40.6755 133.337V151.467C40.6755 152.241 40.042 152.87 39.2731 152.87H22.8244C22.0511 152.87 21.422 152.236 21.422 151.467V133.337C21.422 132.568 22.0511 131.934 22.8244 131.934Z" fill="#EAEAE6"/>
<path fill-rule="evenodd" clip-rule="evenodd" d="M19.6832 144.311H24.5327C24.7598 144.311 24.9477 144.499 24.9477 144.726V152.463C24.9477 152.691 24.7598 152.879 24.5327 152.879H19.6832C19.456 152.879 19.2682 152.691 19.2682 152.463V144.726C19.2682 144.495 19.456 144.311 19.6832 144.311Z" fill="#F9F9FA"/>
<path fill-rule="evenodd" clip-rule="evenodd" d="M104.417 147.837H99.3931C99.0392 147.837 98.7509 148.125 98.7509 148.479V152.232C98.7509 152.586 99.0392 152.874 99.3931 152.874H104.417C104.771 152.874 105.059 152.586 105.059 152.232V148.479C105.059 148.125 104.771 147.837 104.417 147.837Z" fill="#EAEAE6"/>
<path fill-rule="evenodd" clip-rule="evenodd" d="M96.3654 139.693H82.573C82.0443 139.693 81.6118 140.126 81.6118 140.654V151.913C81.6118 152.442 82.0443 152.874 82.573 152.874H96.3654C96.8941 152.874 97.3266 152.442 97.3266 151.913V140.654C97.3266 140.126 96.8941 139.693 96.3654 139.693Z" fill="#EAEAE6"/>
<path fill-rule="evenodd" clip-rule="evenodd" d="M89.7423 143.896H80.3493C79.9911 143.896 79.694 144.189 79.694 144.552V152.219C79.694 152.577 79.9867 152.874 80.3493 152.874H89.7423C90.1049 152.874 90.3977 152.581 90.3977 152.219V144.552C90.3977 144.193 90.1049 143.896 89.7423 143.896Z" fill="#E1E1D9"/>
<path fill-rule="evenodd" clip-rule="evenodd" d="M92.3069 146.557H89.1831C89.0346 146.557 88.9166 146.675 88.9166 146.823V152.608C88.9166 152.756 89.0346 152.874 89.1831 152.874H92.3069C92.4554 152.874 92.5734 152.756 92.5734 152.608V146.823C92.5734 146.679 92.4554 146.557 92.3069 146.557Z" fill="#F0F1EE"/>
<path fill-rule="evenodd" clip-rule="evenodd" d="M19.7884 103.987H8.09297C4.54546 108.085 2.02464 113.091 0.941162 118.601C1.34747 118.828 1.81493 118.954 2.30861 118.954H19.7884C21.3481 118.954 22.6238 117.679 22.6238 116.119V106.822C22.6238 105.262 21.3481 103.987 19.7884 103.987Z" fill="#331C38"/>
<path fill-rule="evenodd" clip-rule="evenodd" d="M29.9677 103.987H12.488C10.9283 103.987 9.65259 105.262 9.65259 106.822V116.119C9.65259 117.679 10.9283 118.954 12.488 118.954H29.9677C31.5274 118.954 32.8031 117.679 32.8031 116.119V106.822C32.8075 105.262 31.5274 103.987 29.9677 103.987Z" fill="#4F3F55"/>
<path fill-rule="evenodd" clip-rule="evenodd" d="M29.0415 103.288H26.0663C25.6819 103.288 25.3673 103.602 25.3673 103.987V105.8C25.3673 106.184 25.6819 106.499 26.0663 106.499H29.0415C29.426 106.499 29.7405 106.184 29.7405 105.8V103.987C29.7362 103.602 29.4216 103.288 29.0415 103.288Z" fill="#331C38"/>
<path fill-rule="evenodd" clip-rule="evenodd" d="M29.0416 103.288H26.6912C26.3067 103.288 25.9922 103.602 25.9922 103.987V105.8C25.9922 106.184 26.3067 106.499 26.6912 106.499H29.0373C29.4217 106.499 29.7363 106.184 29.7363 105.8V103.987C29.7363 103.602 29.4217 103.288 29.0416 103.288Z" fill="#4F3F55"/>
<path fill-rule="evenodd" clip-rule="evenodd" d="M28.644 104.66C28.5042 104.66 28.3906 104.773 28.3906 104.913V106.088H27.46V104.913C27.46 104.773 27.3464 104.66 27.2066 104.66C27.0668 104.66 26.9532 104.773 26.9532 104.913V106.512V106.783V108.046C26.9532 108.277 27.1455 108.469 27.377 108.469H28.4823C28.7139 108.469 28.9061 108.277 28.9061 108.046V106.783V106.512V104.913C28.9018 104.773 28.7838 104.66 28.644 104.66Z" fill="#3F2C44"/>
<path fill-rule="evenodd" clip-rule="evenodd" d="M16.6384 103.288H13.6632C13.2788 103.288 12.9642 103.602 12.9642 103.987V105.8C12.9642 106.184 13.2788 106.499 13.6632 106.499H16.6384C17.0229 106.499 17.3375 106.184 17.3375 105.8V103.987C17.3375 103.602 17.0229 103.288 16.6384 103.288Z" fill="#331C38"/>
<path fill-rule="evenodd" clip-rule="evenodd" d="M16.6385 103.288H14.2924C13.9079 103.288 13.5934 103.602 13.5934 103.987V105.8C13.5934 106.184 13.9079 106.499 14.2924 106.499H16.6385C17.0229 106.499 17.3375 106.184 17.3375 105.8V103.987C17.3375 103.602 17.0229 103.288 16.6385 103.288Z" fill="#4F3F55"/>
<path fill-rule="evenodd" clip-rule="evenodd" d="M16.2452 104.66C16.1054 104.66 15.9918 104.773 15.9918 104.913V106.088H15.0612V104.913C15.0612 104.773 14.9476 104.66 14.8034 104.66C14.6636 104.66 14.55 104.773 14.55 104.913V106.512V106.783V108.046C14.55 108.277 14.7423 108.469 14.9738 108.469H16.0748C16.3063 108.469 16.4986 108.277 16.4986 108.046V106.783V106.512V104.913C16.4986 104.773 16.385 104.66 16.2452 104.66Z" fill="#5A4A60"/>
<path fill-rule="evenodd" clip-rule="evenodd" d="M30.597 109.61H11.8633C11.5837 109.61 11.3522 109.841 11.3522 110.121C11.3522 110.4 11.5837 110.632 11.8633 110.632H30.597C30.8766 110.632 31.1081 110.4 31.1081 110.121C31.1081 109.837 30.8766 109.61 30.597 109.61Z" fill="#331C38"/>
<path fill-rule="evenodd" clip-rule="evenodd" d="M30.597 111.772H11.8633C11.5837 111.772 11.3522 112.004 11.3522 112.283C11.3522 112.563 11.5837 112.794 11.8633 112.794H30.597C30.8766 112.794 31.1081 112.563 31.1081 112.283C31.1081 111.999 30.8766 111.772 30.597 111.772Z" fill="#331C38"/>
<path fill-rule="evenodd" clip-rule="evenodd" d="M30.597 113.93H11.8633C11.5837 113.93 11.3522 114.162 11.3522 114.442C11.3522 114.721 11.5837 114.953 11.8633 114.953H30.597C30.8766 114.953 31.1081 114.721 31.1081 114.442C31.1081 114.162 30.8766 113.93 30.597 113.93Z" fill="#331C38"/>
<path fill-rule="evenodd" clip-rule="evenodd" d="M30.597 116.093H11.8633C11.5837 116.093 11.3522 116.324 11.3522 116.604C11.3522 116.884 11.5837 117.115 11.8633 117.115H30.597C30.8766 117.115 31.1081 116.884 31.1081 116.604C31.1081 116.324 30.8766 116.093 30.597 116.093Z" fill="#331C38"/>
<path fill-rule="evenodd" clip-rule="evenodd" d="M11.6664 118.758H34.3189C36.3417 118.758 37.9931 120.414 37.9931 122.432V134.481C37.9931 136.504 36.3373 138.155 34.3189 138.155H11.6664C9.64361 138.155 7.99219 136.5 7.99219 134.481V122.432C7.99219 120.414 9.64798 118.758 11.6664 118.758Z" fill="#331C38"/>
<path fill-rule="evenodd" clip-rule="evenodd" d="M0.910261 118.758H21.1293C23.1521 118.758 24.8035 120.414 24.8035 122.432V134.481C24.8035 136.504 23.1521 138.155 21.1293 138.155H3.36556C1.43452 134.066 0.34668 129.501 0.34668 124.695C0.34668 122.668 0.543278 120.684 0.910261 118.758Z" fill="#4F3F55"/>
<path fill-rule="evenodd" clip-rule="evenodd" d="M1.09818 117.854H3.536C4.03405 117.854 4.44035 118.26 4.44035 118.758V121.108C4.44035 121.606 4.03405 122.013 3.536 122.013H0.460327C0.582655 120.597 0.796729 119.212 1.09818 117.854Z" fill="#331C38"/>
<path fill-rule="evenodd" clip-rule="evenodd" d="M1.09818 117.854H2.72339C3.22144 117.854 3.62774 118.26 3.62774 118.758V121.108C3.62774 121.606 3.22144 122.013 2.72339 122.013H0.460327C0.582655 120.597 0.796729 119.212 1.09818 117.854Z" fill="#4F3F55"/>
<path fill-rule="evenodd" clip-rule="evenodd" d="M0.521434 121.375V121.484H1.72724V119.964C1.72724 119.78 1.87578 119.632 2.05927 119.632C2.24276 119.632 2.3913 119.78 2.3913 119.964V122.035V122.388V124.022C2.3913 124.324 2.14228 124.573 1.84083 124.573H0.407844C0.385999 124.573 0.368524 124.573 0.34668 124.568C0.351049 123.494 0.412212 122.428 0.521434 121.375Z" fill="#3F2C44"/>
<path fill-rule="evenodd" clip-rule="evenodd" d="M15.7512 117.854H19.6088C20.1069 117.854 20.5132 118.26 20.5132 118.758V121.108C20.5132 121.606 20.1069 122.013 19.6088 122.013H15.7512C15.2531 122.013 14.8468 121.606 14.8468 121.108V118.758C14.8468 118.26 15.2531 117.854 15.7512 117.854Z" fill="#331C38"/>
<path fill-rule="evenodd" clip-rule="evenodd" d="M15.7512 117.854H18.7919C19.2899 117.854 19.6962 118.26 19.6962 118.758V121.108C19.6962 121.606 19.2899 122.013 18.7919 122.013H15.7512C15.2531 122.013 14.8468 121.606 14.8468 121.108V118.758C14.8468 118.26 15.2531 117.854 15.7512 117.854Z" fill="#4F3F55"/>
<path fill-rule="evenodd" clip-rule="evenodd" d="M16.2623 119.632C16.4458 119.632 16.5944 119.78 16.5944 119.964V121.484H17.8002V119.964C17.8002 119.78 17.9487 119.632 18.1322 119.632C18.3157 119.632 18.4642 119.78 18.4642 119.964V122.035V122.388V124.022C18.4642 124.324 18.2152 124.573 17.9138 124.573H16.4851C16.1837 124.573 15.9347 124.324 15.9347 124.022V122.388V122.035V119.964C15.9303 119.78 16.0788 119.632 16.2623 119.632Z" fill="#3F2C44"/>
<path fill-rule="evenodd" clip-rule="evenodd" d="M0.377197 126.045H21.9418C22.3045 126.045 22.6059 126.342 22.6059 126.709C22.6059 127.072 22.3088 127.373 21.9418 127.373H0.460205C0.425255 126.932 0.394673 126.491 0.377197 126.045Z" fill="#331C38"/>
<path fill-rule="evenodd" clip-rule="evenodd" d="M0.621948 128.846H21.9419C22.3046 128.846 22.606 129.143 22.606 129.51C22.606 129.872 22.3089 130.174 21.9419 130.174H0.822915C0.748645 129.732 0.678743 129.291 0.621948 128.846Z" fill="#331C38"/>
<path fill-rule="evenodd" clip-rule="evenodd" d="M1.12 131.65H21.9376C22.3002 131.65 22.6016 131.947 22.6016 132.314C22.6016 132.677 22.3045 132.978 21.9376 132.978H1.45203C1.33407 132.537 1.22048 132.096 1.12 131.65Z" fill="#331C38"/>
<path fill-rule="evenodd" clip-rule="evenodd" d="M1.89331 134.451H21.942C22.3046 134.451 22.606 134.748 22.606 135.115C22.606 135.482 22.3089 135.779 21.942 135.779H2.35641C2.19476 135.338 2.03748 134.896 1.89331 134.451Z" fill="#331C38"/>
<path fill-rule="evenodd" clip-rule="evenodd" d="M56.255 129.435C56.255 129.435 57.688 134.202 58.3914 139.973H27.1366C27.023 135.941 27.3594 132.734 28.4604 131.292C33.0433 125.272 52.9959 125.718 56.255 129.435Z" fill="#05304B"/>
<path fill-rule="evenodd" clip-rule="evenodd" d="M53.0004 115.516C52.9698 118.063 53.0135 120.331 53.197 121.41C51.1087 120.492 48.767 122.07 48.8587 123.808C48.9767 126.08 48.7014 127.566 51.598 131.948C52.9567 134.001 54.1581 134.613 55.0537 134.683C53.6863 135.727 52.1222 136.653 50.9296 136.876C50.9296 136.876 50.698 136.981 50.366 136.491C50.0339 136.002 48.7014 130.759 47.8015 129.505C47.5131 129.108 47.7447 125.534 48.1946 120.846C43.5156 122.367 35.809 122.061 32.3008 120.859C31.9818 120.305 31.8158 119.959 31.8508 119.894C31.9775 119.627 34.4546 115.945 37.4123 111.755C40.0031 115.84 42.2486 119.239 42.2486 119.239L53.0004 115.516Z" fill="#004268"/>
<path fill-rule="evenodd" clip-rule="evenodd" d="M31.7589 118.085C31.8681 117.683 31.9468 117.329 31.9905 117.024C32.0473 116.635 32.0691 116.185 32.0691 115.691C32.423 111.694 31.9162 107.954 30.2385 103.725C27.4163 96.621 23.2484 84.895 23.244 84.8906C23.4188 84.7115 23.5979 84.5411 23.777 84.3795C24.1921 83.9076 24.7819 83.5013 25.4284 83.1606C26.6736 82.4266 28.0235 82.0072 29.5395 81.7363L29.5657 81.7319C29.5657 81.7319 29.5876 81.7276 29.6269 81.7232C32.7594 81.1858 36.5909 81.2819 41.6631 80.631C41.9733 80.6397 42.1699 80.679 42.4582 80.6834C46.0538 80.7315 55.9842 93.1172 54.4114 99.4782C54.4114 99.4782 53.6163 102.847 53.3017 107.617C52.9872 112.393 52.7862 120.772 53.3323 121.947C53.8784 123.122 60.0123 134.844 60.3356 135.644C61.7467 139.143 36.687 140.48 28.4823 133.337C28.9192 130.143 29.4915 126.95 30.2342 124.455C30.9114 122.17 31.4269 120.082 31.7589 118.085Z" fill="white"/>
<path fill-rule="evenodd" clip-rule="evenodd" d="M31.7589 118.085C31.8681 117.688 31.9468 117.329 31.9905 117.023C32.0473 116.635 32.0691 116.185 32.0691 115.687C32.423 111.689 31.9162 107.954 30.2385 103.725C27.4163 96.621 23.2484 84.8993 23.244 84.8906C23.4188 84.7115 23.5979 84.5411 23.777 84.3794C24.1921 83.9076 24.7819 83.5013 25.4284 83.1605C26.6736 82.4266 28.0235 82.0072 29.5395 81.7363L29.5657 81.7319C29.5657 81.7319 29.5876 81.7276 29.6269 81.7232C30.4046 81.5878 31.3701 81.0373 32.2439 80.963C33.4802 80.8538 34.6729 81.2382 36.1409 81.1421C36.1409 81.1421 27.7789 87.5032 36.3375 103.633C40.4748 111.427 36.6695 116.412 31.5623 119.169C31.6366 118.797 31.7021 118.439 31.7589 118.085Z" fill="#FDF1EF"/>
<path fill-rule="evenodd" clip-rule="evenodd" d="M32.5104 70.4647L32.7158 73.1909C32.7158 73.1909 32.8949 78.783 32.9211 79.6349C32.9342 79.9932 32.6502 80.4082 32.1347 80.7839C31.593 81.1771 34.092 82.3829 33.1002 82.5839C33.0828 82.5883 37.2288 82.5664 39.9375 82.5271C41.6413 82.5009 42.5457 84.1523 42.218 80.5087C42.218 80.4869 42.1787 80.4912 42.1612 80.4825C41.554 80.2247 41.8292 80.4868 41.3049 80.0281C41.2307 79.9626 41.1477 79.8839 41.0603 79.7966C40.0948 78.8092 39.9899 74.2612 40.8855 73.0423C41.7811 71.8234 32.5104 70.4647 32.5104 70.4647Z" fill="#E8685B"/>
<path fill-rule="evenodd" clip-rule="evenodd" d="M64.5821 91.0595L66.9413 90.6619C66.9413 90.6619 68.6844 93.5934 65.7442 99.1156C65.7442 99.1156 64.4991 97.355 64.3636 96.3851C64.2326 95.4108 64.5821 91.0595 64.5821 91.0595Z" fill="#F8CFBE"/>
<path fill-rule="evenodd" clip-rule="evenodd" d="M45.9665 81.6445C52.6246 84.2309 61.489 88.7264 68.2126 91.7977C70.1044 92.6628 71.7733 93.4142 72.149 91.8545C72.9965 88.3551 73.5426 80.9979 73.7873 76.3713C73.8485 75.2048 72.5597 73.9903 72.2364 73.3262C72.066 72.9723 74.4077 72.0724 74.7528 72.1641C75.9892 72.4787 77.6013 71.3384 78.1867 72.2253C78.0775 72.7408 77.7367 74.1694 77.7848 75.9475C77.894 79.8227 78.5406 86.5202 76.6183 96.6952C76.5921 96.7738 76.9853 95.3146 76.544 96.9355C76.1989 98.1981 74.6349 99.3733 73.263 99.5655C70.7204 99.9238 55.2328 94.8079 52.5241 93.4491C50.9557 92.6628 49.5577 91.8152 48.2951 90.9458C49.3392 88.3507 45.1145 84.0299 45.9665 81.6445Z" fill="#F4AD85"/>
<path fill-rule="evenodd" clip-rule="evenodd" d="M77.2343 72.1423C77.7498 72.1379 78.0381 72.0199 78.2741 72.3738C78.1648 72.8893 77.7367 74.1694 77.7847 75.9475C77.894 79.8227 78.5406 86.5201 76.6183 96.6952C76.592 96.7738 76.9852 95.3146 76.544 96.9355C76.1989 98.1981 74.6348 99.3733 73.263 99.5655C72.0397 99.7359 67.8325 98.6481 63.4855 97.3156C63.2146 95.3452 63.053 94.0084 63.053 94.0084L65.6568 91.9594C65.6568 91.9594 66.9544 95.6773 68.0422 96.5772C69.13 97.4772 73.0052 97.9753 74.1542 97.4947C75.3032 97.0185 76.7843 86.1532 76.7144 81.4348C76.6445 76.7164 76.3081 75.1961 75.893 74.2961C75.6222 73.6976 76.4741 73.2039 77.2343 72.1423Z" fill="#EF8871"/>
<path fill-rule="evenodd" clip-rule="evenodd" d="M44.9136 81.8412L45.6869 81.4742C45.6869 81.4742 54.4027 84.4887 66.9457 90.6619C66.2379 91.4964 64.3681 96.3851 65.7486 99.1156L56.8624 98.0933L44.9136 81.8412Z" fill="white"/>
<path fill-rule="evenodd" clip-rule="evenodd" d="M44.9136 81.8412L45.6869 81.4742H45.6912H45.6956L45.7043 81.4786L45.7131 81.483H45.7174L45.7349 81.4873L45.7437 81.4917L45.7524 81.4961L45.7742 81.5048L45.783 81.5092L45.8005 81.5135L45.831 81.5266L45.8398 81.531L45.866 81.5398L45.9053 81.5529L45.9446 81.566L45.9839 81.5791H45.9883L46.0364 81.5965L46.0757 81.6097L46.0888 81.614L46.1456 81.6359L46.1805 81.649L46.2068 81.6577L46.2679 81.6796L46.2941 81.6883L46.3335 81.7014L46.4034 81.7276L46.4208 81.7363L46.4776 81.7582L46.5563 81.7844L46.565 81.7888L46.6393 81.815L46.7179 81.8456H46.7223L46.8097 81.8762L46.8796 81.9024L46.9014 81.9111L46.9931 81.9461L47.0543 81.9679L47.0893 81.981L47.1897 82.0203L47.2378 82.0378L47.2946 82.0596L47.3994 82.099L47.4344 82.1121L47.5087 82.1383L47.6223 82.182L47.6397 82.1863L47.7402 82.2257L47.8582 82.2693L47.9805 82.3174L48.0854 82.3567L48.1072 82.3655L48.2339 82.4135L48.3213 82.4485L48.365 82.4659L48.5004 82.5184L48.5703 82.5446L48.6358 82.5708L48.6533 82.5795L48.9198 82.6844L49.0683 82.7412L49.0989 82.7543L49.2213 82.8023L49.3742 82.8635H49.3785L49.5271 82.9203L49.6669 82.9771L49.6844 82.9858L49.846 83.0514L49.964 83.0994L50.012 83.1169L50.178 83.1824L50.2742 83.2218L50.3484 83.2523L50.5232 83.3222L50.5931 83.3528L50.6979 83.3965L50.8771 83.4664L51.0125 83.5188L51.0605 83.5363L51.244 83.6106L51.2615 83.6193L51.4319 83.6892L51.6067 83.7635L51.6198 83.7679L51.812 83.8465L51.9649 83.9077L52.0086 83.9251L52.2052 84.0038L52.3275 84.0562L52.4062 84.0868L52.6071 84.1698C53.3323 86.3018 54.4901 88.7265 56.3512 90.9371C59.6497 94.856 63.6123 94.2487 65.7268 93.5104C65.22 95.3147 64.9535 97.5647 65.7355 99.12L50.7678 97.3681L44.9136 81.8412Z" fill="#FDF1EF"/>
<path fill-rule="evenodd" clip-rule="evenodd" d="M15.8344 105.691L15.0568 106.088C15.0568 106.088 15.1354 107.014 17.6256 108.71C20.1159 110.405 22.0775 111.126 22.0775 111.126L22.1561 109.133L15.8344 105.691Z" fill="#F8CFBE"/>
<path fill-rule="evenodd" clip-rule="evenodd" d="M43.0612 80.7534C51.7596 89.4911 39.9025 94.122 34.3366 87.1275C30.8634 82.7674 29.2818 81.78 29.2818 81.78C29.2818 81.78 29.1551 81.6665 28.9149 81.7014C28.6789 81.7364 26.7042 82.4354 26.4858 82.5184C26.2717 82.597 26.2499 82.7237 26.2499 82.7237C26.2499 82.7237 37.1196 91.1512 28.8624 101.462C28.8624 101.462 35.5424 110.103 28.9673 124.302C28.9673 124.302 23.7378 135.508 26.4814 138.099C29.2251 140.69 61.4366 136.421 61.4366 136.421C61.4366 136.421 56.325 126.736 55.1498 124.35C53.9702 121.965 53.0222 119.523 53.4241 113.258C53.826 106.993 55.0406 99.937 54.7785 95.9613C54.5163 91.99 46.5082 82.466 46.1063 81.8063C45.7087 81.1466 43.4588 80.583 43.0612 80.7534Z" fill="#E67170"/>
<path fill-rule="evenodd" clip-rule="evenodd" d="M31.9425 94.1525C31.4663 97.7087 29.9284 100.348 28.8668 101.462C28.8668 101.462 35.5468 110.103 28.976 124.302C28.976 124.302 24.3975 133.778 25.6775 137.658C26.9576 141.533 29.7362 137.02 31.7459 137.002C32.0255 125.154 33.773 101.842 53.9047 107.98C54.2061 105.136 54.5425 102.344 54.7129 99.9456C47.1242 102.877 33.0609 105.874 31.9425 94.1525Z" fill="#D84F50"/>
<path fill-rule="evenodd" clip-rule="evenodd" d="M22.8639 85.3625C21.8329 87.145 12.5403 112.904 13.4971 118.05C14.4539 123.201 21.68 132.577 25.4284 135.111C25.4284 135.111 25.8522 135.368 26.0838 134.761C26.3197 134.154 27.1629 134.276 28.0279 133.761C24.109 126.954 22.0863 124.617 19.6484 117.085C18.3116 112.965 27.0624 101.96 28.5915 99.3472C32.2395 93.1347 25.127 81.4611 22.8639 85.3625Z" fill="#F4AD85"/>
<path fill-rule="evenodd" clip-rule="evenodd" d="M32.943 135.775C32.9823 134.211 31.7372 132.9 30.1731 132.861L27.4514 132.791C25.8873 132.751 24.5767 133.996 24.5373 135.556C24.533 135.63 24.5373 135.7 24.5417 135.77H32.943V135.775Z" fill="#F4AD85"/>
<path fill-rule="evenodd" clip-rule="evenodd" d="M17.3589 50.0054C14.008 50.9316 12.042 54.3961 12.9682 57.747C13.8944 61.0979 17.3589 63.0639 20.7098 62.1377C24.0607 61.2115 26.0267 57.747 25.1005 54.3961C24.1743 51.0452 20.7054 49.0792 17.3589 50.0054Z" fill="#3F2C44"/>
<path fill-rule="evenodd" clip-rule="evenodd" d="M27.3681 47.2269C27.3681 47.2269 22.6104 45.1648 20.0677 50.0535C18.058 53.9243 16.6338 59.1932 18.4906 65.3227C18.7658 66.179 22.1997 76.2491 31.2432 75.1482C40.6843 73.9992 45.0444 66.1222 45.0444 66.1222C54.8088 58.9791 38.2509 35.7936 27.3681 47.2269Z" fill="#3F2C44"/>
<path fill-rule="evenodd" clip-rule="evenodd" d="M18.3376 54.4223C17.4682 57.5679 17.2585 61.2465 18.4818 65.3051C18.7046 66.0042 22.121 76.2622 31.2432 75.1482C30.1204 69.2415 29.0981 64.9644 29.0981 64.9644L38.5261 59.4946L38.1897 51.5127C25.4763 68.2192 18.342 54.4267 18.3376 54.4223Z" fill="#331C38"/>
<path fill-rule="evenodd" clip-rule="evenodd" d="M44.791 66.5371C42.3357 62.2469 28.6 66.0871 28.6 66.0871L25.7559 64.0556C25.7559 64.0556 20.6924 65.2876 22.5229 72.0156C24.5326 74.0428 27.3723 75.6199 31.2475 75.1481C39.378 74.1564 43.7381 68.1754 44.791 66.5371Z" fill="#331C38"/>
<path fill-rule="evenodd" clip-rule="evenodd" d="M24.1831 64.7327C22.6016 64.9555 21.5007 66.4191 21.7235 68.0006C21.9463 69.5821 23.4099 70.6831 24.9914 70.4603C26.5729 70.2375 27.6738 68.7739 27.451 67.1924C27.2239 65.6109 25.7603 64.5099 24.1831 64.7327Z" fill="#E8685B"/>
<path fill-rule="evenodd" clip-rule="evenodd" d="M32.6019 48.782C27.2108 49.5422 23.4186 54.5751 24.1788 59.9663L25.4326 68.8788C26.1928 74.2699 31.2257 78.0621 36.6169 77.3019C42.0081 76.5417 45.8002 71.5088 45.04 66.1176L43.7862 57.2052C43.0304 51.814 37.9975 48.0262 32.6019 48.782Z" fill="#F4AD85"/>
<path fill-rule="evenodd" clip-rule="evenodd" d="M24.5414 55.6194C24.1089 56.9824 23.9648 58.4635 24.1788 59.9664L25.4327 68.8788C26.1929 74.27 31.2258 78.0621 36.6169 77.302C36.9359 77.2583 37.2504 77.1971 37.5606 77.1228C26.8526 76.8476 24.6244 64.6061 29.037 63.4527C34.4849 62.0285 38.8887 56.9387 38.8887 56.9387C39.9504 58.3717 42.4363 59.1538 44.1183 59.5382L43.7906 57.2052C43.1091 52.3646 38.9849 48.8127 34.2447 48.686C32.6762 49.0967 31.2782 49.586 30.5661 49.6865C28.6962 49.9486 26.3501 53.3738 24.8997 55.2218C24.8079 55.3397 24.6856 55.4708 24.5414 55.6194Z" fill="#EF8871"/>
<path fill-rule="evenodd" clip-rule="evenodd" d="M35.0093 70.6352C35.2103 72.0594 36.5253 73.0468 37.9452 72.8458C39.3694 72.6448 40.3568 71.3298 40.1602 69.9099H40.1558C40.1208 69.6653 39.8937 69.4949 39.649 69.5255L35.3981 70.124C35.1491 70.1633 34.9787 70.3905 35.0093 70.6352Z" fill="white"/>
<path fill-rule="evenodd" clip-rule="evenodd" d="M42.6939 66.7774C41.9119 66.8866 41.3657 67.6119 41.475 68.3939C41.5842 69.1759 42.3094 69.722 43.0914 69.6128C43.8735 69.5036 44.4196 68.7783 44.3103 67.9963C44.2011 67.2143 43.4803 66.6682 42.6939 66.7774Z" fill="#E8685B"/>
<path fill-rule="evenodd" clip-rule="evenodd" d="M30.4916 68.4942C29.7096 68.6034 29.1635 69.3287 29.2727 70.1107C29.3819 70.8927 30.1071 71.4388 30.8892 71.3296C31.6712 71.2204 32.2173 70.4951 32.1081 69.7131C31.9989 68.9311 31.2736 68.385 30.4916 68.4942Z" fill="#E8685B"/>
<path fill-rule="evenodd" clip-rule="evenodd" d="M23.589 64.8814L25.5681 63.7061C25.5681 63.7061 27.0579 66.1003 25.2055 67.2624L25.0351 66.0435C24.9477 65.4275 24.5458 64.7459 23.589 64.8814Z" fill="#331C38"/>
<path fill-rule="evenodd" clip-rule="evenodd" d="M38.1852 51.5084C38.1852 51.5084 38.1721 58.9966 24.1787 64.7329L22.8418 54.1035L29.5305 47.8211L36.9139 47.7774C36.9139 47.7774 41.1211 51.3206 41.5667 51.8186C42.0079 52.3167 45.2758 57.3408 45.2758 57.3408L44.0001 58.7127C44.0001 58.7083 40.6798 57.7384 38.1852 51.5084Z" fill="#3F2C44"/>
<path fill-rule="evenodd" clip-rule="evenodd" d="M38.1853 51.5083C38.1853 51.5083 38.1722 58.9965 24.1788 64.7328L23.4885 59.2324C26.8613 60.5955 31.8287 59.8702 38.1853 51.5083Z" fill="#331C38"/>
<path fill-rule="evenodd" clip-rule="evenodd" d="M19.0453 52.2947L19.0409 52.3078L19.0366 52.3209C18.923 52.6093 18.8181 52.902 18.7133 53.1991C27.0403 61.1111 35.0396 54.6102 38.8187 45.3832C37.4818 44.6798 36.0751 44.2386 34.6552 44.1381C32.9601 53.3826 24.3971 57.7252 19.0453 52.2947Z" fill="#4F3F55"/>
<path fill-rule="evenodd" clip-rule="evenodd" d="M32.357 66.3756C32.3832 66.5766 32.5711 66.712 32.7677 66.6858C32.9686 66.6596 33.1041 66.4717 33.0778 66.2751C33.0123 65.7946 32.7545 65.3883 32.3963 65.1174C32.0337 64.8465 31.575 64.7111 31.0944 64.781C30.6138 64.8465 30.2075 65.1043 29.9366 65.4625C29.6658 65.8251 29.5303 66.2839 29.6002 66.7644C29.6265 66.9654 29.8143 67.1008 30.0109 67.0746C30.2119 67.0484 30.3473 66.8606 30.3211 66.664C30.2818 66.38 30.3604 66.1135 30.5177 65.8994C30.6793 65.6897 30.9153 65.5412 31.1992 65.5018C31.4788 65.4625 31.7497 65.5412 31.9594 65.6984C32.1691 65.8557 32.3177 66.096 32.357 66.3756Z" fill="#331C38"/>
<path fill-rule="evenodd" clip-rule="evenodd" d="M42.353 64.9688C42.3792 65.1698 42.567 65.3052 42.7636 65.279C42.9646 65.2528 43.1 65.065 43.0738 64.8684C43.0083 64.3878 42.7505 63.9815 42.3923 63.7106C42.0297 63.4397 41.5666 63.3043 41.0904 63.3742C40.6098 63.4397 40.2035 63.6975 39.9326 64.0557C39.6617 64.4184 39.5263 64.8771 39.5962 65.3577C39.6224 65.5586 39.8103 65.6941 40.0069 65.6679C40.2079 65.6416 40.3433 65.4538 40.3171 65.2572C40.2778 64.9776 40.3564 64.7067 40.5137 64.497C40.6753 64.2873 40.9112 64.1388 41.1952 64.0951C41.4748 64.0557 41.7457 64.1344 41.9554 64.2917C42.1607 64.4489 42.3136 64.6892 42.353 64.9688Z" fill="#331C38"/>
<path fill-rule="evenodd" clip-rule="evenodd" d="M27.1976 66.0958L24.1525 66.5239C23.8991 66.5589 23.6632 66.3841 23.6282 66.1307C23.5933 65.8773 23.768 65.6414 24.0214 65.6065L27.0665 65.1783L27.0141 64.8201C26.9704 64.5842 26.8568 63.5662 28.1107 63.3915L33.7902 62.592C35.1096 62.4085 35.2319 63.5313 35.2406 63.6973L35.2668 63.8939L35.3018 64.1429L37.6653 63.8109L37.6304 63.5619L37.6042 63.3696C37.5692 63.208 37.377 62.0939 38.6964 61.9104L43.7599 61.1983C45.0138 61.0236 45.1841 62.0328 45.2103 62.273L45.7914 66.406C46.0011 67.9001 44.6424 68.2234 44.3322 68.2758L44.2842 68.2846L41.3483 68.6996C38.9105 69.0448 38.159 66.7118 37.8095 64.7327L35.4198 65.0691C35.6338 67.07 35.5552 69.5166 33.1174 69.8617L32.2261 69.9884L29.5611 70.3642L29.5131 70.3685C29.2029 70.4035 27.8048 70.469 27.5951 68.9749L27.1976 66.0958ZM29.4344 69.4292L32.9907 68.9268C35.0178 68.6428 34.6028 65.7375 34.3581 64.0162L34.3319 63.8196C34.3275 63.7978 34.3232 63.7716 34.3232 63.7454C34.3232 63.7454 34.3144 63.4483 33.9212 63.5051L28.2417 64.3046C27.9053 64.3526 27.9141 64.5667 27.9228 64.6322C27.9272 64.6541 27.9315 64.6715 27.9359 64.6934L28.0495 65.506L28.517 68.8263C28.6087 69.4904 29.2597 69.4511 29.3951 69.4336L29.4344 69.4292ZM44.1968 67.3497C44.3322 67.3278 44.9701 67.1836 44.8739 66.5196L44.2929 62.391C44.2885 62.3692 44.2885 62.3473 44.2885 62.3298C44.2798 62.2687 44.2274 62.059 43.891 62.107L38.8275 62.8192C38.4343 62.8759 38.5085 63.1599 38.5085 63.1599C38.5129 63.1861 38.5173 63.208 38.5216 63.2342L38.5479 63.4308C38.7881 65.1521 39.1901 68.0574 41.2172 67.7734L44.1531 67.3584L44.1968 67.3497Z" fill="#331C38"/>
<path d="M65.0232 111.243H63.433V117.648H65.0232V111.243Z" fill="#331C38"/>
<path fill-rule="evenodd" clip-rule="evenodd" d="M69.2306 107.587H59.2216C58.6886 107.587 58.2473 108.024 58.2473 108.561V111.632C58.2473 112.165 58.6842 112.606 59.2216 112.606H69.2306C69.768 112.606 70.2049 112.17 70.2049 111.632V108.561C70.2049 108.028 69.768 107.587 69.2306 107.587Z" fill="#331C38"/>
<path fill-rule="evenodd" clip-rule="evenodd" d="M69.2305 108.316C69.3616 108.316 69.4752 108.43 69.4752 108.561V111.632C69.4752 111.768 69.3659 111.877 69.2305 111.877H59.2215C59.0904 111.877 58.9768 111.768 58.9768 111.632V108.561C58.9768 108.43 59.0904 108.316 59.2215 108.316H69.2305Z" fill="white"/>
<path fill-rule="evenodd" clip-rule="evenodd" d="M65.2855 116.578H53.0702C51.9037 116.578 50.9513 117.53 50.9513 118.697V135.486C50.9513 136.653 51.9037 137.605 53.0702 137.605H65.2855C66.452 137.605 67.4044 136.653 67.4044 135.486V118.697C67.4044 117.535 66.452 116.578 65.2855 116.578Z" fill="#4F3F55"/>
<path fill-rule="evenodd" clip-rule="evenodd" d="M45.4377 127.198V137.95C45.4377 139.44 46.6567 140.659 48.1464 140.659H70.2091C71.6989 140.659 72.9178 139.44 72.9178 137.95V127.198C72.9178 126.534 72.3761 125.997 71.7164 125.997H46.6435C45.9795 125.997 45.4377 126.534 45.4377 127.198Z" fill="#3F2C44"/>
<path fill-rule="evenodd" clip-rule="evenodd" d="M48.4086 124.149V134.901C48.4086 136.391 49.6275 137.609 51.1173 137.609H67.2427C68.7325 137.609 69.9514 136.391 69.9514 134.901V124.149C69.9514 123.485 69.4096 122.948 68.7456 122.948H49.61C48.9459 122.943 48.4086 123.485 48.4086 124.149Z" fill="#3F2C44"/>
<path fill-rule="evenodd" clip-rule="evenodd" d="M69.9514 133.476V124.149C69.9514 123.485 69.4097 122.948 68.7456 122.948H50.9513V130.777C50.9513 132.266 52.1702 133.485 53.66 133.485H69.7854C69.8422 133.481 69.8946 133.481 69.9514 133.476Z" fill="#4F3F55"/>
<path fill-rule="evenodd" clip-rule="evenodd" d="M53.6469 116.578V117.653V118.911C53.6469 120.077 54.5993 121.03 55.7658 121.03H67.4044V122.948H50.9513V118.701C50.9513 117.535 51.9037 116.582 53.0702 116.582H53.5857H53.6469V116.578Z" fill="#3F2C44"/>
<path fill-rule="evenodd" clip-rule="evenodd" d="M70.8644 125.997V133.542C70.8644 134.206 71.4061 134.743 72.0658 134.743H72.9177V135.775H69.8027C69.8988 135.499 69.9469 135.207 69.9469 134.901V133.481V126.001H70.8644V125.997Z" fill="#331C38"/>
<path fill-rule="evenodd" clip-rule="evenodd" d="M47.4955 125.997V133.542C47.4955 134.206 46.9538 134.743 46.2897 134.743H45.4421V135.775H48.5571C48.461 135.499 48.413 135.207 48.413 134.901V133.481V126.001H47.4955V125.997Z" fill="#331C38"/>
<path fill-rule="evenodd" clip-rule="evenodd" d="M68.4353 124.123H59.3088C59.0073 124.123 58.7583 124.372 58.7583 124.673C58.7583 124.975 59.0073 125.224 59.3088 125.224H68.4353C68.7368 125.224 68.9858 124.975 68.9858 124.673C68.9858 124.367 68.7368 124.123 68.4353 124.123Z" fill="#3F2C44"/>
<path fill-rule="evenodd" clip-rule="evenodd" d="M56.9453 124.123H57.4433C57.7448 124.123 57.9938 124.372 57.9938 124.673C57.9938 124.975 57.7448 125.224 57.4433 125.224H56.9453C56.6438 125.224 56.3948 124.975 56.3948 124.673C56.3948 124.367 56.6438 124.123 56.9453 124.123Z" fill="white"/>
<path fill-rule="evenodd" clip-rule="evenodd" d="M68.1907 126.84H64.4991C64.1495 126.84 63.8612 127.129 63.8612 127.478V131.502C63.8612 131.851 64.1495 132.14 64.4991 132.14H68.1907C68.5402 132.14 68.8286 131.851 68.8286 131.502V127.478C68.8286 127.129 68.5402 126.84 68.1907 126.84Z" fill="white"/>
<path fill-rule="evenodd" clip-rule="evenodd" d="M62.6118 126.84H52.926C52.7775 126.84 52.6552 126.963 52.6552 127.111C52.6552 127.26 52.7775 127.382 52.926 127.382H62.6118C62.7603 127.382 62.8826 127.26 62.8826 127.111C62.8826 126.963 62.7603 126.84 62.6118 126.84Z" fill="#3F2C44"/>
<path fill-rule="evenodd" clip-rule="evenodd" d="M62.6118 128.426H52.926C52.7775 128.426 52.6552 128.548 52.6552 128.697C52.6552 128.846 52.7775 128.968 52.926 128.968H62.6118C62.7603 128.968 62.8826 128.846 62.8826 128.697C62.8826 128.548 62.7603 128.426 62.6118 128.426Z" fill="#3F2C44"/>
<path fill-rule="evenodd" clip-rule="evenodd" d="M62.6118 130.016H52.926C52.7775 130.016 52.6552 130.139 52.6552 130.287C52.6552 130.436 52.7775 130.558 52.926 130.558H62.6118C62.7603 130.558 62.8826 130.436 62.8826 130.287C62.8826 130.134 62.7603 130.016 62.6118 130.016Z" fill="#3F2C44"/>
<path fill-rule="evenodd" clip-rule="evenodd" d="M62.6118 131.602H52.926C52.7775 131.602 52.6552 131.725 52.6552 131.873C52.6552 132.022 52.7775 132.144 52.926 132.144H62.6118C62.7603 132.144 62.8826 132.022 62.8826 131.873C62.8826 131.725 62.7603 131.602 62.6118 131.602Z" fill="#3F2C44"/>
<path fill-rule="evenodd" clip-rule="evenodd" d="M124.383 143.272H6.40247C12.1825 151.218 21.5449 156.409 32.0607 156.409H124.379C125.423 156.409 126.279 155.552 126.279 154.508V145.172C126.279 144.128 125.427 143.272 124.383 143.272Z" fill="#E8685B"/>
<path fill-rule="evenodd" clip-rule="evenodd" d="M98.1614 156.409H96.8726H94.5789H94.0983V146.684H98.1614V156.409ZM32.0607 156.409C30.466 156.409 28.8976 156.286 27.3685 156.059V146.684H32.5718V156.409H32.0607ZM64.827 156.409H35.1713V146.684H64.827V156.409ZM78.3093 156.409H73.106V146.684H78.3093V156.409ZM86.8242 156.409H85.4H83.7485V146.684H86.8242V156.409Z" fill="#EF8871"/>
<path fill-rule="evenodd" clip-rule="evenodd" d="M124.383 143.272H6.40247C7.9971 145.465 9.86259 147.448 11.9509 149.17H126.284V145.172C126.279 144.128 125.427 143.272 124.383 143.272Z" fill="#331C38"/>
<path fill-rule="evenodd" clip-rule="evenodd" d="M143.955 135.775H2.35669C3.93821 139.986 6.39788 143.783 9.50413 146.933H143.955C144.864 146.933 145.607 146.19 145.607 145.286V137.426C145.603 136.517 144.864 135.775 143.955 135.775Z" fill="#F4C6B3"/>
<path fill-rule="evenodd" clip-rule="evenodd" d="M45.6959 135.775H41.3751V146.933H45.6959V135.775ZM134.641 135.775H127.328V146.933H134.641V135.775ZM123.671 135.775H65.5086V146.933H123.671V135.775ZM60.6505 135.775H53.3414V146.933H60.6549V135.775H60.6505Z" fill="#F3BBA2"/>
<path fill-rule="evenodd" clip-rule="evenodd" d="M123.295 152.044C122.784 152.044 122.369 152.459 122.369 152.966C122.369 153.473 122.784 153.888 123.295 153.888C123.807 153.888 124.217 153.473 124.217 152.966C124.217 152.459 123.807 152.044 123.295 152.044Z" fill="#331C38"/>
<path fill-rule="evenodd" clip-rule="evenodd" d="M3.69374 138.833H34.5116L38.0023 140.847C38.046 140.873 38.0984 140.886 38.1509 140.886H145.611V140.296H38.2208L34.7563 138.295C34.7082 138.26 34.647 138.243 34.5859 138.243H3.4054C3.50151 138.44 3.59762 138.636 3.69374 138.833Z" fill="white"/>
<path fill-rule="evenodd" clip-rule="evenodd" d="M84.0411 85.5941C84.0411 85.5941 82.2105 86.4723 80.4935 90.8936C78.781 95.3148 73.4553 121.427 73.6213 125.032C73.783 128.632 84.9323 149.043 84.9323 149.043C84.9323 149.043 87.1648 145.373 87.2915 143.617C87.4182 141.861 85.8541 139.27 85.8541 139.27C85.8541 139.27 82.1756 126.854 81.3149 122.087C80.4586 117.321 87.2609 107.224 87.2609 107.224L92.4511 93.5979C92.4511 93.5979 87.8289 83.5714 84.0411 85.5941Z" fill="#97B2BC"/>
<path fill-rule="evenodd" clip-rule="evenodd" d="M81.3193 122.087C80.463 117.321 87.2653 107.224 87.2653 107.224L89.0346 102.585C88.5279 99.1595 87.9686 96.4945 87.6716 97.2896C87.1167 98.7663 82.0751 113.498 81.3236 115.936C80.5678 118.374 81.3193 122.087 81.3193 122.087Z" fill="#7D939D"/>
<path fill-rule="evenodd" clip-rule="evenodd" d="M82.8266 145.107C84.0761 147.461 84.9367 149.043 84.9367 149.043C84.9367 149.043 87.1692 145.373 87.2959 143.617C87.4226 141.861 85.8586 139.27 85.8586 139.27C85.8586 139.27 82.5208 128.016 81.4635 122.825C82.0839 126.028 84.5261 138.658 84.7838 139.698C85.0285 140.698 84.6702 142.979 82.8266 145.107Z" fill="#7D939D"/>
<path fill-rule="evenodd" clip-rule="evenodd" d="M119.901 90.3431L125.134 86.6034C126.034 87.748 126.72 89.0543 127.231 90.2426C128.324 93.2746 129.73 97.8357 130.626 103.196C132.264 113.022 133.898 126.53 133.409 130.947C132.92 135.368 121.622 146.994 120.311 147.156C119.001 147.317 118.511 143.473 118.511 143.473C118.511 143.473 124.898 133.975 125.715 130.209C126.537 126.443 119.984 105.647 119.984 105.647L119.901 90.3431Z" fill="#7D939D"/>
<path fill-rule="evenodd" clip-rule="evenodd" d="M86.2299 141.773C86.2299 141.773 84.5916 147.71 84.4299 156.409H121.596C121.596 156.409 122.74 149.427 120.652 144.272L86.2299 141.773Z" fill="#331C38" stroke="#05304B" stroke-width="0.0943672" stroke-miterlimit="22.9256" stroke-linecap="round" stroke-linejoin="round"/>
<path fill-rule="evenodd" clip-rule="evenodd" d="M87.4182 131.908C87.4182 131.908 86.0071 140.052 85.7188 141.812C85.4304 143.573 85.2469 145.784 91.6342 147.994C98.0214 150.205 113.535 150.9 118.773 148.361C118.773 148.361 121.618 147.142 121.373 144.604C121.128 142.066 119.062 134.281 119.062 134.281L87.4182 131.908Z" fill="white"/>
<path fill-rule="evenodd" clip-rule="evenodd" d="M87.4181 131.908C87.4181 131.908 86.007 140.052 85.7186 141.812C85.4652 143.376 85.2905 145.294 89.7161 147.252C89.1875 145.609 88.9123 143.682 89.2574 141.996C89.9652 138.496 92.32 136.421 94.7359 136.596C97.1519 136.771 107.074 137.007 114.54 137.007C117.1 137.007 118.852 137.527 120.053 138.208C119.534 136.067 119.057 134.281 119.057 134.281L87.4181 131.908Z" fill="#E6E4EB"/>
<path fill-rule="evenodd" clip-rule="evenodd" d="M118.835 130.414C118.835 130.414 119.49 131.236 119.612 134.302C119.612 134.302 119.429 135.163 118.529 135.364C117.629 135.569 99.7602 137.732 87.2347 133.477C87.2347 133.477 86.1512 133.027 85.8847 132.271C85.6182 131.515 86.907 128.605 86.907 128.605L118.835 130.414Z" fill="#5F6879"/>
<path fill-rule="evenodd" clip-rule="evenodd" d="M84.041 85.594C84.041 85.594 103.089 72.9986 122.95 84.5499C124.186 85.3537 125.178 86.5377 125.96 87.7916C126.449 90.4609 127.162 96.3763 125.79 103.768C123.907 113.922 120.058 125.136 119.813 130.13C119.813 130.13 119.652 132.052 117.603 132.297C115.554 132.542 92.4685 133.704 86.8196 129.2C86.8196 129.2 86.1861 128.557 86.3478 127.684C88.2963 117.185 86.1818 116.054 86.2517 108.801C86.2604 108.801 90.603 90.2294 84.041 85.594Z" fill="#97B2BC"/>
<path fill-rule="evenodd" clip-rule="evenodd" d="M84.041 85.594C84.041 85.594 103.089 72.9986 122.95 84.5499C124.186 85.3537 125.178 86.5377 125.96 87.7916C126.331 89.8143 126.83 93.6982 126.454 98.6787C123.387 98.3074 118.223 98.9234 110.591 103.65C98.7466 110.986 89.2662 112.943 90.5506 130.908C88.9866 130.458 87.6977 129.899 86.824 129.204C86.824 129.204 86.1905 128.562 86.3521 127.688C88.3006 117.19 86.1861 116.058 86.256 108.806C86.2604 108.801 90.603 90.2294 84.041 85.594Z" fill="#8EA7B0"/>
<path fill-rule="evenodd" clip-rule="evenodd" d="M88.9385 130.362C88.0953 130.025 87.3744 129.641 86.8283 129.204C86.8283 129.204 86.1948 128.562 86.3565 127.688C88.305 117.19 86.1905 116.058 86.2604 108.806C86.2604 108.806 87.5841 103.144 87.6671 97.2938C88.222 95.8171 89.6724 106.25 90.0263 111.379C90.3147 115.573 88.4273 124.97 88.9385 130.362Z" fill="#7D939D"/>
<path fill-rule="evenodd" clip-rule="evenodd" d="M108.17 45.8855C108.17 45.8855 101.211 42.8361 96.6277 48.319C92.0448 53.8063 95.1554 60.9275 94.4171 67.2317C93.6787 73.536 82.0532 84.0955 95.3171 90.3167C95.3171 90.3167 97.4447 90.806 98.017 94.1657C98.5893 97.521 103.994 105.381 113.981 99.487C123.968 93.5934 127.734 81.9679 120.696 71.4083C113.653 60.8488 122.989 45.8855 108.17 45.8855Z" fill="#4F3F55"/>
<path fill-rule="evenodd" clip-rule="evenodd" d="M97.7243 47.2006C97.3486 47.5282 96.9772 47.8996 96.6234 48.3234C93.5433 52.0063 93.9365 56.4319 94.3035 60.8488C96.9423 64.8551 100.699 68.2104 105.933 68.5249C111.526 68.8613 115.606 67.7647 118.472 66.358C118.227 65.423 118.048 64.475 117.917 63.5313C112.181 65.4842 98.5151 67.9176 97.7243 47.2006Z" fill="#56455B"/>
<path fill-rule="evenodd" clip-rule="evenodd" d="M94.5044 66.1832C94.487 66.5371 94.4564 66.8866 94.4171 67.2361C93.6787 73.5404 82.0532 84.0999 95.3171 90.3211C95.3171 90.3211 97.4447 90.8104 98.017 94.1701C98.5893 97.5253 103.994 105.385 113.981 99.4913C123.968 93.5977 127.734 81.9722 120.696 71.4127C120.591 71.2554 120.49 71.0982 120.394 70.9409C118.8 86.577 95.8064 82.9902 94.5044 66.1832Z" fill="#3F2C44"/>
<path fill-rule="evenodd" clip-rule="evenodd" d="M94.4695 66.6857C94.452 66.8692 94.4345 67.0527 94.4171 67.2362C93.6787 73.5404 82.0532 84.1 95.3171 90.3212C95.3171 90.3212 97.4447 90.8105 98.017 94.1702C98.5893 97.5254 103.994 105.385 113.981 99.4914C123.968 93.5978 127.734 81.9723 120.696 71.4128C120.696 71.4128 125.506 79.1369 118.904 86.7999C112.443 94.2925 95.2035 90.6925 94.4695 66.6857Z" fill="#331C38"/>
<path fill-rule="evenodd" clip-rule="evenodd" d="M83.7789 85.7644L83.7877 85.8125C84.561 86.4591 90.1793 91.7847 86.7017 108.098C86.4614 108.482 86.1556 108.976 85.8105 109.553C85.8716 109.286 85.9284 109.02 85.9896 108.745C89.8997 91.4308 83.6916 86.4416 83.3726 86.1969C83.3552 86.1838 83.3377 86.1707 83.3246 86.1533C83.5037 85.9741 83.6566 85.8518 83.7789 85.7644Z" fill="#526675"/>
<path fill-rule="evenodd" clip-rule="evenodd" d="M176.158 81.579C176.158 81.0897 175.088 73.9772 175.088 73.9772C175.088 73.9772 181.313 76.7514 184.918 83.628C188.522 90.5045 192.615 111.628 190.977 119.16C189.339 126.692 179.841 133.402 179.841 133.402L176.158 81.579Z" fill="#E67170"/>
<path fill-rule="evenodd" clip-rule="evenodd" d="M176.158 81.579C176.158 81.0897 175.088 73.9772 175.088 73.9772C175.088 73.9772 181.313 76.7514 184.918 83.628C185.28 84.3183 185.643 85.1527 186.01 86.0964C184.406 86.743 183.1 88.0492 182.733 90.4477C181.672 97.403 183.087 116.263 185.446 120.387C186.661 122.515 188.443 122.729 190.073 121.825C187.189 128.203 179.841 133.402 179.841 133.402L176.158 81.579Z" fill="#D84F50"/>
<path fill-rule="evenodd" clip-rule="evenodd" d="M134.283 149.323C134.283 149.323 133.505 150.93 134.283 156.409H176.241C176.241 156.409 178.902 154.561 178.736 147.684L134.283 149.323Z" fill="#331C38"/>
<path fill-rule="evenodd" clip-rule="evenodd" d="M134.204 146.212C134.204 146.212 133.099 148.916 133.426 149.978C133.754 151.044 136.948 154.482 148.08 154.888C159.211 155.299 170.758 154.233 175.014 151.695C179.269 149.156 180.046 147.763 179.64 144.202C179.229 140.641 134.204 146.212 134.204 146.212Z" fill="white"/>
<path fill-rule="evenodd" clip-rule="evenodd" d="M142.02 78.3854L136.371 76.4194C136.371 76.4194 130.56 81.9853 126.467 91.4832C122.373 100.981 117.79 113.258 117.463 117.024C117.135 120.789 123.356 135.36 135.148 140.109C146.935 144.857 138.914 132.087 138.914 132.087C138.914 132.087 130.399 119.151 130.071 116.862C129.743 114.568 135.148 110.396 135.148 110.396C135.148 110.396 152.177 102.947 151.522 100.653C150.862 98.3598 142.02 78.3854 142.02 78.3854Z" fill="#E67170"/>
<path fill-rule="evenodd" clip-rule="evenodd" d="M117.454 117.552C117.659 121.991 123.845 135.561 135.143 140.113C137.363 141.009 138.879 141.279 139.879 141.135C139.329 138.195 138.988 135.093 138.817 131.952C138.232 131.056 134.92 125.98 132.539 121.89C131.377 127.483 126.012 129.619 122.439 126.05C118.734 122.336 117.497 117.709 117.454 117.552ZM130.067 116.862C129.739 114.568 135.143 110.396 135.143 110.396C135.143 110.396 137.459 109.382 140.347 107.989C141.565 96.2584 140.875 90.0721 140.063 93.5934C139.119 97.687 135.467 102.82 132.107 110.073C128.747 117.321 130.067 116.862 130.067 116.862Z" fill="#D84F50"/>
<path fill-rule="evenodd" clip-rule="evenodd" d="M154.296 36.0599C158.206 36.0599 161.404 39.2492 161.404 43.1505V57.3013C161.404 61.2026 158.206 64.3919 154.296 64.3919C150.386 64.3919 147.188 61.2026 147.188 57.3013V43.1549C147.188 39.2535 150.386 36.0599 154.296 36.0599Z" fill="#F4AD85"/>
<path fill-rule="evenodd" clip-rule="evenodd" d="M153.916 56.0083H162.239C162.89 56.0083 163.423 56.5413 163.423 57.1922V73.357C163.423 74.0079 162.89 74.5409 162.239 74.5409H153.916C153.265 74.5409 152.732 74.0079 152.732 73.357V57.1922C152.737 56.5413 153.265 56.0083 153.916 56.0083Z" fill="#F09576"/>
<path fill-rule="evenodd" clip-rule="evenodd" d="M145.76 46.6195C145.76 46.6195 141.059 45.9336 140.032 41.3157C139.005 36.6978 141.657 30.114 151.063 33.1066C151.063 33.1066 155.004 33.1066 158.884 33.1066C164.161 33.1066 168.526 34.1595 171.095 37.6502C175.254 43.2992 174.205 55.9295 169.107 60.9449C163.296 66.6638 153.868 63.7235 153.921 56.0081C154.576 55.3528 154.982 54.4485 154.982 53.448C154.982 52.3121 154.458 51.2941 153.637 50.6301C152.654 49.8393 151.356 50.0359 151.356 53.5048V56.5586C151.356 56.5586 149.263 56.0868 149.263 53.8237C149.259 51.5563 149.259 46.3399 145.76 46.6195Z" fill="#3F2C44"/>
<path fill-rule="evenodd" clip-rule="evenodd" d="M149.941 32.7921C150.303 32.8839 150.675 32.9887 151.059 33.1111H156.76C158.071 43.972 167.565 46.388 173.655 46.8074C173.672 47.5807 173.655 48.3627 173.598 49.1491C158.508 50.2064 152.261 39.1139 149.941 32.7921Z" fill="#4F3F55"/>
<path fill-rule="evenodd" clip-rule="evenodd" d="M145.76 46.6196C145.76 46.6196 141.059 45.9337 140.032 41.3159C139.661 39.6426 139.77 37.7072 140.513 36.0689C140.486 36.1956 139.285 42.3163 143.663 42.3163C148.084 42.3163 154.921 42.9061 156.04 47.0915C157.106 51.0759 160.526 62.1203 172.357 55.4229C171.593 57.6335 170.5 59.5777 169.107 60.9495C163.296 66.6683 153.868 63.7281 153.921 56.0127C154.576 55.3574 154.982 54.453 154.982 53.4525C154.982 52.3166 154.458 51.2987 153.637 50.6346C152.654 49.8439 151.356 50.0405 151.356 53.5093V56.5632C151.356 56.5632 149.263 56.0913 149.263 53.8283C149.259 51.5565 149.259 46.34 145.76 46.6196Z" fill="#331C38"/>
<path fill-rule="evenodd" clip-rule="evenodd" d="M145.58 72.0812C145.58 72.0812 139.237 73.6365 136.371 76.4195C136.371 76.4195 145.458 93.6939 135.143 110.396C135.143 110.396 132.36 138.724 132.522 141.834C132.684 144.945 133.26 146.5 135.143 148.222C137.026 149.943 148.979 153.132 163.222 151.332C177.464 149.532 180.169 145.194 180.496 143.39C180.824 141.59 182.379 130.209 181.235 111.707C180.09 93.2046 182.078 75.3317 173.593 73.4225C165.105 71.5089 145.58 72.0812 145.58 72.0812Z" fill="#E67170"/>
<path fill-rule="evenodd" clip-rule="evenodd" d="M145.581 72.0813C145.581 72.0813 142.051 72.9463 139.067 74.5409C139.172 74.5016 142.619 73.1604 144.012 76.1181C145.428 79.1239 143.58 96.3197 163.659 96.3197C163.659 96.3197 157.097 79.8185 157.097 77.1797C157.097 75.8516 154.777 73.7589 152.466 71.9983C148.451 71.9983 145.581 72.0813 145.581 72.0813Z" fill="#D84F50"/>
<path fill-rule="evenodd" clip-rule="evenodd" d="M140.063 93.5978C139.958 98.7748 138.713 104.616 135.143 110.396C135.143 110.396 132.36 138.724 132.522 141.834C132.684 144.945 133.26 146.5 135.143 148.221C135.969 148.977 138.739 150.017 142.789 150.79C138.298 140.982 137.948 125.787 139.591 114.14C141.788 98.5302 141.006 89.4998 140.063 93.5978Z" fill="#D84F50"/>
<path fill-rule="evenodd" clip-rule="evenodd" d="M145.58 72.0811C145.58 72.0811 147.258 71.9981 148.241 73.6364C149.224 75.2747 149.102 94.7598 161.3 96.3151C169.059 97.3024 173.305 88.888 174.275 81.26C175.075 74.9645 173.122 66.7423 163.571 67.0613C163.519 67.0613 163.423 67.0525 163.423 67.105V68.4549C162.772 71.3209 158.521 70.6699 156.468 69.4161C153.104 67.3715 148.643 65.637 145.58 72.0811Z" fill="white"/>
<path fill-rule="evenodd" clip-rule="evenodd" d="M164.384 67.0569C164.118 67.0525 163.847 67.0525 163.571 67.0613C163.519 67.0613 163.423 67.0525 163.423 67.105V68.4549C162.842 70.9976 159.425 70.7704 157.232 69.8093C167.268 76.3538 168.543 67.555 164.384 67.0569Z" fill="#F8CFBE"/>
<path fill-rule="evenodd" clip-rule="evenodd" d="M25.2187 84.0912L24.1265 84.0256C24.1265 84.0256 22.8027 84.8863 22.4489 85.8169C22.095 86.7431 17.4072 98.2462 15.0568 106.093C15.0568 106.093 20.78 106.8 22.0775 111.134C22.0775 111.134 29.5395 101.099 29.9458 99.4346C30.3521 97.7657 31.5885 90.1813 25.2187 84.0912Z" fill="white"/>
<path fill-rule="evenodd" clip-rule="evenodd" d="M25.2187 84.0912L24.1265 84.0256C24.1265 84.0256 23.5673 84.3883 23.078 84.8994C30.5968 87.5731 26.1056 100.632 23.3838 104.66C22.1387 106.503 20.6795 107.351 19.4213 107.718C20.5659 108.474 21.6101 109.566 22.0775 111.13C22.0775 111.13 29.5395 101.095 29.9458 99.4302C30.3521 97.7657 31.5885 90.1813 25.2187 84.0912Z" fill="#FDF1EF"/>
<path fill-rule="evenodd" clip-rule="evenodd" d="M64.9099 89.6702C63.809 91.1905 61.7075 94.8167 63.1624 98.8142L63.7871 98.8885C62.2012 94.9434 64.3769 91.326 65.4211 89.9148L64.9099 89.6702ZM65.941 90.1726L66.4434 90.4173C65.3686 91.9507 63.525 95.3366 64.9361 99.0239L64.3201 98.954C63.0269 95.1968 64.8269 91.7934 65.941 90.1726Z" fill="#3F2C44"/>
<path fill-rule="evenodd" clip-rule="evenodd" d="M15.7864 103.768C17.5034 103.974 21.811 104.874 23.7901 108.797L23.4188 109.308C21.5708 105.302 17.1801 104.476 15.6116 104.306C15.6684 104.127 15.7252 103.947 15.7864 103.768ZM15.4369 104.852C15.3801 105.031 15.3233 105.21 15.2709 105.389C17.0272 105.625 20.9635 106.569 22.7241 110.256L23.0955 109.749C21.2038 106.114 17.298 105.123 15.4369 104.852Z" fill="#3F2C44"/>
<path fill-rule="evenodd" clip-rule="evenodd" d="M39.9375 82.5226C39.8108 91.719 27.0843 80.4168 32.659 80.2901C32.659 80.2901 34.2711 82.2168 39.9375 82.5226Z" fill="#3F2C44"/>
<path fill-rule="evenodd" clip-rule="evenodd" d="M41.2874 80.0282C41.2874 80.0282 42.2004 81.933 39.9374 82.5228C39.9374 82.5228 40.7718 85.048 42.4058 84.6417C44.0397 84.2354 43.4893 79.4908 41.2874 80.0282Z" fill="#3F2C44"/>
<path fill-rule="evenodd" clip-rule="evenodd" d="M35.5467 94.4934L39.2864 94.1526C39.5311 94.1308 39.732 94.3143 39.732 94.5589V95.7647C39.732 96.0094 39.5311 96.2278 39.2864 96.254L35.5467 96.5904C35.302 96.6123 35.1054 96.4288 35.1054 96.1841V94.9783C35.101 94.738 35.302 94.5152 35.5467 94.4934Z" fill="white"/>
<path fill-rule="evenodd" clip-rule="evenodd" d="M80.157 27.9646H58.9419C57.1725 27.9646 55.722 29.4151 55.722 31.1845V44.457V45.44V53.8894C55.722 54.0379 55.8051 54.1646 55.9449 54.2214C56.0803 54.2782 56.2332 54.2476 56.3381 54.1428L61.8253 48.6555H80.1614C81.9308 48.6555 83.3812 47.205 83.3812 45.4357V31.1801C83.3769 29.4107 81.9264 27.9646 80.157 27.9646Z" fill="white"/>
<path fill-rule="evenodd" clip-rule="evenodd" d="M107.218 15.6617H128.433C130.202 15.6617 131.653 17.1122 131.653 18.8816V32.1541V33.1371V41.5865C131.653 41.735 131.57 41.8617 131.43 41.9185C131.294 41.9753 131.146 41.9447 131.037 41.8399L125.558 36.3526H107.222C105.453 36.3526 104.002 34.9021 104.002 33.1328V18.8816C104.002 17.1078 105.448 15.6617 107.218 15.6617Z" fill="white"/>
<path fill-rule="evenodd" clip-rule="evenodd" d="M116.925 29.1179C116.733 28.8558 116.244 23.8054 116.012 21.2846C115.942 20.5287 115.885 19.8341 115.999 19.2836C116.353 17.6191 119.249 17.571 119.643 19.2268C119.774 19.786 119.717 20.5025 119.643 21.2846C119.411 23.8054 118.922 28.8558 118.729 29.1179C118.367 29.616 117.288 29.616 116.925 29.1179ZM117.83 30.7256C118.454 30.7256 118.961 31.2324 118.961 31.8572C118.961 32.4819 118.454 32.9887 117.83 32.9887C117.205 32.9887 116.698 32.4819 116.698 31.8572C116.694 31.2368 117.2 30.7256 117.83 30.7256Z" fill="#E67170"/>
</svg>
