<svg width="78" height="14" viewBox="0 0 78 14" fill="none" xmlns="http://www.w3.org/2000/svg">
<path d="M6.28273 1.84087C6.45295 1.31699 7.19411 1.31699 7.36433 1.84087L8.22784 4.4985C8.30397 4.73279 8.52229 4.89141 8.76864 4.89141H11.563C12.1139 4.89141 12.3429 5.59629 11.8973 5.92007L9.63655 7.56258C9.43726 7.70737 9.35386 7.96403 9.42999 8.19832L10.2935 10.8559C10.4637 11.3798 9.86412 11.8155 9.41848 11.4917L7.15776 9.84919C6.95846 9.70439 6.6886 9.70439 6.4893 9.84919L4.22858 11.4917C3.78294 11.8155 3.18334 11.3798 3.35356 10.856L4.21707 8.19832C4.2932 7.96403 4.2098 7.70737 4.01051 7.56258L1.74979 5.92007C1.30415 5.59629 1.53318 4.89141 2.08402 4.89141H4.87842C5.12476 4.89141 5.34309 4.73279 5.41922 4.4985L6.28273 1.84087Z" fill="#EF8800"/>
<path d="M22.2043 1.84087C22.3745 1.31699 23.1157 1.31699 23.2859 1.84087L24.1494 4.4985C24.2255 4.73279 24.4439 4.89141 24.6902 4.89141H27.4846C28.0354 4.89141 28.2645 5.59629 27.8188 5.92007L25.5581 7.56258C25.3588 7.70737 25.2754 7.96403 25.3516 8.19832L26.2151 10.8559C26.3853 11.3798 25.7857 11.8155 25.34 11.4917L23.0793 9.84919C22.88 9.70439 22.6102 9.70439 22.4109 9.84919L20.1502 11.4917C19.7045 11.8155 19.1049 11.3798 19.2751 10.856L20.1386 8.19832C20.2148 7.96403 20.1314 7.70737 19.9321 7.56258L17.6714 5.92007C17.2257 5.59629 17.4547 4.89141 18.0056 4.89141H20.8C21.0463 4.89141 21.2647 4.73279 21.3408 4.4985L22.2043 1.84087Z" fill="#EF8800"/>
<path d="M38.1259 1.84087C38.2961 1.31699 39.0372 1.31699 39.2075 1.84087L40.071 4.4985C40.1471 4.73279 40.3654 4.89141 40.6118 4.89141H43.4062C43.957 4.89141 44.186 5.59629 43.7404 5.92007L41.4797 7.56258C41.2804 7.70737 41.197 7.96403 41.2731 8.19832L42.1366 10.8559C42.3069 11.3798 41.7073 11.8155 41.2616 11.4917L39.0009 9.84919C38.8016 9.70439 38.5317 9.70439 38.3324 9.84919L36.0717 11.4917C35.6261 11.8155 35.0265 11.3798 35.1967 10.856L36.0602 8.19832C36.1363 7.96403 36.0529 7.70737 35.8536 7.56258L33.5929 5.92007C33.1473 5.59629 33.3763 4.89141 33.9272 4.89141H36.7216C36.9679 4.89141 37.1862 4.73279 37.2624 4.4985L38.1259 1.84087Z" fill="#EF8800"/>
<path d="M54.0475 1.84087C54.2177 1.31699 54.9589 1.31699 55.1291 1.84087L55.9926 4.4985C56.0687 4.73279 56.2871 4.89141 56.5334 4.89141H59.3278C59.8786 4.89141 60.1077 5.59629 59.662 5.92007L57.4013 7.56258C57.202 7.70737 57.1186 7.96403 57.1948 8.19832L58.0583 10.8559C58.2285 11.3798 57.6289 11.8155 57.1832 11.4917L54.9225 9.84919C54.7232 9.70439 54.4534 9.70439 54.2541 9.84919L51.9934 11.4917C51.5477 11.8155 50.9481 11.3798 51.1183 10.856L51.9818 8.19832C52.058 7.96403 51.9746 7.70737 51.7753 7.56258L49.5146 5.92007C49.0689 5.59629 49.298 4.89141 49.8488 4.89141H52.6432C52.8895 4.89141 53.1079 4.73279 53.184 4.4985L54.0475 1.84087Z" fill="#EF8800"/>
<path d="M69.969 1.84087C70.1392 1.31699 70.8804 1.31699 71.0506 1.84087L71.9141 4.4985C71.9902 4.73279 72.2086 4.89141 72.4549 4.89141H75.2493C75.8002 4.89141 76.0292 5.59629 75.5835 5.92007L73.3228 7.56258C73.1235 7.70737 73.0401 7.96403 73.1163 8.19832L73.9798 10.8559C74.15 11.3798 73.5504 11.8155 73.1048 11.4917L70.844 9.84919C70.6447 9.70439 70.3749 9.70439 70.1756 9.84919L67.9149 11.4917C67.4692 11.8155 66.8696 11.3798 67.0398 10.856L67.9034 8.19832C67.9795 7.96403 67.8961 7.70737 67.6968 7.56258L65.4361 5.92007C64.9904 5.59629 65.2195 4.89141 65.7703 4.89141H68.5647C68.811 4.89141 69.0294 4.73279 69.1055 4.4985L69.969 1.84087Z" fill="#EF8800"/>
</svg>
