<svg width="15" height="15" viewBox="0 0 15 15" fill="none" xmlns="http://www.w3.org/2000/svg">
<path d="M9.58633 7.05885L14.603 2.05385C14.8227 1.83416 14.9461 1.5362 14.9461 1.22552C14.9461 0.914832 14.8227 0.616872 14.603 0.397184C14.3833 0.177496 14.0854 0.0540771 13.7747 0.0540771C13.464 0.0540771 13.166 0.177496 12.9463 0.397184L7.94133 5.41385L2.93634 0.397184C2.71665 0.177496 2.41869 0.0540771 2.108 0.0540771C1.79732 0.0540772 1.49936 0.177496 1.27967 0.397184C1.05998 0.616872 0.936561 0.914832 0.936561 1.22552C0.936561 1.5362 1.05998 1.83416 1.27967 2.05385L6.29634 7.05885L1.27967 12.0639C1.17032 12.1723 1.08353 12.3013 1.0243 12.4435C0.965065 12.5857 0.93457 12.7382 0.93457 12.8922C0.93457 13.0462 0.965065 13.1987 1.0243 13.3409C1.08353 13.483 1.17032 13.6121 1.27967 13.7205C1.38813 13.8299 1.51716 13.9167 1.65933 13.9759C1.8015 14.0351 1.95399 14.0656 2.108 14.0656C2.26202 14.0656 2.41451 14.0351 2.55667 13.9759C2.69884 13.9167 2.82788 13.8299 2.93634 13.7205L7.94133 8.70385L12.9463 13.7205C13.0548 13.8299 13.1838 13.9167 13.326 13.9759C13.4682 14.0351 13.6207 14.0656 13.7747 14.0656C13.9287 14.0656 14.0812 14.0351 14.2233 13.9759C14.3655 13.9167 14.4945 13.8299 14.603 13.7205C14.7123 13.6121 14.7991 13.483 14.8584 13.3409C14.9176 13.1987 14.9481 13.0462 14.9481 12.8922C14.9481 12.7382 14.9176 12.5857 14.8584 12.4435C14.7991 12.3013 14.7123 12.1723 14.603 12.0639L9.58633 7.05885Z" fill="#ADADAD"/>
</svg>
