<svg width="43" height="43" viewBox="0 0 43 43" fill="none" xmlns="http://www.w3.org/2000/svg">
<path d="M42.3569 21.5101C42.3569 32.0244 34.5654 40.7168 24.4435 42.1273C23.4971 42.2586 22.5288 42.3272 21.546 42.3272C20.4114 42.3272 19.2973 42.2367 18.2123 42.0617C8.30194 40.4659 0.733521 31.8712 0.733521 21.5101C0.733521 10.0126 10.0519 0.691498 21.5445 0.691498C33.0371 0.691498 42.3569 10.0126 42.3569 21.5101Z" fill="#1877F2"/>
<path d="M24.4436 17.4068V21.9419H30.0521L29.164 28.0509H24.4436V42.1259C23.4972 42.2572 22.5289 42.3258 21.546 42.3258C20.4115 42.3258 19.2974 42.2353 18.2124 42.0603V28.0509H13.0399V21.9419H18.2124V16.393C18.2124 12.9505 21.0021 10.1585 24.445 10.1585V10.1615C24.4553 10.1615 24.464 10.1585 24.4742 10.1585H30.0536V15.4419H26.4079C25.3244 15.4419 24.445 16.3215 24.445 17.4054L24.4436 17.4068Z" fill="white"/>
</svg>
