<svg width="16" height="15" viewBox="0 0 16 15" fill="none" xmlns="http://www.w3.org/2000/svg">
<path d="M8.12891 0.187256C4.09684 0.187256 0.816406 3.46769 0.816406 7.49975C0.816406 11.5318 4.09684 14.8123 8.12891 14.8123C12.161 14.8123 15.4414 11.5318 15.4414 7.49975C15.4414 3.46769 12.161 0.187256 8.12891 0.187256ZM11.9346 5.04901L7.20957 10.674C7.15774 10.7357 7.09325 10.7856 7.02046 10.8203C6.94767 10.8549 6.86829 10.8735 6.78769 10.8748H6.7782C6.69936 10.8747 6.6214 10.8581 6.54939 10.826C6.47738 10.7939 6.41292 10.747 6.36019 10.6884L4.33519 8.43843C4.28377 8.38388 4.24376 8.3196 4.21753 8.24938C4.1913 8.17915 4.17937 8.10439 4.18244 8.02948C4.18552 7.95458 4.20353 7.88104 4.23543 7.8132C4.26733 7.74536 4.31247 7.68458 4.3682 7.63443C4.42392 7.58428 4.48911 7.54578 4.55993 7.52118C4.63074 7.49659 4.70576 7.4864 4.78058 7.49121C4.85539 7.49602 4.92849 7.51574 4.99557 7.54921C5.06265 7.58267 5.12237 7.62921 5.17121 7.68608L6.76344 9.45514L11.0732 4.3255C11.1699 4.21373 11.3067 4.14449 11.454 4.13275C11.6013 4.12101 11.7473 4.16772 11.8605 4.26277C11.9736 4.35782 12.0448 4.49358 12.0587 4.6407C12.0726 4.78783 12.028 4.9345 11.9346 5.04901Z" fill="#F09A38"/>
</svg>
