<svg width="46" height="46" viewBox="0 0 46 46" fill="none" xmlns="http://www.w3.org/2000/svg">
<rect x="0.5" y="0.5" width="45" height="45" rx="9.5" fill="#DB281C"/>
<rect x="0.5" y="0.5" width="45" height="45" rx="9.5" stroke="#DB281C"/>
<g clip-path="url(#clip0_1_1901)">
<mask id="mask0_1_1901" style="mask-type:luminance" maskUnits="userSpaceOnUse" x="13" y="13" width="20" height="20">
<path d="M33 13L33 33L13 33L13 13L33 13Z" fill="white"/>
</mask>
<g mask="url(#mask0_1_1901)">
<path fill-rule="evenodd" clip-rule="evenodd" d="M15.5067 15.6033C15.5025 15.57 15.5 15.535 15.5 15.5L15.5 13.8333C15.5 13.6123 15.5878 13.4004 15.7441 13.2441C15.9003 13.0878 16.1123 13 16.3333 13C16.5543 13 16.7663 13.0878 16.9226 13.2441C17.0789 13.4004 17.1667 13.6123 17.1667 13.8333L17.1667 15.5C17.1667 15.535 17.1642 15.5692 17.16 15.6033C17.8761 15.7874 18.5108 16.2042 18.9642 16.7883C19.4176 17.3723 19.6641 18.0905 19.6648 18.8299C19.6656 19.5693 19.4206 20.288 18.9684 20.873C18.5162 21.458 17.8824 21.8761 17.1667 22.0617L17.1667 32.1667C17.1667 32.3877 17.0789 32.5996 16.9226 32.7559C16.7663 32.9122 16.5543 33 16.3333 33C16.1123 33 15.9003 32.9122 15.7441 32.7559C15.5878 32.5996 15.5 32.3877 15.5 32.1667L15.5 22.0617C14.7842 21.8761 14.1504 21.458 13.6982 20.873C13.246 20.288 13.001 19.5693 13.0018 18.8299C13.0026 18.0905 13.249 17.3723 13.7024 16.7883C14.1559 16.2042 14.7905 15.7874 15.5067 15.6033ZM14.6667 18.8333C14.6667 19.2754 14.8422 19.6993 15.1548 20.0118C15.4674 20.3244 15.8913 20.5 16.3333 20.5C16.7753 20.5 17.1993 20.3244 17.5118 20.0118C17.8244 19.6993 18 19.2754 18 18.8333C18 18.3913 17.8244 17.9674 17.5118 17.6548C17.1993 17.3423 16.7753 17.1667 16.3333 17.1667C15.8913 17.1667 15.4674 17.3423 15.1548 17.6548C14.8422 17.9674 14.6667 18.3913 14.6667 18.8333ZM28 18.8333C28 19.2754 28.1756 19.6993 28.4881 20.0118C28.8007 20.3244 29.2246 20.5 29.6667 20.5C30.1087 20.5 30.5326 20.3244 30.8452 20.0118C31.1577 19.6993 31.3333 19.2754 31.3333 18.8333C31.3333 18.3913 31.1577 17.9674 30.8452 17.6548C30.5326 17.3423 30.1087 17.1667 29.6667 17.1667C29.2246 17.1667 28.8007 17.3423 28.4881 17.6548C28.1756 17.9674 28 18.3913 28 18.8333ZM30.5 22.0617C31.2157 21.8761 31.8495 21.458 32.3017 20.873C32.754 20.288 32.9989 19.5693 32.9982 18.8299C32.9974 18.0905 32.7509 17.3723 32.2975 16.7883C31.8441 16.2042 31.2094 15.7874 30.4933 15.6033C30.4977 15.5691 30.4999 15.5345 30.5 15.5L30.5 13.8333C30.5 13.6123 30.4122 13.4004 30.2559 13.2441C30.0996 13.0878 29.8877 13 29.6667 13C29.4456 13 29.2337 13.0878 29.0774 13.2441C28.9211 13.4004 28.8333 13.6123 28.8333 13.8333L28.8333 15.5C28.8333 15.535 28.8358 15.5692 28.84 15.6033C28.1239 15.7874 27.4892 16.2042 27.0358 16.7883C26.5824 17.3723 26.3359 18.0905 26.3351 18.8299C26.3344 19.5693 26.5794 20.288 27.0316 20.873C27.4838 21.458 28.1176 21.8761 28.8333 22.0617L28.8333 32.1667C28.8333 32.3877 28.9211 32.5996 29.0774 32.7559C29.2337 32.9122 29.4456 33 29.6667 33C29.8877 33 30.0996 32.9122 30.2559 32.7559C30.4122 32.5996 30.5 32.3877 30.5 32.1667L30.5 22.0617ZM23 25.5C22.558 25.5 22.134 25.6756 21.8215 25.9882C21.5089 26.3007 21.3333 26.7246 21.3333 27.1667C21.3333 27.6087 21.5089 28.0326 21.8215 28.3452C22.134 28.6577 22.558 28.8333 23 28.8333C23.442 28.8333 23.8659 28.6577 24.1785 28.3452C24.4911 28.0326 24.6667 27.6087 24.6667 27.1667C24.6667 26.7246 24.4911 26.3007 24.1785 25.9882C23.8659 25.6756 23.442 25.5 23 25.5ZM19.6667 27.1667C19.6668 26.4276 19.9123 25.7095 20.3648 25.1252C20.8173 24.5408 21.4511 24.1234 22.1667 23.9383L22.1667 13.8333C22.1667 13.6123 22.2545 13.4004 22.4107 13.2441C22.567 13.0878 22.779 13 23 13C23.221 13 23.433 13.0878 23.5892 13.2441C23.7455 13.4004 23.8333 13.6123 23.8333 13.8333L23.8333 23.9383C24.5491 24.1239 25.1829 24.542 25.6351 25.127C26.0873 25.712 26.3323 26.4307 26.3315 27.1701C26.3307 27.9095 26.0843 28.6277 25.6309 29.2117C25.1774 29.7958 24.5428 30.2126 23.8267 30.3967C23.8308 30.43 23.8333 30.465 23.8333 30.5L23.8333 32.1667C23.8333 32.3877 23.7455 32.5996 23.5892 32.7559C23.433 32.9122 23.221 33 23 33C22.779 33 22.567 32.9122 22.4107 32.7559C22.2544 32.5996 22.1667 32.3877 22.1667 32.1667L22.1667 30.5C22.1667 30.465 22.1692 30.4308 22.1733 30.3967C21.4563 30.2128 20.8208 29.7956 20.367 29.2108C19.9131 28.6261 19.6668 27.9069 19.6667 27.1667Z" fill="white"/>
</g>
</g>
<defs>
<clipPath id="clip0_1_1901">
<rect width="20" height="20" fill="white" transform="translate(33 13) rotate(90)"/>
</clipPath>
</defs>
</svg>
