<svg width="90" height="90" viewBox="0 0 90 90" fill="none" xmlns="http://www.w3.org/2000/svg">
<path d="M41.4957 27.4623C41.4957 27.5469 41.4875 27.6311 41.471 27.7144C41.4545 27.7973 41.4297 27.8781 41.3976 27.9566C41.3651 28.0352 41.3251 28.1094 41.2778 28.1797C41.231 28.2505 41.1771 28.3156 41.1172 28.3755C41.0573 28.4358 40.9918 28.4892 40.9215 28.5365C40.8507 28.5834 40.7765 28.6229 40.6975 28.6558C40.6194 28.6884 40.5387 28.7127 40.4553 28.7292C40.3725 28.7457 40.2882 28.7539 40.2032 28.7539C40.1185 28.7539 40.0343 28.7457 39.951 28.7292C39.8677 28.7127 39.7869 28.6884 39.7088 28.6558C39.6303 28.6229 39.556 28.5834 39.4849 28.5365C39.4146 28.4892 39.3494 28.4358 39.2891 28.3755C39.2292 28.3156 39.1754 28.2505 39.1285 28.1797C39.0812 28.1094 39.0413 28.0352 39.0092 27.9566C38.9766 27.8781 38.9523 27.7973 38.9354 27.7144C38.9189 27.6311 38.9106 27.5469 38.9106 27.4623C38.9106 27.3772 38.9189 27.2934 38.9354 27.2101C38.9523 27.1272 38.9766 27.0465 39.0092 26.9679C39.0413 26.8898 39.0812 26.8151 39.1285 26.7444C39.1754 26.6741 39.2292 26.6085 39.2891 26.5486C39.3494 26.4887 39.4146 26.4354 39.4849 26.388C39.556 26.3407 39.6303 26.3012 39.7088 26.2687C39.7869 26.2361 39.8677 26.2118 39.951 26.1953C40.0343 26.1784 40.1185 26.1702 40.2032 26.1702C40.2882 26.1702 40.3725 26.1784 40.4553 26.1953C40.5387 26.2118 40.6194 26.2361 40.6975 26.2687C40.7765 26.3012 40.8507 26.3407 40.9215 26.388C40.9918 26.4354 41.0573 26.4887 41.1172 26.5486C41.1771 26.6085 41.231 26.6741 41.2778 26.7444C41.3251 26.8151 41.3651 26.8898 41.3976 26.9679C41.4297 27.0465 41.4545 27.1272 41.471 27.2101C41.4875 27.2934 41.4957 27.3772 41.4957 27.4623Z" fill="#1D1D1B"/>
<path d="M51.6744 27.4623C51.6744 27.5469 51.6662 27.6311 51.6493 27.7144C51.6332 27.7973 51.6085 27.8781 51.5763 27.9566C51.5438 28.0352 51.5039 28.1094 51.4565 28.1797C51.4097 28.2505 51.3558 28.3156 51.296 28.3755C51.2361 28.4358 51.1705 28.4892 51.1002 28.5365C51.0295 28.5834 50.9548 28.6229 50.8762 28.6558C50.7981 28.6884 50.7174 28.7127 50.6341 28.7292C50.5512 28.7457 50.4665 28.7539 50.3819 28.7539C50.2973 28.7539 50.2131 28.7457 50.1297 28.7292C50.0464 28.7127 49.9657 28.6884 49.8875 28.6558C49.809 28.6229 49.7348 28.5834 49.6636 28.5365C49.5933 28.4892 49.5282 28.4358 49.4678 28.3755C49.4079 28.3156 49.3541 28.2505 49.3072 28.1797C49.2599 28.1094 49.22 28.0352 49.1879 27.9566C49.1553 27.8781 49.1306 27.7973 49.1141 27.7144C49.0976 27.6311 49.0894 27.5469 49.0894 27.4623C49.0894 27.3772 49.0976 27.2934 49.1141 27.2101C49.1306 27.1272 49.1553 27.0465 49.1879 26.9679C49.22 26.8898 49.2599 26.8151 49.3072 26.7444C49.3541 26.6741 49.4079 26.6085 49.4678 26.5486C49.5282 26.4887 49.5933 26.4354 49.6636 26.388C49.7348 26.3407 49.809 26.3012 49.8875 26.2687C49.9657 26.2361 50.0464 26.2118 50.1297 26.1953C50.2131 26.1784 50.2973 26.1702 50.3819 26.1702C50.4665 26.1702 50.5512 26.1784 50.6341 26.1953C50.7174 26.2118 50.7981 26.2361 50.8762 26.2687C50.9548 26.3012 51.0295 26.3407 51.1002 26.388C51.1705 26.4354 51.2361 26.4887 51.296 26.5486C51.3558 26.6085 51.4097 26.6741 51.4565 26.7444C51.5039 26.8151 51.5438 26.8898 51.5763 26.9679C51.6085 27.0465 51.6332 27.1272 51.6493 27.2101C51.6662 27.2934 51.6744 27.3772 51.6744 27.4623Z" fill="#1D1D1B"/>
<path d="M41.4957 61.8229C41.4957 61.9075 41.4875 61.9913 41.471 62.0746C41.4545 62.1579 41.4297 62.2387 41.3976 62.3172C41.3651 62.3958 41.3251 62.47 41.2778 62.5403C41.231 62.6111 41.1771 62.6762 41.1172 62.7361C41.0573 62.7964 40.9918 62.8498 40.9215 62.8971C40.8507 62.944 40.7765 62.9835 40.6975 63.0164C40.6194 63.0486 40.5387 63.0733 40.4553 63.0898C40.3725 63.1063 40.2882 63.1145 40.2032 63.1145C40.1185 63.1145 40.0343 63.1063 39.951 63.0898C39.8677 63.0733 39.7869 63.0486 39.7088 63.0164C39.6303 62.9835 39.556 62.944 39.4849 62.8971C39.4146 62.8498 39.3494 62.7964 39.2891 62.7361C39.2292 62.6762 39.1754 62.6111 39.1285 62.5403C39.0812 62.47 39.0413 62.3958 39.0092 62.3172C38.9766 62.2387 38.9523 62.1579 38.9354 62.0746C38.9189 61.9913 38.9106 61.9075 38.9106 61.8229C38.9106 61.7378 38.9189 61.654 38.9354 61.5707C38.9523 61.4874 38.9766 61.4066 39.0092 61.3281C39.0413 61.2499 39.0812 61.1753 39.1285 61.105C39.1754 61.0347 39.2292 60.9691 39.2891 60.9092C39.3494 60.8493 39.4146 60.796 39.4849 60.7486C39.556 60.7013 39.6303 60.6618 39.7088 60.6293C39.7869 60.5967 39.8677 60.5724 39.951 60.5555C40.0343 60.539 40.1185 60.5308 40.2032 60.5308C40.2882 60.5308 40.3725 60.539 40.4553 60.5555C40.5387 60.5724 40.6194 60.5967 40.6975 60.6293C40.7765 60.6618 40.8507 60.7013 40.9215 60.7486C40.9918 60.796 41.0573 60.8493 41.1172 60.9092C41.1771 60.9691 41.231 61.0347 41.2778 61.105C41.3251 61.1753 41.3651 61.2499 41.3976 61.3281C41.4297 61.4066 41.4545 61.4874 41.471 61.5707C41.4875 61.654 41.4957 61.7378 41.4957 61.8229Z" fill="#28509E"/>
<path d="M51.6744 61.8229C51.6744 61.9075 51.6662 61.9913 51.6493 62.0746C51.6332 62.1579 51.6085 62.2387 51.5763 62.3172C51.5438 62.3958 51.5039 62.47 51.4565 62.5403C51.4097 62.6111 51.3558 62.6762 51.296 62.7361C51.2361 62.7964 51.1705 62.8498 51.1002 62.8971C51.0295 62.944 50.9548 62.9835 50.8762 63.0164C50.7981 63.0486 50.7174 63.0733 50.6341 63.0898C50.5512 63.1063 50.4665 63.1145 50.3819 63.1145C50.2973 63.1145 50.2131 63.1063 50.1297 63.0898C50.0464 63.0733 49.9657 63.0486 49.8875 63.0164C49.809 62.9835 49.7348 62.944 49.6636 62.8971C49.5933 62.8498 49.5282 62.7964 49.4678 62.7361C49.4079 62.6762 49.3541 62.6111 49.3072 62.5403C49.2599 62.47 49.22 62.3958 49.1879 62.3172C49.1553 62.2387 49.1306 62.1579 49.1141 62.0746C49.0976 61.9913 49.0894 61.9075 49.0894 61.8229C49.0894 61.7378 49.0976 61.654 49.1141 61.5707C49.1306 61.4874 49.1553 61.4066 49.1879 61.3281C49.22 61.2499 49.2599 61.1753 49.3072 61.105C49.3541 61.0347 49.4079 60.9691 49.4678 60.9092C49.5282 60.8493 49.5933 60.796 49.6636 60.7486C49.7348 60.7013 49.809 60.6618 49.8875 60.6293C49.9657 60.5967 50.0464 60.5724 50.1297 60.5555C50.2131 60.539 50.2973 60.5308 50.3819 60.5308C50.4665 60.5308 50.5512 60.539 50.6341 60.5555C50.7174 60.5724 50.7981 60.5967 50.8762 60.6293C50.9548 60.6618 51.0295 60.7013 51.1002 60.7486C51.1705 60.796 51.2361 60.8493 51.296 60.9092C51.3558 60.9691 51.4097 61.0347 51.4565 61.105C51.5039 61.1753 51.5438 61.2499 51.5763 61.3281C51.6085 61.4066 51.6332 61.4874 51.6493 61.5707C51.6662 61.654 51.6744 61.7378 51.6744 61.8229Z" fill="#28509E"/>
<mask id="mask0_1_1654" style="mask-type:luminance" maskUnits="userSpaceOnUse" x="19" y="39" width="52" height="47">
<path d="M19.7778 39.7778H70.3334V85.1255H19.7778V39.7778Z" fill="white"/>
</mask>
<g mask="url(#mask0_1_1654)">
<path d="M54.2384 39.8329V39.7838H40.0487V50.5399H59.4862V62.5178C59.4862 69.6723 53.6837 75.4783 46.5183 75.4783H42.9567C35.7987 75.4783 29.9892 69.6792 29.9892 62.5178V60.4609H19.8386C20.1338 74.1306 31.31 85.118 45.0504 85.118C58.7909 85.118 70.2761 73.8285 70.2761 59.9058V39.8329H54.2319H54.2384Z" fill="#28509E"/>
</g>
<mask id="mask1_1_1654" style="mask-type:luminance" maskUnits="userSpaceOnUse" x="19" y="4" width="52" height="47">
<path d="M19.7778 4.8407H70.2596V50.5555H19.7778V4.8407Z" fill="white"/>
</mask>
<g mask="url(#mask1_1_1654)">
<path d="M29.9822 49.8941V28.1853C29.9822 21.0312 35.7843 15.2248 42.9501 15.2248H46.5117C53.6693 15.2248 59.4792 21.0239 59.4792 28.1853V28.8733H70.2478C69.6367 15.4983 58.5938 4.8407 45.0503 4.8407C31.5065 4.8407 19.8242 16.1302 19.8242 30.0529V50.533H29.9822V49.8941Z" fill="#1D1D1B"/>
</g>
</svg>
