<svg width="260" height="260" viewBox="0 0 260 260" fill="none" xmlns="http://www.w3.org/2000/svg">
<path d="M129.999 229.222C184.798 229.222 229.222 184.799 229.222 129.999C229.222 75.1999 184.798 30.7762 129.999 30.7762C75.1998 30.7762 30.7761 75.1999 30.7761 129.999C30.7761 184.799 75.1998 229.222 129.999 229.222Z" fill="#E0E9F9"/>
<path fill-rule="evenodd" clip-rule="evenodd" d="M177.38 147.072L187.566 147.763L176.019 196.069L165.833 195.378L177.38 147.072Z" fill="#3594DC"/>
<path fill-rule="evenodd" clip-rule="evenodd" d="M177.38 147.056C177.38 147.056 190.32 92.9289 194.707 74.5447C195.53 71.0646 198.773 68.6943 202.33 68.9358L218.404 70.0271C219.251 70.0846 220.016 70.5147 220.519 71.1917C221.021 71.8687 221.189 72.7311 221.001 73.5503C220.71 74.7785 220.369 76.1735 220.105 77.2901C219.785 78.6488 218.512 79.5834 217.119 79.4889C212.771 79.1937 204.094 78.6046 204.094 78.6046L187.561 147.767L177.379 147.075L177.38 147.056Z" fill="#3594DC"/>
<path fill-rule="evenodd" clip-rule="evenodd" d="M94.3608 182.203L177.993 187.881L176.036 196.067L92.4039 190.389L94.3608 182.203Z" fill="#3594DC"/>
<path fill-rule="evenodd" clip-rule="evenodd" d="M201.952 87.6862L69.1702 78.6713C69.1702 78.6713 74.2383 130.025 76.3609 151.374C76.889 156.665 81.136 160.799 86.4355 161.159C106.433 162.516 153.698 165.725 173.696 167.083C178.996 167.443 183.785 163.923 185.001 158.75C189.989 137.884 201.952 87.6862 201.952 87.6862Z" fill="#4FB4F3"/>
<path fill-rule="evenodd" clip-rule="evenodd" d="M107.498 103.671L111.446 141.322C111.724 143.913 114.036 145.791 116.626 145.513C119.217 145.235 121.095 142.923 120.835 140.334L116.886 102.701C116.608 100.111 114.296 98.2334 111.707 98.4925C109.118 98.7516 107.239 101.082 107.498 103.671Z" fill="#1D77C7"/>
<path fill-rule="evenodd" clip-rule="evenodd" d="M107.866 107.157L111.446 141.322C111.724 143.913 114.036 145.791 116.626 145.513C119.217 145.235 121.094 142.923 120.835 140.334L117.255 106.168C116.977 103.578 114.666 101.7 112.076 101.959C109.486 102.237 107.607 104.568 107.866 107.157Z" fill="#3594DC"/>
<path fill-rule="evenodd" clip-rule="evenodd" d="M151.42 105.027L142.439 141.781C141.813 144.311 143.379 146.875 145.909 147.482C148.438 148.107 151.003 146.542 151.608 144.03L160.59 107.257C161.216 104.728 159.649 102.182 157.12 101.557C154.59 100.95 152.045 102.498 151.42 105.027Z" fill="#1D77C7"/>
<path fill-rule="evenodd" clip-rule="evenodd" d="M150.579 108.506L142.437 141.8C141.812 144.329 143.377 146.894 145.908 147.501C148.437 148.126 151.001 146.561 151.607 144.049L159.748 110.755C160.373 108.226 158.808 105.661 156.278 105.054C153.748 104.429 151.185 105.976 150.579 108.506Z" fill="#3594DC"/>
<path d="M184.913 193.56C186.065 185.113 180.151 177.331 171.704 176.179C163.257 175.026 155.475 180.94 154.323 189.387C153.17 197.835 159.084 205.617 167.531 206.769C175.978 207.921 183.76 202.007 184.913 193.56Z" fill="#4FB4F3"/>
<path d="M174.42 192.134C174.782 189.483 172.926 187.04 170.274 186.678C167.623 186.317 165.18 188.173 164.818 190.825C164.456 193.476 166.313 195.919 168.964 196.281C171.616 196.642 174.059 194.786 174.42 192.134Z" fill="white"/>
<path d="M109.192 188.419C110.345 179.972 104.431 172.19 95.9838 171.038C87.5366 169.886 79.7546 175.799 78.6023 184.247C77.45 192.694 83.3637 200.476 91.8109 201.628C100.258 202.78 108.04 196.867 109.192 188.419Z" fill="#4FB4F3"/>
<path d="M98.7002 186.994C99.0619 184.342 97.2056 181.899 94.554 181.538C91.9023 181.176 89.4595 183.032 89.0978 185.684C88.7361 188.335 90.5924 190.778 93.2441 191.14C95.8957 191.502 98.3385 189.645 98.7002 186.994Z" fill="white"/>
<path fill-rule="evenodd" clip-rule="evenodd" d="M102.605 80.847C101.439 98.0129 88.695 111.651 72.5141 114.636L68.9509 78.5616L102.605 80.847Z" fill="#3594DC"/>
<path d="M64.3251 106.899C80.6947 106.899 93.9649 93.6286 93.9649 77.259C93.9649 60.8894 80.6947 47.6192 64.3251 47.6192C47.9555 47.6192 34.6853 60.8894 34.6853 77.259C34.6853 93.6286 47.9555 106.899 64.3251 106.899Z" fill="#DB281C"/>
<path d="M71.6203 79.5999C71.6203 76.4752 71.1448 74.0976 70.2617 72.3994C69.3787 70.7012 68.0881 69.8181 66.3898 69.8181C64.7596 69.8181 63.469 70.6333 62.586 72.3994C61.7029 74.0976 61.2952 76.4752 61.2952 79.5999C61.2952 82.7246 61.7029 85.102 62.586 86.8681C63.469 88.5664 64.6916 89.4495 66.3898 89.4495C68.0201 89.4495 69.3107 88.5664 70.2617 86.8681C71.1448 85.102 71.6203 82.7246 71.6203 79.5999ZM80.6548 79.5999C80.6548 82.317 80.3152 84.7624 79.568 86.8681C78.8887 88.9739 77.8698 90.74 76.6471 92.2344C75.3564 93.6609 73.862 94.7478 72.1637 95.495C70.3976 96.2422 68.4957 96.5819 66.4578 96.5819C64.3521 96.5819 62.4501 96.2422 60.6839 95.495C58.9178 94.7478 57.4233 93.6609 56.2006 92.2344C54.9779 90.8079 53.9589 89.0419 53.2797 86.8681C52.6004 84.7624 52.2607 82.317 52.2607 79.5999C52.2607 76.8827 52.6004 74.4373 53.2797 72.3316C53.9589 70.2258 54.9779 68.4596 56.2006 67.0331C57.4913 65.6066 58.9857 64.5198 60.6839 63.7725C62.4501 63.0253 64.3521 62.6856 66.4578 62.6856C68.4957 62.6856 70.3976 63.0933 72.1637 63.7725C73.9299 64.5198 75.4244 65.6066 76.6471 67.0331C77.8698 68.4596 78.8887 70.2258 79.568 72.3316C80.3152 74.4373 80.6548 76.8827 80.6548 79.5999Z" fill="#ED3F07"/>
<path d="M69.8427 76.5026C69.8427 73.3779 69.3672 71.0004 68.4841 69.3022C67.6011 67.6039 66.3105 66.7208 64.6123 66.7208C62.982 66.7208 61.6914 67.536 60.8084 69.3022C59.9253 71.0004 59.5176 73.3779 59.5176 76.5026C59.5176 79.6273 59.9253 82.0048 60.8084 83.7709C61.6914 85.4691 62.9141 86.3522 64.6123 86.3522C66.2425 86.3522 67.5331 85.4691 68.4841 83.7709C69.3672 82.0048 69.8427 79.6273 69.8427 76.5026ZM78.8772 76.5026C78.8772 79.2197 78.5377 81.6651 77.7904 83.7709C77.1112 85.8767 76.0922 87.6427 74.8695 89.1372C73.5789 90.5637 72.0844 91.6505 70.3862 92.3978C68.62 93.145 66.7181 93.4847 64.6803 93.4847C62.5745 93.4847 60.6725 93.145 58.9064 92.3978C57.1402 91.6505 55.6457 90.5637 54.423 89.1372C53.2003 87.7107 52.1814 85.9446 51.5021 83.7709C50.8228 81.6651 50.4832 79.2197 50.4832 76.5026C50.4832 73.7855 50.8228 71.3401 51.5021 69.2343C52.1814 67.1285 53.2003 65.3624 54.423 63.9359C55.7137 62.5094 57.2081 61.4225 58.9064 60.6753C60.6725 59.9281 62.5745 59.5884 64.6803 59.5884C66.7181 59.5884 68.62 59.996 70.3862 60.6753C72.1523 61.4225 73.6468 62.5094 74.8695 63.9359C76.0922 65.3624 77.1112 67.1285 77.7904 69.2343C78.5377 71.3401 78.8772 73.7855 78.8772 76.5026Z" fill="white"/>
<path d="M23.583 61.2409C23.495 61.2409 23.3893 61.2233 23.3012 61.2057L6.09284 57.0313C5.44114 56.8727 5.03601 56.2211 5.19453 55.5694C5.35305 54.9177 6.00476 54.5125 6.65646 54.6711L23.8648 58.8455C24.5165 59.004 24.9217 59.6557 24.7631 60.3074C24.6222 60.871 24.1291 61.2409 23.583 61.2409Z" fill="#DB281C"/>
<path d="M42.7835 41.525C42.2903 41.525 41.8323 41.2255 41.6562 40.75L36.425 27.0995C36.1784 26.4654 36.4955 25.7785 37.1295 25.5319C37.7636 25.2853 38.4505 25.6024 38.6971 26.2364L43.9283 39.8869C44.1749 40.521 43.8579 41.2079 43.2238 41.4545C43.0829 41.4897 42.9244 41.525 42.7835 41.525Z" fill="#DB281C"/>
<path d="M29.4569 49.6859C29.1398 49.6859 28.8404 49.5626 28.5938 49.3336L12.2661 33.0059C11.7905 32.5303 11.7905 31.7553 12.2661 31.2974C12.7417 30.8218 13.5166 30.8218 13.9746 31.2974L30.3023 47.6251C30.7779 48.1007 30.7779 48.8757 30.3023 49.3336C30.0734 49.5626 29.7739 49.6859 29.4569 49.6859Z" fill="#DB281C"/>
</svg>
