<svg width="48" height="48" viewBox="0 0 48 48" fill="none" xmlns="http://www.w3.org/2000/svg">
<rect width="48" height="48" rx="24" fill="#DB281C"/>
<path d="M34 21.1C34.1 20.6 33.7 20 33.2 20L27.5 19.2L24.9 14C24.8 13.8 24.7 13.7 24.5 13.6C24 13.3 23.4 13.5 23.1 14L20.6 19.2L14.9 20C14.6 20 14.4 20.1 14.3 20.3C13.9 20.7 13.9 21.3 14.3 21.7L18.4 25.7L17.4 31.4C17.4 31.6 17.4 31.8 17.5 32C17.8 32.5 18.4 32.7 18.9 32.4L24 29.7L29.1 32.4C29.2 32.5 29.4 32.5 29.6 32.5C29.7 32.5 29.7 32.5 29.8 32.5C30.3 32.4 30.7 31.9 30.6 31.3L29.6 25.6L33.7 21.6C33.9 21.5 34 21.3 34 21.1Z" fill="white"/>
</svg>
