<svg width="25" height="24" viewBox="0 0 25 24" fill="none" xmlns="http://www.w3.org/2000/svg">
<path d="M21.73 8.01002L15.18 2.77002C13.9 1.75002 11.9 1.74002 10.63 2.76002L4.08005 8.01002C3.14005 8.76002 2.57005 10.26 2.77005 11.44L4.03005 18.98C4.32005 20.67 5.89005 22 7.60005 22H18.2C19.89 22 21.49 20.64 21.78 18.97L23.04 11.43C23.22 10.26 22.65 8.76002 21.73 8.01002ZM13.65 18C13.65 18.41 13.31 18.75 12.9 18.75C12.49 18.75 12.15 18.41 12.15 18V15C12.15 14.59 12.49 14.25 12.9 14.25C13.31 14.25 13.65 14.59 13.65 15V18Z" fill="#DB281C"/>
</svg>
