<svg width="21" height="20" viewBox="0 0 21 20" fill="none" xmlns="http://www.w3.org/2000/svg">
<path d="M10.1001 0C4.5901 0 0.100098 4.49 0.100098 10C0.100098 15.51 4.5901 20 10.1001 20C15.6101 20 20.1001 15.51 20.1001 10C20.1001 4.49 15.6101 0 10.1001 0ZM11.1001 14C11.1001 14.55 10.6501 15 10.1001 15C9.5501 15 9.1001 14.55 9.1001 14V10C9.1001 9.45 9.5501 9 10.1001 9C10.6501 9 11.1001 9.45 11.1001 10V14ZM10.1001 7C9.5501 7 9.1001 6.55 9.1001 6C9.1001 5.45 9.5501 5 10.1001 5C10.6501 5 11.1001 5.45 11.1001 6C11.1001 6.55 10.6501 7 10.1001 7Z" fill="#DB281C"/>
</svg>
