<svg width="21" height="20" viewBox="0 0 21 20" fill="none" xmlns="http://www.w3.org/2000/svg">
<path d="M10.1001 0C4.5861 0 0.100098 4.486 0.100098 10C0.100098 15.514 4.5861 20 10.1001 20C15.6141 20 20.1001 15.514 20.1001 10C20.1001 4.486 15.6141 0 10.1001 0ZM10.1001 18C5.6891 18 2.1001 14.411 2.1001 10C2.1001 5.589 5.6891 2 10.1001 2C14.5111 2 18.1001 5.589 18.1001 10C18.1001 14.411 14.5111 18 10.1001 18ZM11.1001 6C11.1001 6.552 10.6521 7 10.1001 7C9.5481 7 9.1001 6.552 9.1001 6C9.1001 5.448 9.5481 5 10.1001 5C10.6521 5 11.1001 5.448 11.1001 6ZM11.1001 10V14C11.1001 14.553 10.6521 15 10.1001 15C9.5481 15 9.1001 14.553 9.1001 14V10C9.1001 9.447 9.5481 9 10.1001 9C10.6521 9 11.1001 9.447 11.1001 10Z" fill="#595959"/>
</svg>
