<svg width="25" height="24" viewBox="0 0 25 24" fill="none" xmlns="http://www.w3.org/2000/svg">
<path d="M12.1 2C6.58601 2 2.10001 6.486 2.10001 12C2.10001 17.514 6.58601 22 12.1 22C17.614 22 22.1 17.514 22.1 12C22.1 6.486 17.614 2 12.1 2ZM12.1 20C7.68901 20 4.10001 16.411 4.10001 12C4.10001 7.589 7.68901 4 12.1 4C16.511 4 20.1 7.589 20.1 12C20.1 16.411 16.511 20 12.1 20ZM13.1 8C13.1 8.552 12.652 9 12.1 9C11.548 9 11.1 8.552 11.1 8C11.1 7.448 11.548 7 12.1 7C12.652 7 13.1 7.448 13.1 8ZM13.1 12V16C13.1 16.553 12.652 17 12.1 17C11.548 17 11.1 16.553 11.1 16V12C11.1 11.447 11.548 11 12.1 11C12.652 11 13.1 11.447 13.1 12Z" fill="#A2A2A2"/>
</svg>
