<svg width="42" height="43" viewBox="0 0 42 43" fill="none" xmlns="http://www.w3.org/2000/svg">
<path d="M21.2091 0.691498H21.1143C9.64648 0.691498 0.349976 9.99073 0.349976 21.4619V21.5567C0.349976 33.0279 9.64648 42.3272 21.1143 42.3272H21.2091C32.6769 42.3272 41.9734 33.0279 41.9734 21.5567V21.4619C41.9734 9.99073 32.6769 0.691498 21.2091 0.691498Z" fill="url(#paint0_linear_1_3082)"/>
<path d="M27.6022 9.16223H14.7227C11.1646 9.16223 8.2699 12.0578 8.2699 15.617V27.4033C8.2699 30.9625 11.1646 33.858 14.7227 33.858H27.6022C31.1604 33.858 34.055 30.9625 34.055 27.4033V15.617C34.055 12.0578 31.1604 9.16223 27.6022 9.16223ZM10.5463 15.617C10.5463 13.3137 12.4201 11.4393 14.7227 11.4393H27.6022C29.9048 11.4393 31.7787 13.3137 31.7787 15.617V27.4033C31.7787 29.7066 29.9048 31.581 27.6022 31.581H14.7227C12.4201 31.581 10.5463 29.7066 10.5463 27.4033V15.617Z" fill="white"/>
<path d="M21.1625 27.5128C24.4713 27.5128 27.1648 24.82 27.1648 21.5088C27.1648 18.1976 24.4728 15.5048 21.1625 15.5048C17.8523 15.5048 15.1603 18.1976 15.1603 21.5088C15.1603 24.82 17.8523 27.5128 21.1625 27.5128ZM21.1625 17.7833C23.2172 17.7833 24.8884 19.455 24.8884 21.5103C24.8884 23.5656 23.2172 25.2372 21.1625 25.2372C19.1078 25.2372 17.4366 23.5656 17.4366 21.5103C17.4366 19.455 19.1078 17.7833 21.1625 17.7833Z" fill="white"/>
<path d="M27.7202 16.4747C28.6112 16.4747 29.3375 15.7498 29.3375 14.857C29.3375 13.9643 28.6127 13.2393 27.7202 13.2393C26.8278 13.2393 26.103 13.9643 26.103 14.857C26.103 15.7498 26.8278 16.4747 27.7202 16.4747Z" fill="white"/>
<defs>
<linearGradient id="paint0_linear_1_3082" x1="6.43096" y1="36.2444" x2="35.9011" y2="6.78441" gradientUnits="userSpaceOnUse">
<stop stop-color="#FAAD4F"/>
<stop offset="0.35" stop-color="#DD2A7B"/>
<stop offset="0.62" stop-color="#9537B0"/>
<stop offset="1" stop-color="#515BD4"/>
</linearGradient>
</defs>
</svg>
