<svg width="48" height="48" viewBox="0 0 48 48" fill="none" xmlns="http://www.w3.org/2000/svg">
<rect width="48" height="48" rx="24" fill="#DB281C"/>
<path d="M32 14H16C15.4 14 15 14.4 15 15V33C15 33.6 15.4 34 16 34C16.2 34 16.4 33.9 16.6 33.8L18.7 32.3L20.8 33.8C21.2 34.1 21.6 34.1 22 33.8L24.1 32.3L26.2 33.8C26.6 34.1 27 34.1 27.4 33.8L29.5 32.3L31.6 33.8C31.8 33.9 32 34 32.2 34C32.8 34 33.2 33.6 33.2 33V15C33 14.4 32.6 14 32 14ZM28 28H20C19.4 28 19 27.6 19 27C19 26.4 19.4 26 20 26H28C28.6 26 29 26.4 29 27C29 27.6 28.6 28 28 28ZM28 24H20C19.4 24 19 23.6 19 23C19 22.4 19.4 22 20 22H28C28.6 22 29 22.4 29 23C29 23.6 28.6 24 28 24ZM28 20H22C21.4 20 21 19.6 21 19C21 18.4 21.4 18 22 18H28C28.6 18 29 18.4 29 19C29 19.6 28.6 20 28 20Z" fill="#FFF8EB"/>
</svg>
