<svg width="21" height="20" viewBox="0 0 21 20" fill="none" xmlns="http://www.w3.org/2000/svg">
<path d="M20.0896 18.469L15.3956 13.775C16.5896 12.344 17.3096 10.505 17.3096 8.5C17.3096 3.951 13.6086 0.25 9.05957 0.25C4.51057 0.25 0.80957 3.951 0.80957 8.5C0.80957 13.049 4.51057 16.75 9.05957 16.75C11.0646 16.75 12.9036 16.0301 14.3346 14.8361L19.0286 19.53C19.1746 19.676 19.3666 19.75 19.5586 19.75C19.7506 19.75 19.9426 19.677 20.0886 19.53C20.3826 19.237 20.3826 18.762 20.0896 18.469ZM2.30957 8.5C2.30957 4.778 5.33757 1.75 9.05957 1.75C12.7816 1.75 15.8096 4.778 15.8096 8.5C15.8096 12.222 12.7816 15.25 9.05957 15.25C5.33757 15.25 2.30957 12.222 2.30957 8.5Z" fill="#595959"/>
</svg>
