<svg width="21" height="20" viewBox="0 0 21 20" fill="none" xmlns="http://www.w3.org/2000/svg">
<path d="M20.4067 18.293L15.8677 13.7539C17.0107 12.3059 17.6997 10.483 17.6997 8.5C17.6997 3.813 13.8867 0 9.19971 0C4.51271 0 0.699707 3.813 0.699707 8.5C0.699707 13.187 4.51271 17 9.19971 17C11.1837 17 13.0057 16.312 14.4537 15.168L18.9927 19.707C19.1877 19.902 19.4437 20 19.6997 20C19.9557 20 20.2117 19.902 20.4067 19.707C20.7977 19.316 20.7977 18.684 20.4067 18.293ZM2.69971 8.5C2.69971 4.916 5.61571 2 9.19971 2C12.7837 2 15.6997 4.916 15.6997 8.5C15.6997 12.084 12.7837 15 9.19971 15C5.61571 15 2.69971 12.084 2.69971 8.5Z" fill="#DB281C"/>
</svg>
