<svg width="25" height="24" viewBox="0 0 25 24" fill="none" xmlns="http://www.w3.org/2000/svg">
<path d="M22.2301 20.469L17.5361 15.775C18.7301 14.344 19.4501 12.505 19.4501 10.5C19.4501 5.951 15.7491 2.25 11.2001 2.25C6.65113 2.25 2.95013 5.951 2.95013 10.5C2.95013 15.049 6.65113 18.75 11.2001 18.75C13.2051 18.75 15.0441 18.0301 16.4751 16.8361L21.1691 21.53C21.3151 21.676 21.5071 21.75 21.6991 21.75C21.8911 21.75 22.0831 21.677 22.2291 21.53C22.5231 21.237 22.5231 20.762 22.2301 20.469ZM4.45013 10.5C4.45013 6.778 7.47813 3.75 11.2001 3.75C14.9221 3.75 17.9501 6.778 17.9501 10.5C17.9501 14.222 14.9221 17.25 11.2001 17.25C7.47813 17.25 4.45013 14.222 4.45013 10.5Z" fill="#909090"/>
</svg>
