<svg width="21" height="20" viewBox="0 0 21 20" fill="none" xmlns="http://www.w3.org/2000/svg">
<path d="M9.05032 13.0012V16.0012C9.05032 16.4152 8.71432 16.7512 8.30032 16.7512C7.88632 16.7512 7.55032 16.4152 7.55032 16.0012V13.0012C7.55032 12.5872 7.88632 12.2512 8.30032 12.2512C8.71432 12.2512 9.05032 12.5872 9.05032 13.0012ZM12.3003 12.2512C11.8863 12.2512 11.5503 12.5872 11.5503 13.0012V16.0012C11.5503 16.4152 11.8863 16.7512 12.3003 16.7512C12.7143 16.7512 13.0503 16.4152 13.0503 16.0012V13.0012C13.0503 12.5872 12.7143 12.2512 12.3003 12.2512ZM18.4973 10.4652L17.7303 16.4752C17.4923 18.3422 15.8933 19.7502 14.0103 19.7502H6.61234C4.73634 19.7502 3.13732 18.3472 2.89432 16.4872L2.10431 10.4652C1.18731 10.0182 0.549316 9.08621 0.549316 8.00021C0.549316 6.48321 1.78232 5.25021 3.29932 5.25021H4.87534L7.65631 0.614227C7.86931 0.259227 8.33033 0.143147 8.68533 0.357147C9.04033 0.570147 9.15632 1.0312 8.94232 1.3862L6.62332 5.25021H13.9743L11.6553 1.3862C11.4423 1.0312 11.5573 0.570147 11.9123 0.357147C12.2663 0.144147 12.7273 0.259227 12.9413 0.614227L15.7223 5.25021H17.3003C18.8173 5.25021 20.0503 6.48321 20.0503 8.00021C20.0503 9.08621 19.4133 10.0182 18.4973 10.4652ZM16.9483 10.7512H3.65533L4.38232 16.2932C4.52832 17.4092 5.48734 18.2512 6.61234 18.2512H14.0103C15.1393 18.2512 16.0993 17.4062 16.2413 16.2862L16.9483 10.7512ZM18.5503 8.00119C18.5503 7.31219 17.9893 6.75119 17.3003 6.75119H3.30032C2.61132 6.75119 2.05032 7.31219 2.05032 8.00119C2.05032 8.69019 2.61132 9.25119 3.30032 9.25119H17.3003C17.9893 9.25119 18.5503 8.69019 18.5503 8.00119Z" fill="#595959"/>
</svg>
