<svg width="21" height="20" viewBox="0 0 21 20" fill="none" xmlns="http://www.w3.org/2000/svg">
<path fill-rule="evenodd" clip-rule="evenodd" d="M18.0498 11.1702C17.9498 11.0602 17.8098 11.0003 17.6698 11.0003H2.92981C2.78981 11.0003 2.6498 11.0602 2.5498 11.1702C2.4598 11.2802 2.41981 11.4204 2.42981 11.5704L3.1398 16.9502C3.3698 18.6902 4.8598 20.0003 6.6098 20.0003H14.0098C15.7698 20.0003 17.2698 18.6902 17.4898 16.9402L18.1698 11.5603C18.1798 11.4203 18.1398 11.2802 18.0498 11.1702ZM9.2998 16.0003C9.2998 16.5503 8.8498 17.0003 8.2998 17.0003C7.7498 17.0003 7.2998 16.5503 7.2998 16.0003V14.0003C7.2998 13.4503 7.7498 13.0003 8.2998 13.0003C8.8498 13.0003 9.2998 13.4503 9.2998 14.0003V16.0003ZM13.2998 16.0003C13.2998 16.5503 12.8498 17.0003 12.2998 17.0003C11.7498 17.0003 11.2998 16.5503 11.2998 16.0003V14.0003C11.2998 13.4503 11.7498 13.0003 12.2998 13.0003C12.8498 13.0003 13.2998 13.4503 13.2998 14.0003V16.0003ZM20.2998 7.25029C20.2998 8.49329 19.2928 9.50029 18.0498 9.50029H2.5498C1.3068 9.50029 0.299805 8.49329 0.299805 7.25029C0.299805 6.00729 1.3068 5.00029 2.5498 5.00029H4.7338L7.44281 0.485398C7.72681 0.0103978 8.33982 -0.14262 8.81482 0.14238C9.28882 0.42638 9.44181 1.04021 9.15781 1.51421L7.0668 4.99931H13.5348L11.4438 1.51421C11.1598 1.04021 11.3128 0.42638 11.7868 0.14238C12.2608 -0.14162 12.8748 0.0113977 13.1588 0.485398L15.8678 5.00029H18.0518C19.2928 5.00029 20.2998 6.00729 20.2998 7.25029Z" fill="#DB281C"/>
</svg>
