<svg width="21" height="20" viewBox="0 0 21 20" fill="none" xmlns="http://www.w3.org/2000/svg">
<path d="M9.05051 13.0012V16.0012C9.05051 16.4152 8.71451 16.7512 8.30051 16.7512C7.88651 16.7512 7.55051 16.4152 7.55051 16.0012V13.0012C7.55051 12.5872 7.88651 12.2512 8.30051 12.2512C8.71451 12.2512 9.05051 12.5872 9.05051 13.0012ZM12.3005 12.2512C11.8865 12.2512 11.5505 12.5872 11.5505 13.0012V16.0012C11.5505 16.4152 11.8865 16.7512 12.3005 16.7512C12.7145 16.7512 13.0505 16.4152 13.0505 16.0012V13.0012C13.0505 12.5872 12.7145 12.2512 12.3005 12.2512ZM18.4975 10.4652L17.7305 16.4752C17.4925 18.3422 15.8935 19.7502 14.0105 19.7502H6.61252C4.73652 19.7502 3.1375 18.3472 2.8945 16.4872L2.10449 10.4652C1.18749 10.0182 0.5495 9.08621 0.5495 8.00021C0.5495 6.48321 1.7825 5.25021 3.2995 5.25021H4.87552L7.65649 0.614227C7.86949 0.259227 8.33052 0.143147 8.68552 0.357147C9.04052 0.570147 9.1565 1.0312 8.9425 1.3862L6.6235 5.25021H13.9745L11.6555 1.3862C11.4425 1.0312 11.5575 0.570147 11.9125 0.357147C12.2665 0.144147 12.7275 0.259227 12.9415 0.614227L15.7225 5.25021H17.3005C18.8175 5.25021 20.0505 6.48321 20.0505 8.00021C20.0505 9.08621 19.4135 10.0182 18.4975 10.4652ZM16.9485 10.7512H3.65552L4.38251 16.2932C4.52851 17.4092 5.48752 18.2512 6.61252 18.2512H14.0105C15.1395 18.2512 16.0995 17.4062 16.2415 16.2862L16.9485 10.7512ZM18.5505 8.00119C18.5505 7.31219 17.9895 6.75119 17.3005 6.75119H3.30051C2.61151 6.75119 2.05051 7.31219 2.05051 8.00119C2.05051 8.69019 2.61151 9.25119 3.30051 9.25119H17.3005C17.9895 9.25119 18.5505 8.69019 18.5505 8.00119Z" fill="#909090"/>
</svg>
