<svg width="42" height="43" viewBox="0 0 42 43" fill="none" xmlns="http://www.w3.org/2000/svg">
<path d="M21.0547 0.691498H21.1495C32.6101 0.691498 41.9138 9.998 41.9138 21.4619V21.5567C41.9138 33.0207 32.6101 42.3272 21.1495 42.3272H21.0547C9.59417 42.3272 0.290405 33.0207 0.290405 21.5567V21.4619C0.290405 9.998 9.59417 0.691498 21.0547 0.691498Z" fill="#FFFA00"/>
<path d="M27.6143 17.6999C27.6114 17.9785 27.5822 18.2571 27.556 18.5357C27.5472 18.6276 27.5443 18.7209 27.5428 18.8128C27.5399 18.9718 27.6668 19.1163 27.8258 19.106C27.9016 19.1017 27.9789 19.0812 28.0518 19.0564C28.2953 18.9704 28.5359 18.8785 28.778 18.7866C28.9967 18.702 29.2199 18.6261 29.4459 18.5649C29.6923 18.4978 29.9388 18.4482 30.1896 18.489C30.7 18.5722 31.0325 19.1221 30.8458 19.6049C30.7933 19.7406 30.7131 19.8573 30.6169 19.9652C30.4842 20.1125 30.334 20.238 30.1707 20.3489C29.9782 20.4787 29.7842 20.6056 29.5903 20.734C29.2665 20.9469 28.9428 21.1584 28.6205 21.3743C28.4864 21.4633 28.3566 21.5581 28.2297 21.6559C28.1597 21.7098 28.0941 21.7725 28.0343 21.8382C27.9205 21.9651 27.8578 22.127 27.868 22.2962C27.8783 22.4756 27.9089 22.6507 27.9585 22.8228C28.1116 23.3596 28.3464 23.8585 28.6307 24.3355C29.3934 25.6089 30.474 26.6038 31.7602 27.4163C32.1131 27.6394 32.4908 27.8203 32.8626 28.0114C32.9151 28.0391 32.9662 28.0668 33.0172 28.0975C33.0682 28.1281 33.1135 28.1689 33.147 28.2185C33.1995 28.2929 33.2068 28.3717 33.1616 28.4534C33.1237 28.5234 33.0682 28.5774 33.0084 28.627C32.9414 28.6824 32.8685 28.7291 32.7926 28.7714C32.3581 29.0179 31.8914 29.2017 31.4087 29.3301C31.1754 29.3928 30.9421 29.4584 30.7102 29.527C30.5673 29.5693 30.4331 29.632 30.3004 29.7006C30.0773 29.8158 29.9505 30.0011 29.9038 30.2418C29.8776 30.376 29.8615 30.5131 29.8367 30.6473C29.7755 30.9871 29.653 31.1111 29.3205 31.1695C29.2038 31.1899 29.0842 31.2016 28.9661 31.2089C28.6686 31.2249 28.3711 31.2337 28.0737 31.2497C28.0649 31.2497 28.0562 31.2497 28.0489 31.2497C26.8604 31.3197 25.7113 31.7005 24.6919 32.316C24.638 32.3481 24.584 32.3817 24.5286 32.4138C24.1159 32.6632 23.6959 32.901 23.2453 33.076C22.7422 33.2715 22.2231 33.3882 21.685 33.4363C21.2315 33.4771 20.7794 33.4713 20.3288 33.4203C19.6536 33.3444 19.0134 33.1475 18.4082 32.8382C18.1268 32.6938 17.8556 32.5334 17.5872 32.3685C17.5727 32.3598 17.5581 32.351 17.542 32.3408C16.4717 31.6888 15.254 31.2935 14.0014 31.2424C13.9926 31.2424 13.9839 31.2424 13.9751 31.2424C13.7126 31.2322 13.4516 31.222 13.1891 31.206C13.036 31.1972 12.8829 31.1768 12.7327 31.1359C12.5416 31.0834 12.4031 30.9157 12.3666 30.7217C12.3462 30.6152 12.3302 30.5087 12.3112 30.4022C12.3068 30.3789 12.3068 30.3541 12.3025 30.3307C12.2587 30.0186 12.1041 29.7896 11.811 29.6568C11.6317 29.5751 11.4479 29.5095 11.2584 29.457C10.9317 29.3665 10.6021 29.2863 10.2828 29.1711C10.0013 29.0704 9.73008 28.9508 9.46905 28.8079C9.39031 28.7656 9.31447 28.7174 9.24156 28.6678C9.19197 28.6343 9.14532 28.5963 9.10449 28.554C8.97324 28.4169 8.98636 28.2375 9.1351 28.1208C9.22114 28.0522 9.32176 28.007 9.41946 27.9589C10.1005 27.6248 10.7465 27.2339 11.3473 26.7701C12.2544 26.0713 13.0229 25.2442 13.6047 24.248C13.8118 23.8906 13.9838 23.5142 14.1253 23.1262C14.2186 22.8695 14.2945 22.6128 14.3134 22.3429C14.3265 22.1445 14.2595 21.9476 14.1238 21.8032C14.0261 21.6996 13.9124 21.6165 13.7972 21.5333C13.6251 21.4108 13.4516 21.2897 13.2766 21.1745C12.9004 20.9265 12.5227 20.6829 12.1464 20.4364C11.9817 20.3284 11.8227 20.2117 11.6798 20.0761C11.5762 19.9769 11.4829 19.8704 11.4085 19.7464C11.254 19.4868 11.2423 19.2198 11.3575 18.9456C11.426 18.7822 11.5544 18.6436 11.7148 18.5692C11.9437 18.4642 12.1829 18.4511 12.4235 18.4905C12.6831 18.5328 12.9324 18.613 13.1789 18.702C13.4312 18.7924 13.6791 18.8916 13.9299 18.9864C14.0466 19.0302 14.1647 19.0739 14.2886 19.0929C14.3178 19.0973 14.347 19.106 14.3761 19.1046C14.5205 19.1002 14.6401 19.0535 14.6386 18.8595C14.6386 18.7662 14.6357 18.6713 14.6313 18.578C14.6095 18.1112 14.5817 17.6444 14.5701 17.1776C14.5438 16.0661 14.5482 14.9502 14.8384 13.8708C15.0163 13.21 15.324 12.5959 15.7396 12.0503C16.6015 10.9169 17.7389 10.1978 19.0995 9.81413C19.8432 9.60407 20.6029 9.53551 21.3729 9.55885C22.1006 9.58073 22.8253 9.70472 23.5136 9.94395C24.3303 10.2299 25.0725 10.6441 25.704 11.232C26.4214 11.9001 26.9741 12.6805 27.2745 13.6257C27.4102 14.0531 27.4962 14.4907 27.5487 14.9342C27.6581 15.8517 27.6274 16.775 27.6187 17.6969L27.6143 17.6999Z" fill="white"/>
<path d="M21.0871 34.0725C20.8129 34.0725 20.5359 34.0564 20.2617 34.0258C19.5238 33.9427 18.8063 33.7253 18.1326 33.3796C17.8322 33.225 17.5406 33.0529 17.2708 32.888L17.227 32.8618C16.2179 32.2462 15.0936 31.8976 13.978 31.8523H13.9518C13.7199 31.8421 13.4414 31.8305 13.1555 31.8144C12.9412 31.8013 12.7502 31.7721 12.5737 31.724C12.1668 31.6131 11.8519 31.2645 11.7702 30.8371C11.7542 30.7569 11.741 30.6752 11.7279 30.5949L11.7133 30.506C11.709 30.4797 11.706 30.4505 11.7031 30.4228C11.6842 30.2886 11.6462 30.2521 11.5631 30.2142C11.4144 30.1471 11.2569 30.0902 11.0965 30.045C11.0206 30.0231 10.9448 30.0027 10.8675 29.9823C10.6109 29.9137 10.3455 29.8408 10.0786 29.746C9.76362 29.6337 9.4603 29.498 9.1774 29.3448C9.08407 29.2938 8.99074 29.2369 8.89887 29.1742C8.81283 29.1144 8.73408 29.0502 8.66555 28.9787C8.4818 28.7876 8.38993 28.544 8.40597 28.2917C8.42347 28.0393 8.54742 27.8103 8.7545 27.644C8.88283 27.5419 9.01115 27.4806 9.11469 27.4296L9.14968 27.4121C9.81611 27.0853 10.4286 26.7075 10.974 26.2874C11.8708 25.596 12.5591 24.8287 13.0768 23.9404C13.2547 23.6355 13.4151 23.2898 13.5508 22.9163C13.6455 22.6567 13.6907 22.4729 13.7024 22.3022C13.7039 22.2701 13.6951 22.2395 13.6776 22.222C13.6178 22.1593 13.5318 22.0951 13.4399 22.0309C13.2562 21.8996 13.0914 21.7858 12.9368 21.6852C12.7064 21.5335 12.4745 21.3833 12.2441 21.233L11.8081 20.9486C11.5865 20.8027 11.41 20.667 11.2554 20.5212C11.0994 20.3738 10.9769 20.2236 10.8807 20.0617C10.6269 19.6386 10.5963 19.1719 10.7917 18.7109C10.92 18.406 11.1621 18.1537 11.4552 18.018C11.7746 17.8707 12.1333 17.8284 12.5183 17.8926C12.842 17.9466 13.1351 18.0443 13.3816 18.1333C13.5507 18.1945 13.717 18.2587 13.8847 18.3229C13.9255 18.3389 13.9664 18.355 14.0072 18.3696L14.0014 18.2529C13.9839 17.9086 13.9663 17.5512 13.9576 17.1968C13.9313 16.0794 13.9314 14.8906 14.2463 13.7163C14.4418 12.987 14.7801 12.3043 15.2511 11.6858C16.1611 10.4897 17.3991 9.66405 18.9303 9.23228C19.6915 9.01785 20.4965 8.92741 21.3875 8.95367C22.2056 8.97847 22.9872 9.11996 23.7105 9.37377C24.6496 9.70198 25.4575 10.179 26.1138 10.7902C26.9668 11.5852 27.5341 12.4545 27.8491 13.445C27.9876 13.8826 28.0853 14.3479 28.148 14.8658C28.2487 15.7074 28.237 16.5447 28.2268 17.3558L28.2224 17.7059C28.2195 17.9305 28.202 18.1479 28.183 18.3594C28.3099 18.3112 28.4368 18.2631 28.5578 18.2164C28.8218 18.1158 29.0595 18.037 29.284 17.9757C29.5713 17.897 29.914 17.8255 30.2859 17.8867C30.7161 17.9568 31.0908 18.2179 31.3125 18.603C31.5298 18.9808 31.5662 19.4257 31.4146 19.8224C31.3402 20.015 31.2279 20.1944 31.0704 20.3695C30.9129 20.5445 30.7306 20.702 30.5119 20.8508C30.3617 20.9529 30.21 21.0521 30.0584 21.1528L29.6063 21.4503C29.3905 21.5918 29.1732 21.7348 28.9588 21.8777C28.8436 21.9551 28.7226 22.0411 28.6016 22.1359C28.5636 22.1651 28.5243 22.2016 28.4863 22.2439C28.4776 22.2541 28.4747 22.2599 28.4747 22.2614C28.482 22.3898 28.5038 22.5196 28.5432 22.6538C28.673 23.1045 28.8713 23.5523 29.1528 24.022C29.8192 25.1336 30.7773 26.0759 32.0839 26.9C32.3376 27.0605 32.6089 27.1976 32.8962 27.345C32.9778 27.3858 33.0595 27.4281 33.1397 27.4704C33.2024 27.5025 33.2636 27.5375 33.3234 27.5725C33.4503 27.6469 33.5582 27.7461 33.6442 27.8686C33.8294 28.1327 33.8484 28.4594 33.6968 28.7424C33.6049 28.9116 33.4809 29.0254 33.3963 29.0954C33.2855 29.1873 33.1762 29.2529 33.093 29.2996C32.6278 29.5636 32.1145 29.7708 31.5648 29.9166C31.3592 29.9706 31.1419 30.0319 30.8838 30.1092C30.7802 30.1398 30.6723 30.1923 30.5804 30.2405C30.5411 30.2609 30.5177 30.2769 30.5017 30.3586C30.4886 30.4243 30.4798 30.4899 30.4696 30.557C30.4594 30.6241 30.4492 30.6898 30.4375 30.7554C30.3311 31.3462 30.0102 31.6685 29.424 31.7692C29.2913 31.7925 29.1484 31.8086 28.9997 31.8159C28.8524 31.8246 28.7051 31.8305 28.5564 31.8363C28.4062 31.8421 28.2559 31.848 28.1072 31.8567H28.0912C27.0281 31.9209 25.9635 32.2593 25.0055 32.8384L24.8421 32.9361C24.4265 33.187 23.9715 33.4482 23.4641 33.6451C22.9245 33.8551 22.3441 33.9893 21.7389 34.0448C21.5231 34.0637 21.3044 34.0739 21.0856 34.0739L21.0871 34.0725ZM12.9572 30.5629C13.036 30.5804 13.1235 30.5906 13.2256 30.5964C13.5012 30.6124 13.7709 30.6241 13.9984 30.6314H14.0261C15.3488 30.6868 16.6744 31.0967 17.8599 31.8188L17.9066 31.848C18.1924 32.023 18.436 32.166 18.6868 32.2943C19.2307 32.5729 19.8053 32.748 20.3973 32.8136C20.81 32.8603 21.2242 32.8647 21.631 32.8282C22.1298 32.783 22.5862 32.678 23.0251 32.5073C23.4451 32.3439 23.8447 32.1149 24.2151 31.8917L24.3784 31.7925C25.5057 31.1113 26.7627 30.7131 28.0153 30.6402H28.0401C28.1976 30.6299 28.3536 30.6227 28.5097 30.6168C28.6511 30.611 28.7941 30.6052 28.9355 30.5979C29.0376 30.592 29.1338 30.5818 29.2213 30.5672C29.2272 30.5672 29.2315 30.5658 29.2374 30.5643C29.2388 30.557 29.2403 30.5483 29.2432 30.538C29.2534 30.4826 29.2607 30.4272 29.2694 30.3718C29.2826 30.2886 29.2942 30.2055 29.3103 30.1238C29.3948 29.6905 29.6428 29.3565 30.0248 29.1581C30.159 29.0881 30.3398 29.0006 30.5425 28.9408C30.8123 28.8605 31.0398 28.7964 31.2571 28.7395C31.6056 28.6476 31.9352 28.525 32.2399 28.3763C31.9745 28.2406 31.7033 28.0991 31.4379 27.9314C29.9665 27.0022 28.8786 25.9286 28.1116 24.6493C27.7747 24.0877 27.5341 23.545 27.3751 22.9907C27.3124 22.7705 27.2745 22.5488 27.2629 22.3299C27.2454 22.0003 27.3591 21.6808 27.5851 21.4299C27.6712 21.3337 27.7645 21.2461 27.8608 21.1732C28.0037 21.0623 28.1466 20.9602 28.2851 20.8669C28.5024 20.721 28.7226 20.5766 28.9413 20.4336L29.3934 20.1361C29.5407 20.0398 29.6865 19.9435 29.8323 19.8443C29.968 19.7524 30.0773 19.6591 30.1677 19.5584C30.2246 19.4942 30.2611 19.4403 30.2815 19.3863C30.3092 19.3134 30.2815 19.2448 30.2611 19.2112C30.2232 19.1456 30.1619 19.1004 30.0963 19.0902C29.9548 19.0668 29.7784 19.1062 29.6092 19.1529C29.424 19.204 29.2242 19.2696 28.9982 19.3571C28.762 19.4476 28.5097 19.5438 28.2559 19.6328C28.1174 19.6809 27.9905 19.7087 27.8651 19.716C27.626 19.7291 27.3883 19.643 27.2133 19.4753C27.031 19.3002 26.9304 19.0552 26.9348 18.8028C26.9362 18.7167 26.9391 18.6015 26.9508 18.4819L26.961 18.3652C26.9829 18.1318 27.0033 17.9115 27.0062 17.6957L27.0106 17.3412C27.0208 16.5345 27.031 15.7716 26.9406 15.0117C26.8881 14.5711 26.8064 14.1787 26.6912 13.8155C26.4419 13.0293 25.9825 12.332 25.2869 11.6829C24.7473 11.1796 24.1013 10.8018 23.3109 10.5247C22.7058 10.3132 22.0466 10.1936 21.354 10.1731C20.5884 10.1483 19.9044 10.2257 19.2642 10.4065C17.9751 10.7697 16.9806 11.4305 16.2238 12.4254C15.849 12.917 15.5807 13.4596 15.4261 14.0343C15.1534 15.051 15.1534 16.1407 15.1782 17.1691C15.1855 17.5075 15.203 17.8561 15.2205 18.1931L15.238 18.5548C15.2423 18.6569 15.2453 18.759 15.2467 18.8612C15.2496 19.3586 14.9069 19.7028 14.3936 19.7189C14.3032 19.7189 14.2347 19.7072 14.1968 19.6999C14.0057 19.6707 13.8439 19.6095 13.7141 19.5613C13.6266 19.5278 13.5391 19.4942 13.4516 19.4607C13.2912 19.3994 13.1308 19.3382 12.9704 19.2798C12.7779 19.2098 12.5489 19.1339 12.3229 19.096C12.1318 19.0654 12.0283 19.0989 11.9671 19.1266C11.9525 19.1339 11.9291 19.1558 11.916 19.1864C11.8679 19.3002 11.8825 19.3615 11.9277 19.4373C11.9671 19.503 12.0225 19.5686 12.0954 19.6386C12.196 19.7335 12.3171 19.8268 12.476 19.9304L12.9091 20.2134C13.1424 20.3651 13.3758 20.5168 13.6076 20.6699C13.7753 20.7808 13.9518 20.9019 14.1486 21.0419C14.2843 21.1396 14.4301 21.2461 14.5642 21.3891C14.8136 21.6546 14.9434 22.0178 14.9186 22.3883C14.8938 22.7588 14.7859 23.0914 14.6955 23.3394C14.5336 23.7814 14.344 24.1912 14.1297 24.5588C13.5391 25.5712 12.7283 26.4785 11.7177 27.2574C11.1825 27.6702 10.589 28.0466 9.95173 28.3763C10.1224 28.4594 10.3017 28.5353 10.4884 28.6009C10.71 28.6797 10.9405 28.7424 11.1854 28.808C11.2642 28.8299 11.3444 28.8503 11.4231 28.8722C11.6419 28.9335 11.8577 29.0108 12.0633 29.1042C12.5402 29.32 12.8333 29.7153 12.9076 30.2478C12.9106 30.2667 12.912 30.2857 12.9135 30.3032V30.3003L12.9281 30.3951C12.9368 30.452 12.947 30.5089 12.9572 30.5643V30.5629Z" fill="#1D1D1B"/>
</svg>
