<svg width="17" height="17" viewBox="0 0 17 17" fill="none" xmlns="http://www.w3.org/2000/svg">
<path d="M7.66782 1.06117C7.92976 0.255024 9.07024 0.255022 9.33217 1.06117L10.6609 5.15071C10.7781 5.51123 11.114 5.75532 11.4931 5.75532H15.7931C16.6408 5.75532 16.9932 6.83998 16.3074 7.33821L12.8287 9.86569C12.522 10.0885 12.3937 10.4834 12.5108 10.844L13.8396 14.9335C14.1015 15.7397 13.1788 16.41 12.4931 15.9118L9.01431 13.3843C8.70764 13.1615 8.29236 13.1615 7.98569 13.3843L4.50692 15.9118C3.82117 16.41 2.8985 15.7397 3.16043 14.9335L4.4892 10.844C4.60634 10.4834 4.47802 10.0885 4.17134 9.86569L0.692569 7.33821C0.00681901 6.83999 0.359247 5.75532 1.20688 5.75532H5.50688C5.88595 5.75532 6.22191 5.51123 6.33905 5.15071L7.66782 1.06117Z" fill="#EF8800"/>
</svg>
