<svg width="43" height="43" viewBox="0 0 43 43" fill="none" xmlns="http://www.w3.org/2000/svg">
<path d="M21.5921 0.691467H21.4973C10.0295 0.691467 0.733032 9.9907 0.733032 21.4619V21.5567C0.733032 33.0279 10.0295 42.3271 21.4973 42.3271H21.5921C33.0599 42.3271 42.3564 33.0279 42.3564 21.5567V21.4619C42.3564 9.9907 33.0599 0.691467 21.5921 0.691467Z" fill="black"/>
<path d="M32.0975 17.2274V21.1586C31.4106 21.0915 30.5182 20.9354 29.5309 20.5736C28.2418 20.101 27.2823 19.4548 26.6538 18.9545V26.9L26.6377 26.8752C26.6479 27.0328 26.6538 27.1932 26.6538 27.3551C26.6538 31.3009 23.4441 34.513 19.498 34.513C15.5519 34.513 12.3423 31.3009 12.3423 27.3551C12.3423 23.4093 15.5519 20.1958 19.498 20.1958C19.8845 20.1958 20.2636 20.2265 20.634 20.2863V24.1606C20.2782 24.0337 19.8961 23.9651 19.498 23.9651C17.63 23.9651 16.109 25.4851 16.109 27.3551C16.109 29.2252 17.63 30.7451 19.498 30.7451C21.3661 30.7451 22.887 29.2237 22.887 27.3551C22.887 27.2851 22.8856 27.2151 22.8812 27.1451V11.7047H26.8083C26.8229 12.0373 26.836 12.3728 26.8506 12.7054C26.8769 13.3604 27.1102 13.9891 27.5171 14.504C27.9939 15.1093 28.6982 15.8124 29.687 16.374C30.613 16.8992 31.4821 17.1238 32.0975 17.2303V17.2274Z" fill="#FF004F"/>
<path d="M30.7469 14.0358V17.967C30.06 17.8999 29.1676 17.7438 28.1803 17.3821C26.8912 16.9094 25.9317 16.2632 25.3032 15.7629V23.7084L25.2871 23.6836C25.2973 23.8412 25.3032 24.0016 25.3032 24.1636C25.3032 28.1093 22.0935 31.3214 18.1474 31.3214C14.2014 31.3214 10.9917 28.1093 10.9917 24.1636C10.9917 20.2178 14.2014 17.0043 18.1474 17.0043C18.5339 17.0043 18.913 17.0349 19.2834 17.0947V20.969C18.9276 20.8421 18.5455 20.7735 18.1474 20.7735C16.2794 20.7735 14.7584 22.2935 14.7584 24.1636C14.7584 26.0336 16.2794 27.5536 18.1474 27.5536C20.0155 27.5536 21.5365 26.0322 21.5365 24.1636C21.5365 24.0935 21.535 24.0235 21.5306 23.9535V8.51025H25.4577C25.4723 8.84284 25.4854 9.17834 25.5 9.51092C25.5263 10.1659 25.7596 10.7946 26.1665 11.3095C26.6433 11.9149 27.3477 12.618 28.3364 13.1796C29.2624 13.7032 30.1315 13.9293 30.7469 14.0358Z" fill="#00F7EF"/>
<path d="M31.6061 15.7541V19.6853C30.9193 19.6182 30.0268 19.4621 29.0396 19.1003C27.7505 18.6277 26.7909 17.9815 26.1624 17.4812V25.4267L26.1464 25.4019C26.1566 25.5595 26.1624 25.7199 26.1624 25.8818C26.1624 29.8276 22.9528 33.0397 19.0067 33.0397C15.0606 33.0397 11.851 29.8276 11.851 25.8818C11.851 21.9361 15.0606 18.7225 19.0067 18.7225C19.3931 18.7225 19.7723 18.7532 20.1427 18.813V22.6873C19.7869 22.5604 19.4048 22.4918 19.0067 22.4918C17.1386 22.4918 15.6177 24.0118 15.6177 25.8818C15.6177 27.7519 17.1386 29.2719 19.0067 29.2719C20.8747 29.2719 22.3957 27.7504 22.3957 25.8818C22.3957 25.8118 22.3942 25.7418 22.3899 25.6718V10.2314H26.317C26.3316 10.564 26.3447 10.8995 26.3593 11.2321C26.3855 11.8871 26.6189 12.5158 27.0257 13.0307C27.5026 13.636 28.2069 14.3391 29.1956 14.9007C30.1216 15.4244 30.9908 15.6505 31.6061 15.757V15.7541Z" fill="white"/>
</svg>
