<svg width="19" height="25" viewBox="0 0 19 25" fill="none" xmlns="http://www.w3.org/2000/svg">
<path d="M17.5 5.33V3.22C17.8023 3.04549 18.0536 2.79491 18.2291 2.49317C18.4045 2.19143 18.4979 1.84903 18.5 1.5V1C18.5 0.867392 18.4473 0.740215 18.3536 0.646447C18.2598 0.552678 18.1326 0.5 18 0.5H1C0.867392 0.5 0.740215 0.552678 0.646447 0.646447C0.552679 0.740215 0.5 0.867392 0.5 1V1.5C0.502107 1.84903 0.595518 2.19143 0.770949 2.49317C0.946381 2.79491 1.19772 3.04549 1.5 3.22V5.33C1.50497 6.30587 1.71392 7.26991 2.11346 8.16026C2.51299 9.0506 3.09428 9.84757 3.82 10.5L6.01 12.5L3.82 14.5C3.09428 15.1524 2.51299 15.9494 2.11346 16.8397C1.71392 17.7301 1.50497 18.6941 1.5 19.67V21.78C1.19772 21.9545 0.946381 22.2051 0.770949 22.5068C0.595518 22.8086 0.502107 23.151 0.5 23.5V24C0.5 24.1326 0.552679 24.2598 0.646447 24.3536C0.740215 24.4473 0.867392 24.5 1 24.5H18C18.1326 24.5 18.2598 24.4473 18.3536 24.3536C18.4473 24.2598 18.5 24.1326 18.5 24V23.5C18.4979 23.151 18.4045 22.8086 18.2291 22.5068C18.0536 22.2051 17.8023 21.9545 17.5 21.78V19.67C17.495 18.6941 17.2861 17.7301 16.8865 16.8397C16.487 15.9494 15.9057 15.1524 15.18 14.5L12.99 12.5L15.18 10.5C15.9057 9.84757 16.487 9.0506 16.8865 8.16026C17.2861 7.26991 17.495 6.30587 17.5 5.33ZM10.83 11.76C10.7252 11.8538 10.6415 11.9686 10.5841 12.097C10.5267 12.2254 10.4971 12.3644 10.4971 12.505C10.4971 12.6456 10.5267 12.7846 10.5841 12.913C10.6415 13.0414 10.7252 13.1562 10.83 13.25L13.83 15.96C14.3529 16.4268 14.7717 16.9983 15.0594 17.6375C15.3471 18.2766 15.4972 18.9691 15.5 19.67V21.5H14.25L9.9 15.7C9.8512 15.6413 9.79006 15.594 9.72093 15.5615C9.6518 15.5291 9.57637 15.5123 9.5 15.5123C9.42363 15.5123 9.3482 15.5291 9.27907 15.5615C9.20994 15.594 9.1488 15.6413 9.1 15.7L4.75 21.5H3.5V19.67C3.50011 18.9682 3.64798 18.2742 3.93398 17.6333C4.21999 16.9924 4.63772 16.4188 5.16 15.95L8.16 13.24C8.26475 13.1462 8.34855 13.0314 8.40592 12.903C8.46328 12.7746 8.49294 12.6356 8.49294 12.495C8.49294 12.3544 8.46328 12.2154 8.40592 12.087C8.34855 11.9586 8.26475 11.8438 8.16 11.75L5.16 9.04C4.63897 8.5723 4.22198 8.00038 3.93602 7.36128C3.65006 6.72219 3.50151 6.03015 3.5 5.33V3.5H15.5V5.33C15.4999 6.03184 15.352 6.72579 15.066 7.36672C14.78 8.00764 14.3623 8.58117 13.84 9.05L10.83 11.76Z" fill="#303C42"/>
</svg>
