<svg width="150" height="150" viewBox="0 0 150 150" fill="none" xmlns="http://www.w3.org/2000/svg">
<g clip-path="url(#clip0_1_2339)">
<path d="M101.815 70.1012C101.815 52.4847 116.096 38.2044 133.712 38.2044C136.105 38.2128 138.49 38.4903 140.821 39.0318C128.084 15.7726 103.386 0 74.9996 0C33.5784 0 0 33.5784 0 74.9996C0 89.3107 4.01164 102.686 10.9669 114.06C18.2887 96.2628 34.4929 76.8348 34.4929 76.8348C34.4929 74.8516 50.9171 66.1799 50.9171 66.1799C50.9171 66.1799 58.9768 78.1158 64.5877 90.0518C69.3776 100.242 71.1328 106.641 71.5453 108.3L71.7448 107.474C72.0473 103.252 72.9831 89.2965 72.6466 82.6049C72.2507 74.6695 70.2034 66.1799 70.2034 66.1799C70.2034 66.1799 84.5485 75.2593 86.0441 77.9765C87.5396 80.6937 87.949 106.133 87.2689 123.679C86.5888 141.225 87.09 142.111 87.5856 147.551C87.6236 147.964 87.6758 148.422 87.7352 148.897C123.086 142.846 149.998 112.074 149.998 74.9964C149.998 74.3979 149.967 73.8089 149.953 73.2111H101.815V70.1012Z" fill="#DB281C"/>
<path d="M40.6152 131.368C40.426 125.013 39.0896 113.208 37.7135 102.196C32.3813 111.171 23.6399 126.689 25.6422 128.813C26.3658 129.58 27.6136 130.333 29.1828 131.057C31.0766 131.815 36.3953 132.902 40.6484 133.957C40.6492 133.071 40.6389 132.204 40.6152 131.368Z" fill="#DB281C"/>
<path d="M85.4083 77.1729C85.4083 77.1729 87.0971 78.0137 91.8759 86.7962C95.4624 93.3857 106.14 116.169 106.705 113.618C108.138 107.147 109.01 80.0444 109.01 80.0444L122.967 81.7348C122.967 81.7348 120.139 116.697 119.269 123.241C118.398 129.786 107.498 136.376 99.9506 130.099C92.4032 123.823 87.0519 115.498 87.0519 115.498L85.4083 77.1729Z" fill="white"/>
<path d="M37.712 102.196C39.088 113.208 40.4244 125.013 40.6152 131.368C40.6406 132.204 40.6509 133.071 40.6501 133.96C43.9864 134.788 46.6671 135.598 46.523 136.216C50.5901 137.112 53.605 137.646 53.605 137.646L53.4933 138.359C55.6231 138.01 58.9332 137.488 59.3695 137.52C60.0187 137.569 62.6345 137.606 62.8531 138.119C63.0716 138.632 63.2663 140.619 63.6582 140.879C64.0501 141.14 66.4926 142.274 66.0785 143.422C65.6644 144.57 64.7326 144.65 64.7326 144.65C64.7326 144.65 65.3763 146.013 64.6859 146.755C63.9955 147.497 63.4579 147.502 63.4579 147.502C63.4579 147.502 63.6677 148.367 63.3906 149.101C66.6672 149.603 69.9731 149.889 73.2871 149.956L71.3205 109.23L71.5453 108.3C71.1329 106.638 69.3776 100.242 64.5877 90.0518C58.9768 78.1158 50.9171 66.1798 50.9171 66.1798C50.9171 66.1798 34.4929 74.8516 34.4929 76.8348L41.5819 95.8234C41.5819 95.8234 39.9431 98.4408 37.712 102.196Z" fill="#794E6D"/>
<path d="M87.2689 123.682C87.949 106.136 87.5412 80.7 86.0441 77.9796C84.547 75.2593 70.2034 66.183 70.2034 66.183C70.2034 66.183 72.2476 74.6726 72.6466 82.608C72.9831 89.2996 72.0473 103.255 71.7448 107.478L72.0687 106.14L73.8675 149.971C74.2459 149.977 74.6196 150 74.9988 150C79.268 149.995 83.5291 149.627 87.736 148.9C87.6766 148.425 87.6244 147.968 87.5864 147.554C87.0892 142.114 86.5888 141.229 87.2689 123.682Z" fill="#794E6D"/>
<path d="M71.7449 107.474L71.5453 108.3C71.6158 108.584 71.6522 108.746 71.6522 108.746C71.6522 108.746 71.6887 108.259 71.7449 107.474Z" fill="#5A3151"/>
<path d="M73.2871 149.956C73.4811 149.956 73.6743 149.968 73.8682 149.971L72.0687 106.136L71.7449 107.474C71.6886 108.259 71.6522 108.746 71.6522 108.746C71.6522 108.746 71.6158 108.588 71.5453 108.3L71.3205 109.23L73.2871 149.956Z" fill="#5A3151"/>
<path d="M63.454 147.502C63.454 147.502 63.9916 147.496 64.6819 146.755C65.3723 146.014 64.7287 144.65 64.7287 144.65C64.7287 144.65 65.6637 144.57 66.0746 143.422C66.4855 142.273 64.0501 141.14 63.6543 140.879C63.2584 140.619 63.0668 138.631 62.8491 138.119C62.6314 137.606 60.0148 137.569 59.3655 137.52C58.9293 137.487 55.6191 138.01 53.4894 138.359L52.2179 146.468C55.8676 147.632 59.6016 148.514 63.3867 149.104C63.6638 148.368 63.454 147.502 63.454 147.502Z" fill="#FAAC6C"/>
<path d="M24.3929 130.346C26.2867 130.225 27.9723 130.574 29.1812 131.058C27.6128 130.334 26.3651 129.582 25.6414 128.814C23.6392 126.688 32.3782 111.17 37.7112 102.195C36.1278 89.5205 34.4921 77.8949 34.4921 76.834C34.4921 76.834 18.2903 96.262 10.9661 114.059C14.6553 120.091 19.1753 125.574 24.3929 130.346Z" fill="white"/>
<path d="M41.882 142.297C44.5182 143.596 47.2291 144.737 50.0002 145.716L51.685 138.657C51.685 138.657 52.4482 138.529 53.4894 138.359L53.601 137.646C53.601 137.646 50.5861 137.112 46.5191 136.216C46.5191 136.216 43.6712 137.569 41.882 142.297Z" fill="white"/>
<path d="M41.5819 95.8234L34.4929 76.8348C34.4929 77.8957 36.1285 89.5213 37.712 102.196C39.9431 98.4408 41.5819 95.8234 41.5819 95.8234Z" fill="white"/>
<path d="M50.0026 145.716C50.7365 145.976 51.4736 146.228 52.2194 146.466L53.4933 138.359C52.4522 138.529 51.689 138.657 51.689 138.657L50.0026 145.716Z" fill="white"/>
<path d="M40.6485 133.959C36.3954 132.904 31.0766 131.817 29.1828 131.058C32.2301 132.464 36.5094 133.756 40.6422 134.818C40.6453 134.531 40.6485 134.243 40.6485 133.959Z" fill="#B580B9"/>
<path d="M40.6422 134.819C42.7006 135.347 44.7124 135.817 46.5215 136.216C46.6656 135.598 43.988 134.791 40.6485 133.96C40.6485 134.243 40.6453 134.531 40.6422 134.819Z" fill="#B580B9"/>
<path d="M29.1828 131.059C27.9738 130.574 26.2883 130.225 24.3945 130.346C29.2223 134.758 34.6053 138.522 40.407 141.54C40.5384 139.238 40.6239 136.971 40.6445 134.82C36.5094 133.757 32.2301 132.465 29.1828 131.059Z" fill="#B580B9"/>
<path d="M46.5214 136.216C44.7123 135.82 42.6982 135.345 40.6421 134.819C40.6223 136.97 40.5368 139.237 40.4046 141.54C40.8955 141.795 41.3871 142.052 41.8835 142.297C43.6712 137.569 46.5214 136.216 46.5214 136.216Z" fill="#B580B9"/>
<path d="M86.1257 21.3764C86.1257 21.3764 86.1257 27.5693 85.4187 31.1075C84.7117 34.6457 82.764 39.1284 82.764 39.1284V21.3764H86.1257Z" fill="#7C471E"/>
<path d="M53.2653 47.4581V62.7762C53.2653 62.7762 52.8623 67.5535 50.4444 69.323C48.0265 71.0925 46.0804 72.569 46.0804 72.569C46.0804 72.569 51.86 77.5236 62.2988 76.7564C72.7376 75.9893 76.925 72.0972 76.925 72.0972C76.925 72.0972 70.1463 69.4409 70.1463 65.5481V59.2998L53.2653 47.4581Z" fill="#FAAC6C"/>
<path d="M53.2653 49.6638C53.2653 49.6638 54.2581 57.0949 59.1335 61.4604C64.009 65.8259 70.1464 64.7223 70.1464 64.7223V62.401L53.2653 49.6638Z" fill="#E2833B"/>
<path d="M67.5772 62.4025H69.9524C71.8319 62.4025 73.6929 62.0324 75.4293 61.3131C77.1657 60.5939 78.7435 59.5397 80.0724 58.2107C81.4014 56.8817 82.4556 55.304 83.1749 53.5676C83.8941 51.8312 84.2643 49.9701 84.2643 48.0906V26.3872C84.2643 24.5076 83.894 22.6463 83.1747 20.9097C82.4553 19.1732 81.4008 17.5953 80.0716 16.2663C78.7424 14.9373 77.1644 13.8832 75.4277 13.1641C73.691 12.445 71.8297 12.075 69.95 12.0753H67.5749C63.7795 12.0759 60.1398 13.5841 57.4563 16.268C54.7728 18.9519 53.2653 22.5919 53.2653 26.3872V48.0906C53.2653 49.9701 53.6355 51.8312 54.3547 53.5676C55.074 55.304 56.1282 56.8817 57.4572 58.2107C58.7862 59.5397 60.3639 60.5939 62.1003 61.3131C63.8367 62.0324 65.6978 62.4025 67.5772 62.4025Z" fill="#FAAC6C"/>
<path d="M53.2653 36.1555C53.2653 36.1555 50.849 33.3227 48.4358 33.3227C46.0226 33.3227 44.0196 36.2394 45.5159 39.9027C47.0123 43.566 49.9923 47.8753 51.765 47.9853C53.5376 48.0954 54.3484 45.9023 54.3484 45.9023L53.2653 36.1555Z" fill="#FAAC6C"/>
<path d="M42.7378 10.0303C42.7378 10.0303 46.7487 4.6466 59.2515 4.52626C71.7543 4.40592 77.5743 11.3279 83.3538 12.0753C89.1334 12.8227 90.7849 9.51964 90.7849 9.51964C90.7849 9.51964 93.0548 21.0669 83.0593 23.8498C74.8025 26.1497 70.733 25.3239 65.2456 22.1389C62.2292 20.3876 59.4581 19.8484 59.4581 19.8484C59.4581 19.8484 61.5309 24.6779 59.7614 28.5692C57.9919 32.4605 56.5565 33.3069 56.3997 34.9584C56.243 36.6099 57.5794 37.9471 57.5794 37.9471L54.6896 39.8338C54.6896 39.8338 52.7934 35.3123 49.6717 33.8959C46.5499 32.4795 45.0187 35.469 45.2547 38.0643C45.4906 40.6596 49.465 47.2229 51.0342 47.5404C52.6034 47.8579 53.2653 47.4612 53.2653 47.4612V55.1124C53.2653 55.1124 41.9516 50.214 39.4743 37.9471C36.997 25.6802 37.233 16.6364 42.7378 10.0303Z" fill="#7C471E"/>
<path d="M47.4977 39.7317C47.4977 39.7317 46.4684 36.7231 49.1444 36.9796C51.8205 37.2362 52.6937 42.304 52.5393 43.5129C52.3849 44.7219 50.3534 44.7733 49.4516 42.3253C48.5499 39.8773 50.4547 39.9074 50.4547 39.9074C50.4547 39.9074 49.7865 38.2876 48.5776 37.9012C47.3686 37.5148 47.3694 39.2432 47.4977 39.7317Z" fill="#E2833B"/>
<path d="M73.4289 36.9638C73.4289 36.9638 73.5872 40.601 74.1169 42.3111C74.6465 44.0212 75.591 45.4962 75.591 46.4985C75.591 47.5008 72.9174 48.15 73.4289 48.4445C73.9403 48.7391 76.9211 47.7629 77.2164 46.6418C77.5118 45.5207 74.7384 42.783 74.3528 41.0111C73.9672 39.2392 73.8516 37.2108 73.7923 36.3518C73.7329 35.4928 73.3616 35.8649 73.4289 36.9638Z" fill="#E2833B"/>
<path d="M65.9162 37.0929C65.9162 36.1982 65.2559 35.4722 64.442 35.4722C63.6281 35.4722 62.967 36.1982 62.967 37.0929C62.967 37.9875 63.6273 38.7151 64.446 38.7151C65.2646 38.7151 65.9162 37.9883 65.9162 37.0929Z" fill="#281B0D"/>
<path d="M81.8108 37.0929C81.8108 36.1982 81.1513 35.4722 80.3366 35.4722C79.5219 35.4722 78.8624 36.1982 78.8624 37.0929C78.8624 37.9875 79.5219 38.7135 80.3366 38.7135C81.1513 38.7135 81.8108 37.9883 81.8108 37.0929Z" fill="#281B0D"/>
<path d="M72.873 50.4642C70.6967 50.4664 68.5223 50.3357 66.3619 50.0731C66.3203 50.0676 66.278 50.0738 66.2397 50.091C66.2014 50.1082 66.1686 50.1357 66.145 50.1705C66.1214 50.2052 66.108 50.2458 66.1062 50.2878C66.1043 50.3297 66.1142 50.3713 66.1347 50.408C66.8084 51.6898 69.1614 55.6666 72.4281 55.6666C73.8437 55.6666 74.9616 54.8749 75.838 53.8821C76.488 52.5274 76.933 51.0865 77.1966 50.0676C76.4128 50.256 75.0613 50.4642 72.873 50.4642Z" fill="white"/>
<path d="M77.6677 49.9409C77.5442 49.9797 76.5451 50.1657 76.3622 50.2101C76.078 51.5022 76.1445 52.0825 75.1073 54.6065C76.8673 53.1917 77.6519 51.0287 77.944 50.2441C77.9602 50.2044 77.9649 50.1608 77.9573 50.1186C77.9498 50.0763 77.9305 50.037 77.9016 50.0053C77.8727 49.9736 77.8353 49.9507 77.794 49.9393C77.7526 49.9279 77.7088 49.9284 77.6677 49.9409Z" fill="#CB5E26"/>
<path d="M61.0598 37.9083C61.0598 37.9083 62.0653 35.8586 64.5006 35.8586C66.936 35.8586 67.8259 38.2044 67.8259 38.2044C67.8259 38.2044 67.3326 35.2458 64.5006 35.2458C61.6686 35.2458 61.0598 37.9083 61.0598 37.9083Z" fill="#281B0D"/>
<path d="M76.9551 37.9083C76.9551 37.9083 77.9606 35.8586 80.3967 35.8586C82.8329 35.8586 83.722 38.2044 83.722 38.2044C83.722 38.2044 83.2287 35.2458 80.3967 35.2458C77.5648 35.2458 76.9551 37.9083 76.9551 37.9083Z" fill="#281B0D"/>
<path d="M58.9966 33.789C58.9966 33.789 61.2863 32.3734 62.7414 32.3734C64.1966 32.3734 68.5503 32.9039 69.0221 32.4914C69.494 32.0789 69.4742 30.6332 68.9636 30.4765C68.4529 30.3197 63.3424 30.0632 62.2007 30.25C61.059 30.4369 57.9151 32.953 58.0331 33.5824C58.151 34.2118 58.5564 34.0321 58.9966 33.789Z" fill="#7C471E"/>
<path d="M84.2619 33.789C84.2619 33.789 84.3308 32.3734 82.897 32.3734C81.4632 32.3734 77.1713 32.9039 76.7065 32.4914C76.2418 32.0789 76.2608 30.6332 76.7651 30.4765C77.2694 30.3197 82.3657 30.0244 83.4108 30.4765C84.2429 30.8375 84.292 31.4313 84.2991 31.8089C84.3126 32.4763 84.2659 32.8762 84.2619 33.789Z" fill="#7C471E"/>
<path d="M52.3113 69.7505L67.4102 71.6506L72.4423 68.3254C72.4423 68.3254 75.0875 80.4063 74.211 91.7888C73.3346 103.171 71.5453 108.303 71.5453 108.303L69.2755 104.903L52.3113 69.7505Z" fill="#EEEDF3"/>
<path d="M53.1743 63.4832C53.1743 63.4832 57.4694 70.292 64.8917 70.5668C72.3141 70.8415 70.2018 66.1798 70.2018 66.1798L75.1026 72.4028L72.4424 75.1912L70.2746 78.3969L66.1086 72.6751L64.351 79.476C64.351 79.476 59.5904 77.9796 56.4615 75.1215C53.3326 72.2634 51.0208 66.62 51.0208 66.62L53.1743 63.4832Z" fill="white"/>
<path d="M50.9171 64.8466C50.9171 64.8466 58.4329 76.7556 62.6828 85.155C66.9328 93.5543 71.2097 105.686 71.6522 108.748C70.4955 106.64 54.0048 89.4422 54.3484 88.8302C54.692 88.2182 58.1605 84.0355 58.1605 84.0355C58.1605 84.0355 51.7334 85.6672 50.9171 85.0552C50.1008 84.4432 42.2462 71.2809 42.4504 70.159C42.6547 69.0372 50.9171 64.8466 50.9171 64.8466Z" fill="#5A3151"/>
<path d="M70.2034 66.1798C70.6626 70.1384 72.1977 76.5886 72.4423 81.9588C72.687 87.3291 71.3205 109.23 71.3205 109.23C71.3205 109.23 75.401 97.0379 76.5229 93.2654C77.6447 89.4928 78.2575 87.1953 78.2061 86.6854C78.1546 86.1755 74.4319 81.7371 74.4319 81.7371C74.4319 81.7371 78.0533 83.0126 78.5125 82.608C78.9717 82.2035 79.5322 72.4574 78.5125 71.0291C77.4927 69.6009 70.1464 64.7223 70.1464 64.7223C70.1464 64.7223 70.1614 65.818 70.2034 66.1798Z" fill="#5A3151"/>
<path d="M51.8355 67.3532L52.2123 66.9256C52.5152 66.2588 52.7472 65.562 52.9043 64.8466C53.1323 63.7437 53.2653 62.9924 53.2653 62.9924C53.2653 62.9924 51.3003 63.579 47.7043 65.8996C44.1083 68.2201 43.0577 69.4497 43.0577 69.4497L51.8355 67.3532Z" fill="#5A3151"/>
<path d="M64.632 78.3826L66.3216 79.6969L66.4395 93.738L71.6522 108.746L72.2009 92.8046L69.0253 79.3659L69.7584 77.6875L66.107 72.6751L64.632 78.3826Z" fill="#342617"/>
<path d="M37.8197 103.381C37.8197 103.381 43.1907 96.9682 44.0561 87.565C44.9214 78.1617 42.5154 70.8747 42.5154 70.8747C42.5154 70.8747 35.5562 72.6751 31.5334 80.7491C31.2983 81.2241 37.8197 103.381 37.8197 103.381Z" fill="white"/>
<path d="M37.8196 103.381L41.5819 96.855L40.3611 126.817L37.8196 103.381Z" fill="#5A3151"/>
<path d="M111.571 80.2804C111.571 80.2804 113.075 72.6799 117.76 72.6799H142.753C142.753 72.6799 133.945 81.1821 132.121 81.4205C130.296 81.6588 121.266 81.5337 121.266 81.5337L111.571 80.2804Z" fill="#FAAC6C"/>
<path d="M133.708 38.2044C116.092 38.2044 101.811 52.4847 101.811 70.1012V73.2143H149.952C149.661 60.8476 146.397 49.2181 140.818 39.0294C138.486 38.4887 136.101 38.212 133.708 38.2044Z" fill="#776654"/>
<path d="M129.662 39.126C129.662 39.126 116.213 42.6792 110.502 52.2685C104.791 61.8578 105.265 70.874 105.265 70.874H112.526C112.526 70.874 112.285 49.1246 129.662 39.126Z" fill="#918071"/>
<path d="M131.695 38.7135H135.719C135.767 38.7135 135.806 38.6745 135.806 38.6264V34.6029C135.806 34.5548 135.767 34.5158 135.719 34.5158H131.695C131.647 34.5158 131.608 34.5548 131.608 34.6029V38.6264C131.608 38.6745 131.647 38.7135 131.695 38.7135Z" fill="#776654"/>
</g>
<defs>
<clipPath id="clip0_1_2339">
<rect width="150" height="150" fill="white"/>
</clipPath>
</defs>
</svg>
