<svg width="31" height="31" viewBox="0 0 31 31" fill="none" xmlns="http://www.w3.org/2000/svg">
<path d="M21.2118 18.7049C19.7381 17.3949 17.8349 16.6713 15.8631 16.6713C13.8913 16.6713 11.9881 17.3949 10.5144 18.7049C10.3899 18.8127 10.288 18.9441 10.2147 19.0916C10.1414 19.239 10.0981 19.3996 10.0874 19.5639C10.0766 19.7282 10.0986 19.893 10.1521 20.0488C10.2056 20.2045 10.2895 20.3481 10.399 20.4711C10.5084 20.5942 10.6412 20.6943 10.7896 20.7656C10.9381 20.8369 11.0992 20.8779 11.2637 20.8864C11.4281 20.8949 11.5926 20.8707 11.7476 20.8151C11.9026 20.7595 12.045 20.6736 12.1666 20.5625C13.1851 19.6573 14.5004 19.1573 15.8631 19.1573C17.2258 19.1573 18.5411 19.6573 19.5596 20.5625C19.8061 20.7816 20.1295 20.8938 20.4588 20.8744C20.788 20.8551 21.096 20.7057 21.3151 20.4592C21.5342 20.2127 21.6464 19.8893 21.627 19.5601C21.6077 19.2309 21.4583 18.9228 21.2118 18.7037V18.7049Z" fill="black"/>
<path d="M15.8622 11.5658C12.5246 11.5612 9.31084 12.8297 6.87621 15.1128C6.75295 15.2232 6.65297 15.3572 6.58214 15.5067C6.51131 15.6563 6.47106 15.8185 6.46374 15.9838C6.45642 16.1492 6.48219 16.3143 6.53953 16.4695C6.59687 16.6248 6.68463 16.767 6.79766 16.8879C6.9107 17.0087 7.04672 17.1058 7.19777 17.1734C7.34882 17.241 7.51185 17.2778 7.6773 17.2816C7.84274 17.2854 8.00728 17.2561 8.16125 17.1954C8.31523 17.1348 8.45554 17.044 8.57397 16.9284C10.5508 15.0802 13.156 14.052 15.8622 14.052C18.5685 14.052 21.1737 15.0802 23.1505 16.9284C23.2689 17.044 23.4093 17.1348 23.5632 17.1954C23.7172 17.2561 23.8817 17.2854 24.0472 17.2816C24.2126 17.2778 24.3757 17.241 24.5267 17.1734C24.6778 17.1058 24.8138 17.0087 24.9268 16.8879C25.0398 16.767 25.1276 16.6248 25.1849 16.4695C25.2423 16.3143 25.2681 16.1492 25.2607 15.9838C25.2534 15.8185 25.2132 15.6563 25.1423 15.5067C25.0715 15.3572 24.9715 15.2232 24.8483 15.1128C22.4136 12.8297 19.1999 11.5612 15.8622 11.5658Z" fill="black"/>
<path d="M28.0403 11.1017C24.6887 8.11136 20.3541 6.45868 15.8624 6.45868C11.3707 6.45868 7.03604 8.11136 3.68449 11.1017C3.55853 11.2093 3.45535 11.341 3.381 11.4891C3.30665 11.6371 3.26265 11.7985 3.25156 11.9638C3.24048 12.1291 3.26255 12.2949 3.31646 12.4516C3.37038 12.6082 3.45506 12.7525 3.56553 12.8759C3.676 12.9994 3.81003 13.0995 3.95974 13.1704C4.10945 13.2413 4.27183 13.2816 4.43733 13.2889C4.60283 13.2962 4.76811 13.2703 4.92347 13.2128C5.07883 13.1553 5.22112 13.0673 5.34199 12.954C8.23767 10.3715 11.9821 8.94431 15.8621 8.94431C19.7421 8.94431 23.4865 10.3715 26.3822 12.954C26.628 13.1738 26.951 13.287 27.2802 13.2686C27.6094 13.2502 27.9179 13.1018 28.1377 12.856C28.3575 12.6103 28.4706 12.2872 28.4523 11.958C28.4339 11.6288 28.2855 11.3204 28.0397 11.1006L28.0403 11.1017Z" fill="black"/>
<path d="M15.8624 25.8742C16.9086 25.8742 17.7567 25.0261 17.7567 23.9799C17.7567 22.9338 16.9086 22.0857 15.8624 22.0857C14.8162 22.0857 13.9681 22.9338 13.9681 23.9799C13.9681 25.0261 14.8162 25.8742 15.8624 25.8742Z" fill="black"/>
</svg>
