<svg width="26" height="8" viewBox="0 0 26 8" fill="none" xmlns="http://www.w3.org/2000/svg">
<path d="M25.0403 5.10175C21.6887 2.11136 17.3541 0.458679 12.8624 0.458679C8.3707 0.458679 4.03604 2.11136 0.684493 5.10175C0.558532 5.20934 0.455347 5.34103 0.381001 5.48907C0.306654 5.63711 0.262647 5.79852 0.251564 5.9638C0.240482 6.12909 0.262547 6.29493 0.316464 6.45157C0.370381 6.60821 0.455062 6.75249 0.565531 6.87594C0.676 6.99939 0.810028 7.09951 0.959741 7.17043C1.10945 7.24135 1.27183 7.28162 1.43733 7.2889C1.60283 7.29617 1.76811 7.27029 1.92347 7.21278C2.07883 7.15527 2.22112 7.06729 2.34199 6.954C5.23767 4.37149 8.98211 2.94431 12.8621 2.94431C16.7421 2.94431 20.4865 4.37149 23.3822 6.954C23.628 7.1738 23.951 7.28696 24.2802 7.26859C24.6094 7.25022 24.9179 7.10182 25.1377 6.85603C25.3575 6.61025 25.4706 6.28722 25.4523 5.95801C25.4339 5.62879 25.2855 5.32036 25.0397 5.10056L25.0403 5.10175Z" fill="black"/>
</svg>
