<svg width="43" height="43" viewBox="0 0 43 43" fill="none" xmlns="http://www.w3.org/2000/svg">
<path d="M42.0498 21.5093C42.0498 10.0446 32.7586 0.75058 21.2972 0.75058C9.83584 0.75058 0.544556 10.0446 0.544556 21.5093C0.544556 32.9741 9.83584 42.2681 21.2972 42.2681C32.7586 42.2681 42.0498 32.9741 42.0498 21.5093Z" fill="#DD242A"/>
<path d="M30.1066 30.7036C29.4883 30.7707 28.8554 30.7823 28.2487 30.7809C23.5166 30.7765 18.7845 30.7721 14.0539 30.7692C12.565 30.7692 10.9434 30.7211 9.79285 29.7744C8.49644 28.7052 8.22667 26.8512 8.12167 25.1736C7.97585 22.8747 7.96418 20.5685 8.08376 18.2682C8.14938 17.0049 8.26458 15.7111 8.80851 14.5674C9.19933 13.7462 9.85118 13.0081 10.6853 12.6201C11.6551 12.1693 12.67 12.2496 13.7141 12.2481C16.2136 12.2452 18.7131 12.2437 21.2126 12.2408C23.8112 12.2379 26.4113 12.2364 29.0099 12.2335C30.2378 12.2335 31.5561 12.2583 32.5579 12.9687C33.8514 13.8848 34.2028 15.6279 34.3647 17.2048C34.6636 20.109 34.668 23.0439 34.3764 25.9482C34.2553 27.1458 34.0541 28.412 33.2652 29.3207C32.4835 30.2222 31.3242 30.5694 30.108 30.7021L30.1066 30.7036Z" fill="white"/>
<path d="M25.529 21.5094L18.4768 17.4367V25.5821L25.529 21.5094Z" fill="#DD242A"/>
</svg>
